# File generated by ImageToStl.com - Free Image and 3D model conversion tools

o obj1
v 32.29999924 2.47000003 45.01623535
v 32.29999924 3.97000003 45.01623535
v 33.64572906 3.97000003 44.69852829
v 33.64572906 0.5 44.69852829
v 31.49357796 0.5 45.14891815
v 31.49357796 2.47000003 45.14891815
v 29.30000114 2.47000003 45.30000305
v 29.30000114 0.5 45.30000305
v 27.10642433 2.47000003 45.14891815
v 27.10642433 0.5 45.14891815
v 26.30000114 2.47000003 45.01623535
v 24.95427322 0.5 44.69852829
v 26.30000114 3.97000003 45.01623535
v 42.43199539 3.97000003 38.44060898
v 42.43199539 0.5 38.44060898
v 41.05483246 3.97000003 40.15467453
v 41.05483246 0.5 40.15467453
v 39.45567703 3.97000003 41.66374969
v 39.45567703 0.5 41.66374969
v 37.66472626 3.97000003 42.93933105
v 37.66472626 0.5 42.93933105
v 35.71580887 3.97000003 43.95733261
v 35.71580887 0.5 43.95733261
v 16.16800499 0.5 38.44060898
v 16.16800499 3.97000003 38.44060898
v 17.54516983 0.5 40.15467453
v 17.54516983 3.97000003 40.15467453
v 19.14432526 0.5 41.66374969
v 19.14432526 3.97000003 41.66374969
v 20.93527412 0.5 42.93933105
v 20.93527412 3.97000003 42.93933105
v 22.88419151 0.5 43.95733261
v 22.88419151 3.97000003 43.95733261
v 24.95427322 3.97000003 44.69852829
v 17.41763115 3.97000003 37.71913528
v 17.41763115 0.5 37.71913528
v 17.61039543 0.5 37.58415985
v 17.61039543 3.97000003 37.58415985
v 17.77679253 0.5 37.41776276
v 17.77679253 3.97000003 37.41776276
v 17.91176605 0.5 37.22500229
v 17.91176605 3.97000003 37.22500229
v 18.01121712 0.5 37.01172638
v 18.01121712 3.97000003 37.01172638
v 18.07212257 0.5 36.78442383
v 18.07212257 3.97000003 36.78442383
v 18.09263229 0.5 36.54999924
v 18.09263229 3.97000003 36.54999924
v 18.07212257 0.5 36.31557465
v 18.07212257 3.97000003 36.31557465
v 18.01121712 0.5 36.08827209
v 18.01121712 3.97000003 36.08827209
v 17.91176605 0.5 35.875
v 17.91176605 3.97000003 35.875
v 17.77679253 0.5 35.68223572
v 17.77679253 3.97000003 35.68223572
v 17.61039543 0.5 35.51584244
v 17.61039543 3.97000003 35.51584244
v 17.41763115 0.5 35.380867
v 17.41763115 3.97000003 35.380867
v 17.20435905 0.5 35.28141403
v 17.20435905 3.97000003 35.28141403
v 16.9770565 0.5 35.22050858
v 16.9770565 3.97000003 35.22050858
v 16.74263191 0.5 35.20000076
v 16.74263191 3.97000003 35.20000076
v 16.50820732 0.5 35.22050858
v 16.50820732 3.97000003 35.22050858
v 16.28090477 0.5 35.28141403
v 16.28090477 3.97000003 35.28141403
v 16.06763268 0.5 35.380867
v 16.06763268 3.97000003 35.380867
v 14.81800556 3.97000003 36.10233688
v 14.81800556 0.5 36.10233688
v 14.02216148 3.97000003 34.05264664
v 14.02216148 0.5 34.05264664
v 13.51484299 3.97000003 31.91319847
v 13.51484299 0.5 31.91319847
v 13.30563068 3.97000003 29.72440147
v 13.30563068 0.5 29.72440147
v 13.39847374 3.97000003 27.52758789
v 13.39847374 0.5 27.52758789
v 13.79162025 3.97000003 25.36424828
v 13.79162025 0.5 25.36424828
v 14.47764587 3.97000003 23.27523422
v 14.47764587 0.5 23.27523422
v 15.44359398 3.97000003 21.29999924
v 15.44359398 0.5 21.29999924
v 16.67122269 3.97000003 19.47584724
v 16.67122269 0.5 19.47584724
v 18.13734818 3.97000003 17.83722496
v 18.13734818 0.5 17.83722496
v 19.81428337 3.97000003 16.41507912
v 19.81428337 0.5 16.41507912
v 21.67035675 3.97000003 15.236269
v 21.67035675 0.5 15.236269
v 23.67051888 3.97000003 14.32305431
v 23.67051888 0.5 14.32305431
v 25.7769928 3.97000003 13.69268036
v 25.7769928 0.5 13.69268036
v 27.95000076 3.97000003 13.35705471
v 27.95000076 0.5 13.35705471
v 27.95000076 3.97000003 14.80000114
v 27.95000076 0.5 14.80000114
v 27.97051048 0.5 15.03442574
v 27.97051048 3.97000003 15.03442574
v 28.03141594 0.5 15.26172733
v 28.03141594 3.97000003 15.26172733
v 28.130867 0.5 15.47500038
v 28.130867 3.97000003 15.47500038
v 28.26584053 0.5 15.66776371
v 28.26584053 3.97000003 15.66776371
v 28.43223763 0.5 15.83415985
v 28.43223763 3.97000003 15.83415985
v 28.625 0.5 15.96913528
v 28.625 3.97000003 15.96913528
v 28.838274 0.5 16.06858444
v 28.838274 3.97000003 16.06858444
v 29.06557465 0.5 16.12949181
v 29.06557465 3.97000003 16.12949181
v 29.30000114 0.5 16.14999962
v 29.30000114 3.97000003 16.14999962
v 29.53442574 0.5 16.12949181
v 29.53442574 3.97000003 16.12949181
v 29.76172829 0.5 16.06858444
v 29.76172829 3.97000003 16.06858444
v 29.97500038 0.5 15.96913528
v 29.97500038 3.97000003 15.96913528
v 30.16776466 0.5 15.83415985
v 30.16776466 3.97000003 15.83415985
v 30.33415985 0.5 15.66776371
v 30.33415985 3.97000003 15.66776371
v 30.46913528 0.5 15.47500038
v 30.46913528 3.97000003 15.47500038
v 30.56858635 0.5 15.26172733
v 30.56858635 3.97000003 15.26172733
v 30.62949181 0.5 15.03442574
v 30.62949181 3.97000003 15.03442574
v 30.64999962 0.5 14.80000114
v 30.64999962 3.97000003 14.80000114
v 30.64999962 3.97000003 13.35705471
v 30.64999962 0.5 13.35705471
v 32.82300949 3.97000003 13.69268036
v 32.82300949 0.5 13.69268036
v 34.92948151 3.97000003 14.32305431
v 34.92948151 0.5 14.32305431
v 36.92964554 3.97000003 15.236269
v 36.92964554 0.5 15.236269
v 38.78571701 3.97000003 16.41507912
v 38.78571701 0.5 16.41507912
v 40.46265411 3.97000003 17.83722496
v 40.46265411 0.5 17.83722496
v 41.9287796 3.97000003 19.47584724
v 41.9287796 0.5 19.47584724
v 43.1564064 3.97000003 21.29999924
v 43.1564064 0.5 21.29999924
v 44.12235641 3.97000003 23.27523422
v 44.12235641 0.5 23.27523422
v 44.80838013 3.97000003 25.36424828
v 44.80838013 0.5 25.36424828
v 45.20152664 3.97000003 27.52758789
v 45.20152664 0.5 27.52758789
v 45.29436874 3.97000003 29.72440147
v 45.29436874 0.5 29.72440147
v 45.0851593 3.97000003 31.91319847
v 45.0851593 0.5 31.91319847
v 44.5778389 3.97000003 34.05264664
v 44.5778389 0.5 34.05264664
v 43.78199768 3.97000003 36.10233688
v 43.78199768 0.5 36.10233688
v 42.53236771 3.97000003 35.380867
v 42.53236771 0.5 35.380867
v 42.31909561 0.5 35.28141403
v 42.31909561 3.97000003 35.28141403
v 42.09179306 0.5 35.22050858
v 42.09179306 3.97000003 35.22050858
v 41.85736847 0.5 35.20000076
v 41.85736847 3.97000003 35.20000076
v 41.62294388 0.5 35.22050858
v 41.62294388 3.97000003 35.22050858
v 41.39564133 0.5 35.28141403
v 41.39564133 3.97000003 35.28141403
v 41.18236923 0.5 35.380867
v 41.18236923 3.97000003 35.380867
v 40.98960495 0.5 35.51584244
v 40.98960495 3.97000003 35.51584244
v 40.82320786 0.5 35.68223572
v 40.82320786 3.97000003 35.68223572
v 40.68823624 0.5 35.875
v 40.68823624 3.97000003 35.875
v 40.58878326 0.5 36.08827209
v 40.58878326 3.97000003 36.08827209
v 40.52787781 0.5 36.31557465
v 40.52787781 3.97000003 36.31557465
v 40.50737 0.5 36.54999924
v 40.50737 3.97000003 36.54999924
v 40.52787781 0.5 36.78442383
v 40.52787781 3.97000003 36.78442383
v 40.58878326 0.5 37.01172638
v 40.58878326 3.97000003 37.01172638
v 40.68823624 0.5 37.22500229
v 40.68823624 3.97000003 37.22500229
v 40.82320786 0.5 37.41776276
v 40.82320786 3.97000003 37.41776276
v 40.98960495 0.5 37.58415985
v 40.98960495 3.97000003 37.58415985
v 41.18236923 0.5 37.71913528
v 41.18236923 3.97000003 37.71913528
v 32.36268616 3.97000003 58.43949127
v 32.29999924 3.97000003 58.44601059
v 32.29999924 2.47000003 58.44601059
v 26.30000114 3.97000003 58.44601059
v 26.23731613 3.97000003 58.43949127
v 26.30000114 2.47000003 58.44601059
v 26.23731613 0 58.43949127
v 29.30000114 2.47000003 58.60000229
v 29.30000114 0 58.60000229
v 32.36268616 0 58.43949127
v 35.39181137 0 57.95972443
v 35.39181137 3.97000003 57.95972443
v 38.35419846 0 57.16595459
v 38.35419846 3.97000003 57.16595459
v 41.21738434 0 56.06688309
v 41.21738434 3.97000003 56.06688309
v 43.95000076 0 54.67454529
v 43.95000076 3.97000003 54.67454529
v 46.52210999 0 53.00419617
v 46.52210999 3.97000003 53.00419617
v 48.90552902 0 51.07414246
v 48.90552902 3.97000003 51.07414246
v 51.07414246 0 48.90552902
v 51.07414246 3.97000003 48.90552902
v 53.00419617 0 46.52210999
v 53.00419617 3.97000003 46.52210999
v 54.67454529 0 43.95000076
v 54.67454529 3.97000003 43.95000076
v 56.06688309 0 41.21738434
v 56.06688309 3.97000003 41.21738434
v 57.16595459 0 38.35419846
v 57.16595459 3.97000003 38.35419846
v 57.95972443 0 35.39181137
v 57.95972443 3.97000003 35.39181137
v 58.43949127 0 32.36268616
v 58.43949127 3.97000003 32.36268616
v 58.60000229 0 29.30000114
v 58.60000229 3.97000003 29.30000114
v 58.43949127 0 26.23731613
v 58.43949127 3.97000003 26.23731613
v 57.95972443 0 23.2081871
v 57.95972443 3.97000003 23.2081871
v 57.16595459 0 20.24580193
v 57.16595459 3.97000003 20.24580193
v 56.06688309 0 17.38261795
v 56.06688309 3.97000003 17.38261795
v 54.67454529 0 14.65000057
v 54.67454529 3.97000003 14.65000057
v 53.00419617 0 12.0778923
v 53.00419617 3.97000003 12.0778923
v 51.07414246 0 9.69447422
v 51.07414246 3.97000003 9.69447422
v 48.90552902 0 7.52585745
v 48.90552902 3.97000003 7.52585745
v 46.52210999 0 5.59580326
v 46.52210999 3.97000003 5.59580326
v 43.95000076 0 3.92545581
v 43.95000076 3.97000003 3.92545581
v 41.21738434 0 2.5331192
v 41.21738434 3.97000003 2.5331192
v 38.35419846 0 1.43404496
v 38.35419846 3.97000003 1.43404496
v 35.39181137 0 0.64027494
v 35.39181137 3.97000003 0.64027494
v 32.36268616 0 0.16050972
v 32.36268616 3.97000003 0.16050972
v 29.30000114 0 0
v 29.30000114 3.97000003 0
v 26.23731613 0 0.16050972
v 26.23731613 3.97000003 0.16050972
v 23.2081871 0 0.64027494
v 23.2081871 3.97000003 0.64027494
v 20.24580193 0 1.43404496
v 20.24580193 3.97000003 1.43404496
v 17.38261795 0 2.5331192
v 17.38261795 3.97000003 2.5331192
v 14.65000057 0 3.92545581
v 14.65000057 3.97000003 3.92545581
v 12.0778923 0 5.59580326
v 12.0778923 3.97000003 5.59580326
v 9.69447422 0 7.52585745
v 9.69447422 3.97000003 7.52585745
v 7.52585745 0 9.69447422
v 7.52585745 3.97000003 9.69447422
v 5.59580326 0 12.0778923
v 5.59580326 3.97000003 12.0778923
v 3.92545581 0 14.65000057
v 3.92545581 3.97000003 14.65000057
v 2.5331192 0 17.38261795
v 2.5331192 3.97000003 17.38261795
v 1.43404496 0 20.24580193
v 1.43404496 3.97000003 20.24580193
v 0.64027494 0 23.2081871
v 0.64027494 3.97000003 23.2081871
v 0.16050972 0 26.23731613
v 0.16050972 3.97000003 26.23731613
v 0 0 29.30000114
v 0 3.97000003 29.30000114
v 0.16050972 0 32.36268616
v 0.16050972 3.97000003 32.36268616
v 0.64027494 0 35.39181137
v 0.64027494 3.97000003 35.39181137
v 1.43404496 0 38.35419846
v 1.43404496 3.97000003 38.35419846
v 2.5331192 0 41.21738434
v 2.5331192 3.97000003 41.21738434
v 3.92545581 0 43.95000076
v 3.92545581 3.97000003 43.95000076
v 5.59580326 0 46.52210999
v 5.59580326 3.97000003 46.52210999
v 7.52585745 0 48.90552902
v 7.52585745 3.97000003 48.90552902
v 9.69447422 0 51.07414246
v 9.69447422 3.97000003 51.07414246
v 12.0778923 0 53.00419617
v 12.0778923 3.97000003 53.00419617
v 14.65000057 0 54.67454529
v 14.65000057 3.97000003 54.67454529
v 17.38261795 0 56.06688309
v 17.38261795 3.97000003 56.06688309
v 20.24580193 0 57.16595459
v 20.24580193 3.97000003 57.16595459
v 23.2081871 0 57.95972443
v 23.2081871 3.97000003 57.95972443
v 40.85243607 0.5 35.58201599
v 30.30662346 0.5 16.18858528
v 41.67599106 0.5 33.74492264
v 32.29627228 0.5 16.49590492
v 36.01989746 0.5 17.99666023
v 37.66658783 0.5 19.15491676
v 39.11717606 0.5 20.55096626
v 40.33765411 0.5 22.15208626
v 41.29942322 0.5 23.92074776
v 41.97993469 0.5 25.81549454
v 42.36323929 0.5 27.79191399
v 42.44034958 0.5 29.80368233
v 42.20946503 0.5 31.80364418
v 34.21569443 0.5 17.10334396
v 39.75810242 0.5 37.27186584
v 18.84189987 0.5 37.27186584
v 20.18136406 0.5 38.77486038
v 35.1349144 0.5 41.08457565
v 36.86544037 0.5 40.05577087
v 38.41863632 0.5 38.77486038
v 25.33237457 0.5 41.83716202
v 23.46508408 0.5 41.08457565
v 33.26762772 0.5 41.83716202
v 31.30733871 0.5 42.29588699
v 29.30000114 0.5 42.45000076
v 27.29266167 0.5 42.29588699
v 21.73456001 0.5 40.05577087
v 16.92400932 0.5 33.74492264
v 17.74756432 0.5 35.58201599
v 28.29337692 0.5 16.18858528
v 26.3037262 0.5 16.49590492
v 24.38430595 0.5 17.10334396
v 16.39053535 0.5 31.80364418
v 16.1596508 0.5 29.80368233
v 16.236763 0.5 27.79191399
v 16.6200676 0.5 25.81549454
v 17.30057716 0.5 23.92074776
v 18.26234627 0.5 22.15208626
v 19.48282623 0.5 20.55096626
v 20.93341255 0.5 19.15491676
v 22.58010483 0.5 17.99666023
v 18.26234627 0 22.15208626
v 19.48282623 0 20.55096626
v 20.93341255 0 19.15491676
v 22.58010483 0 17.99666023
v 24.38430595 0 17.10334396
v 16.236763 0 27.79191399
v 16.6200676 0 25.81549454
v 17.30057716 0 23.92074776
v 17.74756432 0 35.58201599
v 16.92400932 0 33.74492264
v 16.39053535 0 31.80364418
v 16.1596508 0 29.80368233
v 20.18136406 0 38.77486038
v 18.84189987 0 37.27186584
v 42.44034958 0 29.80368233
v 42.20946503 0 31.80364418
v 41.67599106 0 33.74492264
v 41.97993469 0 25.81549454
v 42.36323929 0 27.79191399
v 39.11717606 0 20.55096626
v 40.33765411 0 22.15208626
v 41.29942322 0 23.92074776
v 23.46508408 0 41.08457565
v 21.73456001 0 40.05577087
v 36.01989746 0 17.99666023
v 37.66658783 0 19.15491676
v 26.3037262 0 16.49590492
v 28.29337692 0 16.18858528
v 29.30000114 0 16.14999962
v 30.30662346 0 16.18858528
v 32.29627228 0 16.49590492
v 27.29266167 0 42.29588699
v 25.33237457 0 41.83716202
v 33.26762772 0 41.83716202
v 31.30733871 0 42.29588699
v 29.30000114 0 42.45000076
v 34.21569443 0 17.10334396
v 36.86544037 0 40.05577087
v 35.1349144 0 41.08457565
v 39.75810242 0 37.27186584
v 38.41863632 0 38.77486038
v 40.85243607 0 35.58201599
vn -0.22977 0 -0.97325
vn -0.20484 0 -0.9788
vn -0.06871 -0 -0.99764
vn 0.06871 0 -0.99764
vn 0.16235 0 -0.98673
vn 0.2048 0.01792 -0.97864
vn 0.22977 0 -0.97325
vn -0.77956 -0 -0.62633
vn -0.68633 -0 -0.72729
vn -0.58013 -0 -0.81452
vn -0.46299 -0 -0.88637
vn -0.33709 -0 -0.94147
vn -0.16216 0.04817 -0.98559
vn 0.77956 0 -0.62633
vn 0.68633 0 -0.72729
vn 0.58013 0 -0.81452
vn 0.46299 0 -0.88637
vn 0.33709 0 -0.94147
vn 0.5 0 0.86603
vn 0.57358 0 0.81915
vn 0.70711 0 0.70711
vn 0.81915 0 0.57358
vn 0.90631 0 0.42262
vn 0.96593 0 0.25882
vn 0.99619 0 0.08716
vn 0.99619 0 -0.08716
vn 0.96593 0 -0.25882
vn 0.90631 0 -0.42262
vn 0.81915 0 -0.57358
vn 0.70711 0 -0.70711
vn 0.57358 0 -0.81915
vn 0.42262 0 -0.90631
vn 0.25882 0 -0.96593
vn 0.08715 0 -0.99619
vn -0.08715 -0 -0.99619
vn -0.25882 -0 -0.96593
vn -0.42262 -0 -0.90631
vn -0.5 -0 -0.86603
vn 0.9322 0 -0.36195
vn 0.97302 0 -0.23073
vn 0.99546 0 -0.09515
vn 0.99911 0 0.04223
vn 0.98388 0 0.1788
vn 0.95008 0 0.312
vn 0.89833 0 0.43931
vn 0.82962 0 0.55832
vn 0.74524 0 0.66679
vn 0.64679 0 0.76267
vn 0.53612 0 0.84414
vn 0.41533 0 0.90967
vn 0.28669 0 0.95802
vn 0.15264 0 0.98828
vn -1 -0 -0
vn -0.99619 0 0.08716
vn -0.96593 0 0.25882
vn -0.90631 0 0.42262
vn -0.81915 0 0.57358
vn -0.70711 0 0.70711
vn -0.57358 0 0.81915
vn -0.42262 0 0.90631
vn -0.25882 0 0.96593
vn -0.08716 0 0.99619
vn 0.08716 0 0.99619
vn 0.25882 0 0.96593
vn 0.42262 0 0.90631
vn 0.70711 0 0.70711
vn 0.81915 0 0.57358
vn 0.90631 0 0.42262
vn 0.96593 0 0.25882
vn 1 0 -0
vn -0.15264 0 0.98828
vn -0.28669 0 0.95802
vn -0.41533 0 0.90967
vn -0.53612 0 0.84414
vn -0.64679 0 0.76267
vn -0.74524 0 0.66679
vn -0.82962 0 0.55832
vn -0.89833 0 0.43931
vn -0.95008 0 0.312
vn -0.98388 0 0.1788
vn -0.99911 0 0.04223
vn -0.99546 -0 -0.09515
vn -0.97302 -0 -0.23073
vn -0.9322 -0 -0.36195
vn 0.5 0 -0.86603
vn 0.25882 0 -0.96593
vn -0.25882 -0 -0.96593
vn -0.57358 -0 -0.81915
vn -0.70711 -0 -0.70711
vn -0.81915 -0 -0.57358
vn -0.90631 -0 -0.42262
vn -0.96593 -0 -0.25882
vn -0.99619 -0 -0.08716
vn -0.96593 0 0.25882
vn -0.90631 0 0.42262
vn -0.81915 0 0.57358
vn -0.70711 0 0.70711
vn -0.5 0 0.86603
vn 0.10347 0 0.99463
vn -0.10347 0 0.99463
vn -0.05126 -0.00134 0.99868
vn -0.05234 0 0.99863
vn 0.05126 0 0.99869
vn 0.05234 -0.00131 0.99863
vn 0.15643 0 0.98769
vn 0.25882 0 0.96593
vn 0.35837 0 0.93358
vn 0.45399 0 0.89101
vn 0.54464 0 0.83867
vn 0.62932 0 0.77715
vn 0.77715 0 0.62932
vn 0.83867 0 0.54464
vn 0.89101 0 0.45399
vn 0.93358 0 0.35837
vn 0.96593 0 0.25882
vn 0.98769 0 0.15643
vn 0.99863 0 0.05234
vn 0.99863 0 -0.05234
vn 0.98769 0 -0.15643
vn 0.96593 0 -0.25882
vn 0.93358 0 -0.35837
vn 0.89101 0 -0.45399
vn 0.83867 0 -0.54464
vn 0.77715 0 -0.62932
vn 0.62932 0 -0.77715
vn 0.54464 0 -0.83867
vn 0.45399 0 -0.89101
vn 0.35837 0 -0.93358
vn 0.25882 0 -0.96593
vn 0.15643 0 -0.98769
vn 0.05234 0 -0.99863
vn -0.05234 -0 -0.99863
vn -0.15643 -0 -0.98769
vn -0.25882 -0 -0.96593
vn -0.35837 -0 -0.93358
vn -0.45399 -0 -0.89101
vn -0.54464 -0 -0.83867
vn -0.62932 -0 -0.77715
vn -0.77715 -0 -0.62932
vn -0.83867 -0 -0.54464
vn -0.89101 -0 -0.45399
vn -0.93358 -0 -0.35837
vn -0.96593 -0 -0.25882
vn -0.98769 -0 -0.15643
vn -0.99863 -0 -0.05234
vn -0.99863 0 0.05234
vn -0.98769 0 0.15643
vn -0.96593 0 0.25882
vn -0.93358 0 0.35837
vn -0.89101 0 0.45399
vn -0.83867 0 0.54464
vn -0.77715 0 0.62932
vn -0.62932 0 0.77715
vn -0.54464 0 0.83867
vn -0.45399 0 0.89101
vn -0.35837 0 0.93358
vn -0.25882 0 0.96593
vn -0.15643 0 0.98769
vn -0 1 0
vn 0 -1 -0
vn -0.9125 0 -0.40907
vn -0.96425 0 -0.26498
vn -0.9934 0 -0.11468
vn -0.99927 0 0.0383
vn -0.98171 0 0.19039
vn -0.94114 0 0.33802
vn -0.87851 0 0.47772
vn -0.79529 0 0.60623
vn -0.69343 0 0.72052
vn -0.57532 0 0.81793
vn -0.44372 0 0.89617
vn -0.30172 0 0.9534
vn -0.15265 0 0.98828
vn -0.0383 0 0.99927
vn 0.0383 -0 0.99927
vn 0.15265 -0 0.98828
vn 0.30172 -0 0.9534
vn 0.44372 -0 0.89617
vn 0.57532 -0 0.81793
vn 0.69343 -0 0.72052
vn 0.79529 -0 0.60623
vn 0.87851 -0 0.47772
vn 0.94114 -0 0.33802
vn 0.98171 -0 0.19039
vn 0.99927 -0 0.0383
vn 0.9934 0 -0.11468
vn 0.96425 0 -0.26498
vn 0.9125 0 -0.40907
vn 0.87234 0 -0.4889
vn 0.8386 0.04282 -0.54307
vn 0.83236 0 -0.55424
vn 0.74655 0 -0.66533
vn 0.63624 0 -0.77149
vn 0.51102 0 -0.85957
vn 0.37382 0 -0.9275
vn 0.22785 0 -0.9737
vn 0.07655 0 -0.99707
vn -0.07655 0 -0.99707
vn -0.22785 0 -0.9737
vn -0.37382 0 -0.9275
vn -0.51102 0 -0.85957
vn -0.63624 0 -0.77149
vn -0.74655 0 -0.66533
vn -0.83937 0 -0.54357
vn -0.83126 0.05135 -0.55351
vn -0.87234 0 -0.4889
f 1//1 2//1 3//1
f 4//2 5//2 6//2
f 6//3 5//3 7//3
f 7//3 5//3 8//3
f 7//4 8//4 9//4
f 9//4 8//4 10//4
f 9//5 10//5 11//5
f 11//6 10//6 12//6
f 11//7 12//7 13//7
f 14//8 15//8 16//8
f 16//8 15//8 17//8
f 16//9 17//9 18//9
f 18//9 17//9 19//9
f 18//10 19//10 20//10
f 20//10 19//10 21//10
f 20//11 21//11 22//11
f 22//11 21//11 23//11
f 22//12 23//12 3//12
f 3//12 23//12 4//12
f 3//1 4//1 1//1
f 1//13 4//13 6//13
f 24//14 25//14 26//14
f 26//14 25//14 27//14
f 26//15 27//15 28//15
f 28//15 27//15 29//15
f 28//16 29//16 30//16
f 30//16 29//16 31//16
f 30//17 31//17 32//17
f 32//17 31//17 33//17
f 32//18 33//18 12//18
f 12//18 33//18 34//18
f 12//7 34//7 13//7
f 35//19 25//19 36//19
f 36//19 25//19 24//19
f 35//20 36//20 37//20
f 35//20 37//20 38//20
f 38//21 37//21 39//21
f 38//21 39//21 40//21
f 40//22 39//22 41//22
f 40//22 41//22 42//22
f 42//23 41//23 43//23
f 42//23 43//23 44//23
f 44//24 43//24 45//24
f 44//24 45//24 46//24
f 46//25 45//25 47//25
f 46//25 47//25 48//25
f 48//26 47//26 49//26
f 48//26 49//26 50//26
f 50//27 49//27 51//27
f 50//27 51//27 52//27
f 52//28 51//28 53//28
f 52//28 53//28 54//28
f 54//29 53//29 55//29
f 54//29 55//29 56//29
f 56//30 55//30 57//30
f 56//30 57//30 58//30
f 58//31 57//31 59//31
f 58//31 59//31 60//31
f 60//32 59//32 61//32
f 60//32 61//32 62//32
f 62//33 61//33 63//33
f 62//33 63//33 64//33
f 64//34 63//34 65//34
f 64//34 65//34 66//34
f 66//35 65//35 67//35
f 66//35 67//35 68//35
f 68//36 67//36 69//36
f 68//36 69//36 70//36
f 70//37 69//37 71//37
f 70//37 71//37 72//37
f 73//38 72//38 74//38
f 74//38 72//38 71//38
f 73//39 74//39 75//39
f 75//39 74//39 76//39
f 75//40 76//40 77//40
f 77//40 76//40 78//40
f 77//41 78//41 79//41
f 79//41 78//41 80//41
f 79//42 80//42 81//42
f 81//42 80//42 82//42
f 81//43 82//43 83//43
f 83//43 82//43 84//43
f 83//44 84//44 85//44
f 85//44 84//44 86//44
f 85//45 86//45 87//45
f 87//45 86//45 88//45
f 87//46 88//46 89//46
f 89//46 88//46 90//46
f 89//47 90//47 91//47
f 91//47 90//47 92//47
f 91//48 92//48 93//48
f 93//48 92//48 94//48
f 93//49 94//49 95//49
f 95//49 94//49 96//49
f 95//50 96//50 97//50
f 97//50 96//50 98//50
f 97//51 98//51 99//51
f 99//51 98//51 100//51
f 99//52 100//52 101//52
f 101//52 100//52 102//52
f 103//53 101//53 104//53
f 104//53 101//53 102//53
f 103//54 104//54 105//54
f 103//54 105//54 106//54
f 106//55 105//55 107//55
f 106//55 107//55 108//55
f 108//56 107//56 109//56
f 108//56 109//56 110//56
f 110//57 109//57 111//57
f 110//57 111//57 112//57
f 112//58 111//58 113//58
f 112//58 113//58 114//58
f 114//59 113//59 115//59
f 114//59 115//59 116//59
f 116//60 115//60 117//60
f 116//60 117//60 118//60
f 118//61 117//61 119//61
f 118//61 119//61 120//61
f 120//62 119//62 121//62
f 120//62 121//62 122//62
f 122//63 121//63 123//63
f 122//63 123//63 124//63
f 124//64 123//64 125//64
f 124//64 125//64 126//64
f 126//65 125//65 127//65
f 126//65 127//65 128//65
f 128//20 127//20 129//20
f 128//20 129//20 130//20
f 130//66 129//66 131//66
f 130//66 131//66 132//66
f 132//67 131//67 133//67
f 132//67 133//67 134//67
f 134//68 133//68 135//68
f 134//68 135//68 136//68
f 136//69 135//69 137//69
f 136//69 137//69 138//69
f 138//25 137//25 139//25
f 138//25 139//25 140//25
f 141//70 140//70 142//70
f 142//70 140//70 139//70
f 141//71 142//71 143//71
f 143//71 142//71 144//71
f 143//72 144//72 145//72
f 145//72 144//72 146//72
f 145//73 146//73 147//73
f 147//73 146//73 148//73
f 147//74 148//74 149//74
f 149//74 148//74 150//74
f 149//75 150//75 151//75
f 151//75 150//75 152//75
f 151//76 152//76 153//76
f 153//76 152//76 154//76
f 153//77 154//77 155//77
f 155//77 154//77 156//77
f 155//78 156//78 157//78
f 157//78 156//78 158//78
f 157//79 158//79 159//79
f 159//79 158//79 160//79
f 159//80 160//80 161//80
f 161//80 160//80 162//80
f 161//81 162//81 163//81
f 163//81 162//81 164//81
f 163//82 164//82 165//82
f 165//82 164//82 166//82
f 165//83 166//83 167//83
f 167//83 166//83 168//83
f 167//84 168//84 169//84
f 169//84 168//84 170//84
f 171//85 169//85 172//85
f 172//85 169//85 170//85
f 171//32 172//32 173//32
f 171//32 173//32 174//32
f 174//86 173//86 175//86
f 174//86 175//86 176//86
f 176//34 175//34 177//34
f 176//34 177//34 178//34
f 178//35 177//35 179//35
f 178//35 179//35 180//35
f 180//87 179//87 181//87
f 180//87 181//87 182//87
f 182//37 181//37 183//37
f 182//37 183//37 184//37
f 184//88 183//88 185//88
f 184//88 185//88 186//88
f 186//89 185//89 187//89
f 186//89 187//89 188//89
f 188//90 187//90 189//90
f 188//90 189//90 190//90
f 190//91 189//91 191//91
f 190//91 191//91 192//91
f 192//92 191//92 193//92
f 192//92 193//92 194//92
f 194//93 193//93 195//93
f 194//93 195//93 196//93
f 196//54 195//54 197//54
f 196//54 197//54 198//54
f 198//94 197//94 199//94
f 198//94 199//94 200//94
f 200//95 199//95 201//95
f 200//95 201//95 202//95
f 202//96 201//96 203//96
f 202//96 203//96 204//96
f 204//97 203//97 205//97
f 204//97 205//97 206//97
f 206//59 205//59 207//59
f 206//59 207//59 208//59
f 14//98 208//98 15//98
f 15//98 208//98 207//98
f 209//99 210//99 211//99
f 212//100 213//100 214//100
f 214//100 213//100 215//100
f 214//101 215//101 216//101
f 216//102 215//102 217//102
f 216//103 217//103 211//103
f 211//104 217//104 218//104
f 211//99 218//99 209//99
f 209//105 218//105 219//105
f 209//105 219//105 220//105
f 220//106 219//106 221//106
f 220//106 221//106 222//106
f 222//107 221//107 223//107
f 222//107 223//107 224//107
f 224//108 223//108 225//108
f 224//108 225//108 226//108
f 226//109 225//109 227//109
f 226//109 227//109 228//109
f 228//110 227//110 229//110
f 228//110 229//110 230//110
f 230//21 229//21 231//21
f 230//21 231//21 232//21
f 232//111 231//111 233//111
f 232//111 233//111 234//111
f 234//112 233//112 235//112
f 234//112 235//112 236//112
f 236//113 235//113 237//113
f 236//113 237//113 238//113
f 238//114 237//114 239//114
f 238//114 239//114 240//114
f 240//115 239//115 241//115
f 240//115 241//115 242//115
f 242//116 241//116 243//116
f 242//116 243//116 244//116
f 244//117 243//117 245//117
f 244//117 245//117 246//117
f 246//118 245//118 247//118
f 246//118 247//118 248//118
f 248//119 247//119 249//119
f 248//119 249//119 250//119
f 250//120 249//120 251//120
f 250//120 251//120 252//120
f 252//121 251//121 253//121
f 252//121 253//121 254//121
f 254//122 253//122 255//122
f 254//122 255//122 256//122
f 256//123 255//123 257//123
f 256//123 257//123 258//123
f 258//124 257//124 259//124
f 258//124 259//124 260//124
f 260//30 259//30 261//30
f 260//30 261//30 262//30
f 262//125 261//125 263//125
f 262//125 263//125 264//125
f 264//126 263//126 265//126
f 264//126 265//126 266//126
f 266//127 265//127 267//127
f 266//127 267//127 268//127
f 268//128 267//128 269//128
f 268//128 269//128 270//128
f 270//129 269//129 271//129
f 270//129 271//129 272//129
f 272//130 271//130 273//130
f 272//130 273//130 274//130
f 274//131 273//131 275//131
f 274//131 275//131 276//131
f 276//132 275//132 277//132
f 276//132 277//132 278//132
f 278//133 277//133 279//133
f 278//133 279//133 280//133
f 280//134 279//134 281//134
f 280//134 281//134 282//134
f 282//135 281//135 283//135
f 282//135 283//135 284//135
f 284//136 283//136 285//136
f 284//136 285//136 286//136
f 286//137 285//137 287//137
f 286//137 287//137 288//137
f 288//138 287//138 289//138
f 288//138 289//138 290//138
f 290//89 289//89 291//89
f 290//89 291//89 292//89
f 292//139 291//139 293//139
f 292//139 293//139 294//139
f 294//140 293//140 295//140
f 294//140 295//140 296//140
f 296//141 295//141 297//141
f 296//141 297//141 298//141
f 298//142 297//142 299//142
f 298//142 299//142 300//142
f 300//143 299//143 301//143
f 300//143 301//143 302//143
f 302//144 301//144 303//144
f 302//144 303//144 304//144
f 304//145 303//145 305//145
f 304//145 305//145 306//145
f 306//146 305//146 307//146
f 306//146 307//146 308//146
f 308//147 307//147 309//147
f 308//147 309//147 310//147
f 310//148 309//148 311//148
f 310//148 311//148 312//148
f 312//149 311//149 313//149
f 312//149 313//149 314//149
f 314//150 313//150 315//150
f 314//150 315//150 316//150
f 316//151 315//151 317//151
f 316//151 317//151 318//151
f 318//152 317//152 319//152
f 318//152 319//152 320//152
f 320//97 319//97 321//97
f 320//97 321//97 322//97
f 322//153 321//153 323//153
f 322//153 323//153 324//153
f 324//154 323//154 325//154
f 324//154 325//154 326//154
f 326//155 325//155 327//155
f 326//155 327//155 328//155
f 328//156 327//156 329//156
f 328//156 329//156 330//156
f 330//157 329//157 331//157
f 330//157 331//157 332//157
f 332//158 331//158 215//158
f 332//158 215//158 213//158
f 73//159 25//159 72//159
f 72//159 25//159 35//159
f 72//159 35//159 70//159
f 70//159 35//159 38//159
f 316//159 318//159 73//159
f 213//159 212//159 13//159
f 318//159 320//159 73//159
f 73//159 320//159 322//159
f 73//159 322//159 25//159
f 141//159 101//159 140//159
f 140//159 101//159 103//159
f 140//159 103//159 138//159
f 14//159 169//159 208//159
f 208//159 169//159 171//159
f 208//159 171//159 206//159
f 79//159 308//159 77//159
f 77//159 308//159 310//159
f 77//159 310//159 75//159
f 75//159 310//159 312//159
f 75//159 312//159 73//159
f 73//159 312//159 314//159
f 73//159 314//159 316//159
f 198//159 200//159 171//159
f 213//159 13//159 332//159
f 332//159 13//159 34//159
f 332//159 34//159 330//159
f 330//159 34//159 328//159
f 328//159 34//159 33//159
f 328//159 33//159 326//159
f 326//159 33//159 31//159
f 326//159 31//159 324//159
f 324//159 31//159 29//159
f 324//159 29//159 322//159
f 322//159 29//159 27//159
f 322//159 27//159 25//159
f 38//159 40//159 70//159
f 70//159 40//159 42//159
f 70//159 42//159 44//159
f 141//159 270//159 101//159
f 101//159 270//159 272//159
f 101//159 272//159 274//159
f 44//159 46//159 70//159
f 70//159 46//159 48//159
f 70//159 48//159 50//159
f 85//159 300//159 83//159
f 83//159 300//159 302//159
f 83//159 302//159 81//159
f 81//159 302//159 304//159
f 81//159 304//159 79//159
f 79//159 304//159 306//159
f 79//159 306//159 308//159
f 274//159 276//159 101//159
f 101//159 276//159 278//159
f 101//159 278//159 99//159
f 99//159 278//159 280//159
f 99//159 280//159 97//159
f 198//159 171//159 196//159
f 200//159 202//159 171//159
f 171//159 202//159 204//159
f 171//159 204//159 206//159
f 14//159 16//159 230//159
f 230//159 16//159 18//159
f 230//159 18//159 228//159
f 228//159 18//159 20//159
f 50//159 52//159 70//159
f 70//159 52//159 54//159
f 70//159 54//159 56//159
f 56//159 58//159 70//159
f 70//159 58//159 60//159
f 70//159 60//159 62//159
f 62//159 64//159 70//159
f 70//159 64//159 66//159
f 70//159 66//159 68//159
f 103//159 106//159 138//159
f 138//159 106//159 108//159
f 138//159 108//159 110//159
f 116//159 118//159 138//159
f 138//159 118//159 120//159
f 138//159 120//159 122//159
f 141//159 143//159 270//159
f 270//159 143//159 145//159
f 270//159 145//159 268//159
f 268//159 145//159 147//159
f 14//159 230//159 169//159
f 169//159 230//159 232//159
f 169//159 232//159 234//159
f 234//159 236//159 169//159
f 169//159 236//159 238//159
f 169//159 238//159 167//159
f 167//159 238//159 240//159
f 167//159 240//159 165//159
f 174//159 176//159 186//159
f 91//159 292//159 89//159
f 89//159 292//159 294//159
f 89//159 294//159 87//159
f 87//159 294//159 296//159
f 87//159 296//159 85//159
f 85//159 296//159 298//159
f 85//159 298//159 300//159
f 280//159 282//159 97//159
f 97//159 282//159 284//159
f 97//159 284//159 95//159
f 95//159 284//159 286//159
f 95//159 286//159 93//159
f 93//159 286//159 288//159
f 93//159 288//159 91//159
f 91//159 288//159 290//159
f 91//159 290//159 292//159
f 110//159 112//159 138//159
f 138//159 112//159 114//159
f 138//159 114//159 116//159
f 122//159 124//159 138//159
f 138//159 124//159 126//159
f 138//159 126//159 136//159
f 136//159 126//159 128//159
f 128//159 130//159 136//159
f 136//159 130//159 132//159
f 136//159 132//159 134//159
f 159//159 252//159 157//159
f 157//159 252//159 254//159
f 157//159 254//159 155//159
f 155//159 254//159 256//159
f 155//159 256//159 153//159
f 240//159 242//159 165//159
f 165//159 242//159 244//159
f 165//159 244//159 163//159
f 163//159 244//159 246//159
f 163//159 246//159 161//159
f 161//159 246//159 248//159
f 161//159 248//159 159//159
f 159//159 248//159 250//159
f 159//159 250//159 252//159
f 174//159 186//159 171//159
f 171//159 186//159 188//159
f 171//159 188//159 190//159
f 190//159 192//159 171//159
f 171//159 192//159 194//159
f 171//159 194//159 196//159
f 256//159 258//159 153//159
f 153//159 258//159 260//159
f 153//159 260//159 151//159
f 151//159 260//159 262//159
f 151//159 262//159 149//159
f 149//159 262//159 264//159
f 149//159 264//159 147//159
f 147//159 264//159 266//159
f 147//159 266//159 268//159
f 176//159 178//159 180//159
f 210//159 209//159 2//159
f 2//159 209//159 220//159
f 2//159 220//159 3//159
f 3//159 220//159 222//159
f 3//159 222//159 22//159
f 22//159 222//159 224//159
f 22//159 224//159 20//159
f 20//159 224//159 226//159
f 20//159 226//159 228//159
f 180//159 182//159 176//159
f 176//159 182//159 184//159
f 176//159 184//159 186//159
f 211//159 1//159 6//159
f 211//159 6//159 216//159
f 216//159 6//159 7//159
f 216//159 7//159 214//159
f 214//159 7//159 9//159
f 214//159 9//159 11//159
f 212//70 214//70 13//70
f 13//70 214//70 11//70
f 211//53 210//53 1//53
f 1//53 210//53 2//53
f 333//159 189//159 187//159
f 127//159 125//159 334//159
f 334//159 125//159 123//159
f 334//159 123//159 121//159
f 172//159 170//159 168//159
f 333//159 187//159 335//159
f 335//159 187//159 185//159
f 335//159 185//159 183//159
f 336//159 131//159 334//159
f 334//159 131//159 129//159
f 334//159 129//159 127//159
f 148//159 146//159 139//159
f 139//159 146//159 144//159
f 139//159 144//159 142//159
f 148//159 139//159 150//159
f 150//159 139//159 137//159
f 150//159 137//159 152//159
f 152//159 137//159 135//159
f 152//159 135//159 154//159
f 168//159 166//159 172//159
f 172//159 166//159 164//159
f 172//159 164//159 173//159
f 173//159 164//159 162//159
f 173//159 162//159 175//159
f 175//159 162//159 160//159
f 337//159 338//159 154//159
f 154//159 338//159 339//159
f 154//159 339//159 156//159
f 156//159 339//159 340//159
f 156//159 340//159 158//159
f 158//159 340//159 341//159
f 341//159 342//159 158//159
f 158//159 342//159 343//159
f 158//159 343//159 344//159
f 160//159 158//159 175//159
f 175//159 158//159 344//159
f 175//159 344//159 177//159
f 177//159 344//159 345//159
f 177//159 345//159 179//159
f 179//159 345//159 335//159
f 179//159 335//159 181//159
f 181//159 335//159 183//159
f 337//159 154//159 346//159
f 346//159 154//159 135//159
f 346//159 135//159 336//159
f 336//159 135//159 133//159
f 336//159 133//159 131//159
f 36//159 30//159 37//159
f 37//159 30//159 32//159
f 37//159 32//159 39//159
f 197//159 195//159 347//159
f 24//159 26//159 36//159
f 36//159 26//159 28//159
f 36//159 28//159 30//159
f 49//159 348//159 51//159
f 51//159 348//159 53//159
f 195//159 193//159 347//159
f 347//159 193//159 191//159
f 347//159 191//159 189//159
f 49//159 47//159 348//159
f 348//159 47//159 45//159
f 348//159 45//159 349//159
f 32//159 12//159 39//159
f 39//159 12//159 10//159
f 39//159 10//159 41//159
f 41//159 10//159 43//159
f 21//159 207//159 23//159
f 23//159 207//159 205//159
f 23//159 205//159 4//159
f 4//159 205//159 203//159
f 4//159 203//159 5//159
f 350//159 5//159 351//159
f 351//159 5//159 203//159
f 351//159 203//159 352//159
f 352//159 203//159 201//159
f 352//159 201//159 347//159
f 347//159 201//159 199//159
f 347//159 199//159 197//159
f 21//159 19//159 207//159
f 207//159 19//159 17//159
f 207//159 17//159 15//159
f 10//159 353//159 354//159
f 350//159 355//159 5//159
f 5//159 355//159 356//159
f 5//159 356//159 8//159
f 8//159 356//159 357//159
f 8//159 357//159 10//159
f 10//159 357//159 358//159
f 10//159 358//159 353//159
f 354//159 359//159 10//159
f 10//159 359//159 349//159
f 10//159 349//159 43//159
f 43//159 349//159 45//159
f 63//159 61//159 360//159
f 104//159 102//159 100//159
f 94//159 105//159 96//159
f 96//159 105//159 104//159
f 96//159 104//159 98//159
f 98//159 104//159 100//159
f 61//159 59//159 360//159
f 360//159 59//159 57//159
f 360//159 57//159 361//159
f 361//159 57//159 55//159
f 361//159 55//159 53//159
f 121//159 119//159 362//159
f 362//159 119//159 117//159
f 362//159 117//159 363//159
f 363//159 117//159 115//159
f 80//159 71//159 82//159
f 82//159 71//159 69//159
f 82//159 69//159 84//159
f 84//159 69//159 67//159
f 84//159 67//159 86//159
f 80//159 78//159 71//159
f 71//159 78//159 76//159
f 71//159 76//159 74//159
f 115//159 113//159 363//159
f 363//159 113//159 111//159
f 363//159 111//159 364//159
f 364//159 111//159 109//159
f 364//159 109//159 94//159
f 94//159 109//159 107//159
f 94//159 107//159 105//159
f 63//159 360//159 65//159
f 65//159 360//159 365//159
f 65//159 365//159 67//159
f 67//159 365//159 86//159
f 86//159 365//159 366//159
f 86//159 366//159 367//159
f 367//159 368//159 86//159
f 86//159 368//159 369//159
f 86//159 369//159 88//159
f 88//159 369//159 370//159
f 88//159 370//159 90//159
f 90//159 370//159 371//159
f 90//159 371//159 92//159
f 92//159 371//159 372//159
f 92//159 372//159 94//159
f 94//159 372//159 373//159
f 94//159 373//159 364//159
f 374//160 293//160 375//160
f 375//160 293//160 291//160
f 375//160 291//160 376//160
f 291//160 289//160 376//160
f 376//160 289//160 287//160
f 376//160 287//160 377//160
f 377//160 287//160 285//160
f 377//160 285//160 378//160
f 379//160 301//160 380//160
f 380//160 301//160 299//160
f 380//160 299//160 381//160
f 381//160 299//160 297//160
f 381//160 297//160 374//160
f 374//160 297//160 295//160
f 374//160 295//160 293//160
f 382//160 313//160 383//160
f 383//160 313//160 311//160
f 383//160 311//160 384//160
f 311//160 309//160 384//160
f 384//160 309//160 307//160
f 384//160 307//160 385//160
f 385//160 307//160 305//160
f 385//160 305//160 379//160
f 379//160 305//160 303//160
f 379//160 303//160 301//160
f 386//160 319//160 387//160
f 387//160 319//160 317//160
f 387//160 317//160 382//160
f 382//160 317//160 315//160
f 382//160 315//160 313//160
f 388//160 243//160 389//160
f 389//160 243//160 241//160
f 389//160 241//160 390//160
f 391//160 249//160 392//160
f 392//160 249//160 247//160
f 392//160 247//160 388//160
f 388//160 247//160 245//160
f 388//160 245//160 243//160
f 393//160 257//160 394//160
f 394//160 257//160 255//160
f 394//160 255//160 395//160
f 395//160 255//160 253//160
f 395//160 253//160 391//160
f 391//160 253//160 251//160
f 391//160 251//160 249//160
f 396//160 325//160 397//160
f 397//160 325//160 323//160
f 397//160 323//160 386//160
f 386//160 323//160 321//160
f 386//160 321//160 319//160
f 398//160 263//160 399//160
f 399//160 263//160 261//160
f 399//160 261//160 393//160
f 393//160 261//160 259//160
f 393//160 259//160 257//160
f 285//160 283//160 378//160
f 378//160 283//160 281//160
f 378//160 281//160 400//160
f 400//160 281//160 279//160
f 400//160 279//160 401//160
f 401//160 279//160 277//160
f 401//160 277//160 402//160
f 402//160 277//160 275//160
f 402//160 275//160 403//160
f 403//160 275//160 273//160
f 403//160 273//160 404//160
f 405//160 331//160 406//160
f 406//160 331//160 329//160
f 406//160 329//160 396//160
f 396//160 329//160 327//160
f 396//160 327//160 325//160
f 407//160 219//160 408//160
f 408//160 219//160 218//160
f 408//160 218//160 409//160
f 409//160 218//160 217//160
f 409//160 217//160 405//160
f 405//160 217//160 215//160
f 405//160 215//160 331//160
f 273//160 271//160 404//160
f 404//160 271//160 269//160
f 404//160 269//160 410//160
f 410//160 269//160 267//160
f 410//160 267//160 398//160
f 398//160 267//160 265//160
f 398//160 265//160 263//160
f 411//160 225//160 412//160
f 412//160 225//160 223//160
f 412//160 223//160 407//160
f 407//160 223//160 221//160
f 407//160 221//160 219//160
f 413//160 231//160 414//160
f 414//160 231//160 229//160
f 414//160 229//160 411//160
f 411//160 229//160 227//160
f 411//160 227//160 225//160
f 241//160 239//160 390//160
f 390//160 239//160 237//160
f 390//160 237//160 415//160
f 415//160 237//160 235//160
f 415//160 235//160 413//160
f 413//160 235//160 233//160
f 413//160 233//160 231//160
f 415//161 333//161 390//161
f 390//161 333//161 335//161
f 390//162 335//162 389//162
f 389//162 335//162 345//162
f 389//163 345//163 388//163
f 388//163 345//163 344//163
f 388//164 344//164 392//164
f 392//164 344//164 343//164
f 392//165 343//165 391//165
f 391//165 343//165 342//165
f 391//166 342//166 395//166
f 395//166 342//166 341//166
f 395//167 341//167 394//167
f 394//167 341//167 340//167
f 394//168 340//168 393//168
f 393//168 340//168 339//168
f 393//169 339//169 399//169
f 399//169 339//169 338//169
f 399//170 338//170 398//170
f 398//170 338//170 337//170
f 398//171 337//171 410//171
f 410//171 337//171 346//171
f 410//172 346//172 404//172
f 404//172 346//172 336//172
f 404//173 336//173 403//173
f 403//173 336//173 334//173
f 403//174 334//174 402//174
f 402//174 334//174 121//174
f 402//175 121//175 401//175
f 401//175 121//175 362//175
f 401//176 362//176 400//176
f 400//176 362//176 363//176
f 400//177 363//177 378//177
f 378//177 363//177 364//177
f 378//178 364//178 377//178
f 377//178 364//178 373//178
f 377//179 373//179 376//179
f 376//179 373//179 372//179
f 376//180 372//180 375//180
f 375//180 372//180 371//180
f 375//181 371//181 374//181
f 374//181 371//181 370//181
f 374//182 370//182 381//182
f 381//182 370//182 369//182
f 381//183 369//183 380//183
f 380//183 369//183 368//183
f 380//184 368//184 379//184
f 379//184 368//184 367//184
f 379//185 367//185 385//185
f 385//185 367//185 366//185
f 385//186 366//186 384//186
f 384//186 366//186 365//186
f 384//187 365//187 383//187
f 383//187 365//187 360//187
f 383//188 360//188 382//188
f 360//188 361//188 382//188
f 382//189 361//189 53//189
f 382//190 53//190 387//190
f 387//191 53//191 348//191
f 387//192 348//192 386//192
f 386//192 348//192 349//192
f 386//193 349//193 397//193
f 397//193 349//193 359//193
f 397//194 359//194 396//194
f 396//194 359//194 354//194
f 396//195 354//195 406//195
f 406//195 354//195 353//195
f 406//196 353//196 405//196
f 405//196 353//196 358//196
f 405//197 358//197 409//197
f 409//197 358//197 357//197
f 409//198 357//198 408//198
f 408//198 357//198 356//198
f 408//199 356//199 407//199
f 407//199 356//199 355//199
f 407//200 355//200 412//200
f 412//200 355//200 350//200
f 412//201 350//201 411//201
f 411//201 350//201 351//201
f 411//202 351//202 414//202
f 414//202 351//202 352//202
f 414//203 352//203 413//203
f 413//203 352//203 347//203
f 413//204 347//204 415//204
f 415//205 347//205 189//205
f 415//206 189//206 333//206
# Vertices: 415, normals: 206, texture coordinates: 0, faces: 830

