# stlbn R3_REPTile-3 RBF cover
v 0 0 0.0025399998
v 0 0 0.056335002
v 0 0 0.099380001
v 0 0.0058499998 0.0025399998
v 0 0.0058499998 0.099380001
v 0.00034029409 0 0.0012699999
v 0.00034029409 0 0.10065
v 0.00034029409 0.0058499998 0.0012699999
v 0.00034029409 0.0058499998 0.10065
v 0.00049999729 0.0063499999 0.0025399998
v 0.00049999729 0.0063499999 0.010958876
v 0.00049999729 0.0063499999 0.012728389
v 0.00049999729 0.0063499999 0.024065927
v 0.00049999729 0.0063499999 0.049710002
v 0.00049999729 0.0063499999 0.062331792
v 0.00049999729 0.0063499999 0.070079349
v 0.00049999729 0.0063499999 0.093930699
v 0.00049999729 0.0063499999 0.099380001
v 0.00077330694 0.0063499999 0.0015200004
v 0.00077330694 0.0063499999 0.1004
v 0.0012699999 0 0.00034029782
v 0.0012699999 0 0.1015797
v 0.0012699999 0.0058499998 0.00034029782
v 0.0012699999 0.0058499998 0.1015797
v 0.0013098493 0.0063499999 0.010958876
v 0.0013098493 0.0063499999 0.012728389
v 0.0013098493 0.0063499999 0.024065927
v 0.0013098493 0.0063499999 0.049710002
v 0.0013098493 0.0063499999 0.062331792
v 0.0013098493 0.0063499999 0.070079349
v 0.0013098493 0.0063499999 0.093930699
v 0.0013098493 0.0063499999 0.10061015
v 0.0015200004 0.0063499999 0.00077330694
v 0.0015200004 0.0063499999 0.1011467
v 0.0021196976 0 0.014000002
v 0.0021196976 0 0.098670006
v 0.0021196976 0.0063499999 0.014000002
v 0.0021196976 0.0063499999 0.098670006
v 0.0022711307 0 0.01343485
v 0.0022711307 0 0.014565151
v 0.0022711307 0 0.098104849
v 0.0022711307 0 0.099235147
v 0.0022711307 0.0063499999 0.01343485
v 0.0022711307 0.0063499999 0.014565151
v 0.0022711307 0.0063499999 0.098104849
v 0.0022711307 0.0063499999 0.099235147
v 0.0022859983 0 0.021200001
v 0.0022859983 0 0.056335002
v 0.0022859983 0 0.091470003
v 0.0022859983 1.4636729e-18 0.021200001
v 0.0022859983 7.968886e-18 0.056335002
v 0.0022859983 1.4419889e-17 0.091470003
v 0.0025399998 0 0
v 0.0025399998 0 0.10192
v 0.0025399998 0.00025400001 0.021200001
v 0.0025399998 0.00025400001 0.091470003
v 0.0025399998 0.001 0.021200001
v 0.0025399998 0.001 0.03993047
v 0.0025399998 0.001 0.091470003
v 0.0025399998 0.0058499998 0
v 0.0025399998 0.0058499998 0.10192
v 0.0025399998 0.0063499999 0.00050000101
v 0.0025399998 0.0063499999 0.10142
v 0.0026683621 0 0.019773001
v 0.0026683621 0 0.092896998
v 0.0026848502 0 0.013021134
v 0.0026848502 0 0.014978871
v 0.0026848502 0 0.097691134
v 0.0026848502 0 0.099648871
v 0.0026848502 0.0063499999 0.013021134
v 0.0026848502 0.0063499999 0.014978871
v 0.0026848502 0.0063499999 0.097691134
v 0.0026848502 0.0063499999 0.099648871
v 0.0028883331 0.00025400001 0.0199
v 0.0028883331 0.00025400001 0.092769995
v 0.0028883331 0.001 0.0199
v 0.0028883331 0.001 0.092769995
v 0.0032499991 0 0.012869701
v 0.0032499991 0 0.0151303
v 0.0032499991 0 0.097539701
v 0.0032499991 0 0.099800304
v 0.0032499991 0.0063499999 0.012869701
v 0.0032499991 0.0063499999 0.0151303
v 0.0032499991 0.0063499999 0.097539701
v 0.0032499991 0.0063499999 0.099800304
v 0.0037129968 0 0.018728364
v 0.0037129968 0 0.093941636
v 0.003815148 0 0.013021134
v 0.003815148 0 0.014978871
v 0.003815148 0 0.097691134
v 0.003815148 0 0.099648871
v 0.003815148 0.0063499999 0.013021134
v 0.003815148 0.0063499999 0.014978871
v 0.003815148 0.0063499999 0.097691134
v 0.003815148 0.0063499999 0.099648871
v 0.0038399994 0.00025400001 0.018948335
v 0.0038399994 0.00025400001 0.093721665
v 0.0038399994 0.001 0.018948335
v 0.0038399994 0.001 0.093721665
v 0.0042288676 0 0.01343485
v 0.0042288676 0 0.014565151
v 0.0042288676 0 0.098104849
v 0.0042288676 0 0.099235147
v 0.0042288676 0.0063499999 0.01343485
v 0.0042288676 0.0063499999 0.014565151
v 0.0042288676 0.0063499999 0.098104849
v 0.0042288676 0.0063499999 0.099235147
v 0.0043802969 0 0.014000002
v 0.0043802969 0 0.098670006
v 0.0043802969 0.0063499999 0.014000002
v 0.0043802969 0.0063499999 0.098670006
v 0.0051399991 0 0.018346
v 0.0051399991 0 0.094324
v 0.0051399991 8.6736174e-19 0.018346
v 0.0051399991 8.1857264e-18 0.094324
v 0.0051399991 0.00025400001 0.018600002
v 0.0051399991 0.00025400001 0.094070002
v 0.0051399991 0.001 0.018600002
v 0.0051399991 0.001 0.094070002
v 0.0052499995 0 0.018346
v 0.0052499995 0 0.094324
v 0.0052499995 1.1384123e-18 0.018346
v 0.0052499995 8.6736174e-18 0.094324
v 0.0052499995 0.00025400001 0.018600002
v 0.0052499995 0.00025400001 0.094070002
v 0.0052499995 0.001 0.018600002
v 0.0052499995 0.001 0.094070002
v 0.0064230002 0 0.018031698
v 0.0064230002 0 0.094638303
v 0.0065499991 0.00025400001 0.018251665
v 0.0065499991 0.00025400001 0.094418332
v 0.0065499991 0.001 0.018251665
v 0.0065499991 0.001 0.094418332
v 0.0072816946 0 0.017173
v 0.0072816946 0 0.095496997
v 0.0075016655 0.00025400001 0.017300002
v 0.0075016655 0.00025400001 0.095370002
v 0.0075016655 0.001 0.017300002
v 0.0075016655 0.001 0.095370002
v 0.0075959973 0 0.0051399991
v 0.0075959973 0 0.015999999
v 0.0075959973 0 0.096670002
v 0.0075959973 0 0.096780002
v 0.0075959973 7.0473141e-19 0.015999999
v 0.0075959973 8.1315163e-19 0.096780002
v 0.0075959973 1.1926224e-18 0.096670002
v 0.0075959973 3.0357661e-18 0.0051399991
v 0.0075959973 6.9388939e-18 0.0051399991
v 0.0078499988 0.00025400001 0.0051399991
v 0.0078499988 0.00025400001 0.015999999
v 0.0078499988 0.00025400001 0.096670002
v 0.0078499988 0.00025400001 0.096780002
v 0.0078499988 0.001 0.0051399991
v 0.0078499988 0.001 0.015999999
v 0.0078499988 0.001 0.096670002
v 0.0078499988 0.001 0.096780002
v 0.0079783611 0 0.0037130006
v 0.0079783611 0 0.098206997
v 0.0079783611 6.9388939e-18 0.0037130006
v 0.008198332 0.00025400001 0.0038399994
v 0.008198332 0.00025400001 0.098080002
v 0.008198332 0.001 0.0038399994
v 0.008198332 0.001 0.098080002
v 0.0090229996 0 0.0026683658
v 0.0090229996 0 0.099251635
v 0.0090229996 6.9388939e-18 0.0026683658
v 0.0091499984 0.00025400001 0.0028883331
v 0.0091499984 0.00025400001 0.099031672
v 0.0091499984 0.001 0.0028883331
v 0.0091499984 0.001 0.099031672
v 0.010449998 0 0.002286002
v 0.010449998 0 0.099633999
v 0.010449998 1.0842022e-19 0.099633999
v 0.010449998 1.6263033e-18 0.002286002
v 0.010449998 6.9388939e-18 0.002286002
v 0.010449998 0.00025400001 0.0025399998
v 0.010449998 0.00025400001 0.099380001
v 0.010449998 0.001 0.0025399998
v 0.010449998 0.001 0.099380001
v 0.010606214 0.0063499999 0.00050000101
v 0.010606214 0.0063499999 0.010958876
v 0.010606214 0.0063499999 0.012728389
v 0.010606214 0.0063499999 0.024065927
v 0.010606214 0.0063499999 0.049710002
v 0.010606214 0.0063499999 0.062331792
v 0.010606214 0.0063499999 0.070079349
v 0.010606214 0.0063499999 0.093930699
v 0.010606214 0.0063499999 0.10061015
v 0.010606214 0.0063499999 0.10142
v 0.016832128 0.0055880002 0.011121694
v 0.016832128 0.0055880002 0.023821695
v 0.016832128 0.0063499999 0.011121694
v 0.016832128 0.0063499999 0.012728389
v 0.016832128 0.0063499999 0.023821695
v 0.017971873 0.0055880002 0.01242426
v 0.017971873 0.0055880002 0.016657591
v 0.017971873 0.0055880002 0.017960157
v 0.017971873 0.0055880002 0.023821695
v 0.017971873 0.0063499999 0.01242426
v 0.017971873 0.0063499999 0.016657591
v 0.017971873 0.0063499999 0.017960157
v 0.017971873 0.0063499999 0.023821695
v 0.018897913 0.0055880002 0.017960157
v 0.018897913 0.0063499999 0.017960157
v 0.019373655 0.0055880002 0.011121694
v 0.019373655 0.0063499999 0.011121694
v 0.020297153 0.0055880002 0.016675401
v 0.020297153 0.0063499999 0.016675401
v 0.020307329 0.0055880002 0.017960157
v 0.020307329 0.0063499999 0.017960157
v 0.020353122 0.0055880002 0.01242426
v 0.020353122 0.0063499999 0.01242426
v 0.020615991 0.0055880002 0.012425739
v 0.020615991 0.0063499999 0.012425739
v 0.020816678 0.0055880002 0.011148885
v 0.020816678 0.0063499999 0.011148885
v 0.021047717 0.0055880002 0.01793474
v 0.021047717 0.0063499999 0.01793474
v 0.022046024 0.0055880002 0.016515572
v 0.022046024 0.0063499999 0.016515572
v 0.022250999 0.0055880002 0.011294693
v 0.022250999 0.0063499999 0.011294693
v 0.022330632 0.0055880002 0.012643177
v 0.022330632 0.0063499999 0.012643177
v 0.022956721 0.0055880002 0.016065404
v 0.022956721 0.0063499999 0.016065404
v 0.022986123 0.0055880002 0.017498929
v 0.022986123 0.0063499999 0.017498929
v 0.023134235 0.0055880002 0.0131719
v 0.023134235 0.0063499999 0.0131719
v 0.023423022 0.0055880002 0.013568342
v 0.023423022 0.0063499999 0.013568342
v 0.023528136 0.0055880002 0.015272573
v 0.023528136 0.0063499999 0.015272573
v 0.023537597 0.0055880002 0.01717357
v 0.023537597 0.0063499999 0.01717357
v 0.023563739 0.0055880002 0.023821695
v 0.023563739 0.0063499999 0.023821695
v 0.02367059 0.0055880002 0.014515486
v 0.02367059 0.0063499999 0.014515486
v 0.02373115 0.0055880002 0.012035053
v 0.02373115 0.0063499999 0.012035053
v 0.024453057 0.0055880002 0.016098652
v 0.024453057 0.0063499999 0.016098652
v 0.024592945 0.0055880002 0.013257969
v 0.024592945 0.0063499999 0.013257969
v 0.024810333 0.0055880002 0.01451803
v 0.024810333 0.0063499999 0.01451803
v 0.024973154 0.0055880002 0.023821695
v 0.024973154 0.0063499999 0.023821695
v 0.026275719 0.0063499999 0.00050000101
v 0.026275719 0.0063499999 0.010958876
v 0.026275719 0.0063499999 0.012728389
v 0.026275719 0.0063499999 0.024065927
v 0.026275719 0.0063499999 0.049710002
v 0.026275719 0.0063499999 0.062331792
v 0.026275719 0.0063499999 0.070079349
v 0.026275719 0.0063499999 0.093930699
v 0.026275719 0.0063499999 0.10061015
v 0.026275719 0.0063499999 0.10142
v 0.027578281 0.0055880002 0.011121694
v 0.027578281 0.0055880002 0.023821695
v 0.027578281 0.0063499999 0.011121694
v 0.027578281 0.0063499999 0.012728389
v 0.027578281 0.0063499999 0.023821695
v 0.028718026 0.0055880002 0.01242426
v 0.028718026 0.0055880002 0.016331952
v 0.028718026 0.0055880002 0.017634515
v 0.028718026 0.0055880002 0.02251913
v 0.028718026 0.0063499999 0.01242426
v 0.028718026 0.0063499999 0.012728389
v 0.028718026 0.0063499999 0.016331952
v 0.028718026 0.0063499999 0.017634515
v 0.028718026 0.0063499999 0.02251913
v 0.034742385 0.0055880002 0.011121694
v 0.034742385 0.0055880002 0.01242426
v 0.034742385 0.0055880002 0.016331952
v 0.034742385 0.0055880002 0.017634515
v 0.034742385 0.0055880002 0.02251913
v 0.034742385 0.0055880002 0.023821695
v 0.034742385 0.0063499999 0.011121694
v 0.034742385 0.0063499999 0.01242426
v 0.034742385 0.0063499999 0.016331952
v 0.034742385 0.0063499999 0.017634515
v 0.034742385 0.0063499999 0.02251913
v 0.034742385 0.0063499999 0.023821695
v 0.03637059 0.0055880002 0.077621698
v 0.03637059 0.0055880002 0.09032169
v 0.03637059 0.0063499999 0.077621698
v 0.03637059 0.0063499999 0.09032169
v 0.036696233 0.0063499999 0.00050000101
v 0.036696233 0.0063499999 0.010958876
v 0.036696233 0.0063499999 0.012728389
v 0.036696233 0.0063499999 0.024065927
v 0.036696233 0.0063499999 0.049710002
v 0.036696233 0.0063499999 0.062331792
v 0.036696233 0.0063499999 0.070079349
v 0.036696233 0.0063499999 0.077621698
v 0.036696233 0.0063499999 0.09032169
v 0.036696233 0.0063499999 0.093930699
v 0.036696233 0.0063499999 0.10061015
v 0.036696233 0.0063499999 0.10142
v 0.037021872 0.0055880002 0.011121694
v 0.037021872 0.0055880002 0.023821695
v 0.037021872 0.0063499999 0.011121694
v 0.037021872 0.0063499999 0.012728389
v 0.037021872 0.0063499999 0.023821695
v 0.037077434 0.0063499999 0.00050000101
v 0.037077434 0.0063499999 0.010958876
v 0.037077434 0.0063499999 0.011121694
v 0.037077434 0.0063499999 0.023821695
v 0.037077434 0.0063499999 0.024065927
v 0.037077434 0.0063499999 0.049710002
v 0.037077434 0.0063499999 0.062331792
v 0.037077434 0.0063499999 0.070079349
v 0.037077434 0.0063499999 0.077621698
v 0.037077434 0.0063499999 0.09032169
v 0.037077434 0.0063499999 0.093930699
v 0.037077434 0.0063499999 0.10061015
v 0.037077434 0.0063499999 0.10142
v 0.037133001 0.00254 0.049710002
v 0.037133001 0.0063499999 0.049710002
v 0.037338208 0.0063499999 0.00050000101
v 0.037338208 0.0063499999 0.010958876
v 0.037338208 0.0063499999 0.011121694
v 0.037338208 0.0063499999 0.023821695
v 0.037338208 0.0063499999 0.024065927
v 0.037338208 0.0063499999 0.062331792
v 0.037338208 0.0063499999 0.070079349
v 0.037338208 0.0063499999 0.077621698
v 0.037338208 0.0063499999 0.09032169
v 0.037338208 0.0063499999 0.093930699
v 0.037338208 0.0063499999 0.10061015
v 0.037338208 0.0063499999 0.10142
v 0.037510335 0.0055880002 0.078924261
v 0.037510335 0.0055880002 0.083157592
v 0.037510335 0.0055880002 0.084460154
v 0.037510335 0.0055880002 0.09032169
v 0.037510335 0.0063499999 0.078924261
v 0.037510335 0.0063499999 0.083157592
v 0.037510335 0.0063499999 0.084460154
v 0.037510335 0.0063499999 0.09032169
v 0.03754342 0.001 0.038484681
v 0.03754342 0.001 0.060935318
v 0.03754342 0.0063499999 0.038484681
v 0.03754342 0.0063499999 0.060935318
v 0.037703015 0.001 0.037889048
v 0.037703015 0.001 0.039080311
v 0.037703015 0.001 0.060339689
v 0.037703015 0.001 0.061530951
v 0.037703015 0.0063499999 0.037889048
v 0.037703015 0.0063499999 0.039080311
v 0.037703015 0.0063499999 0.060339689
v 0.037703015 0.0063499999 0.061530951
v 0.037760798 0.00254 0.045746241
v 0.037760798 0.00254 0.053673763
v 0.037760798 0.0063499999 0.045746241
v 0.037760798 0.0063499999 0.053673763
v 0.038139049 0.001 0.037453018
v 0.038139049 0.001 0.039516341
v 0.038139049 0.001 0.059903659
v 0.038139049 0.001 0.061966982
v 0.038139049 0.0063499999 0.037453018
v 0.038139049 0.0063499999 0.039516341
v 0.038139049 0.0063499999 0.059903659
v 0.038139049 0.0063499999 0.061966982
v 0.038161617 0.0055880002 0.01242426
v 0.038161617 0.0055880002 0.016657591
v 0.038161617 0.0055880002 0.017960157
v 0.038161617 0.0055880002 0.023821695
v 0.038161617 0.0063499999 0.01242426
v 0.038161617 0.0063499999 0.016657591
v 0.038161617 0.0063499999 0.017960157
v 0.038161617 0.0063499999 0.023821695
v 0.038436376 0.0055880002 0.084460154
v 0.038436376 0.0063499999 0.084460154
v 0.038734678 0.001 0.037293419
v 0.038734678 0.001 0.03967594
v 0.038734678 0.001 0.05974406
v 0.038734678 0.001 0.062126581
v 0.038734678 0.0063499999 0.037293419
v 0.038734678 0.0063499999 0.03967594
v 0.038734678 0.0063499999 0.05974406
v 0.038734678 0.0063499999 0.062126581
v 0.038912117 0.0055880002 0.077621698
v 0.038912117 0.0063499999 0.077621698
v 0.03906985 0.0055880002 0.017960157
v 0.03906985 0.0063499999 0.017960157
v 0.039330307 0.001 0.037453018
v 0.039330307 0.001 0.039516341
v 0.039330307 0.001 0.059903659
v 0.039330307 0.001 0.061966982
v 0.039330307 0.0063499999 0.037453018
v 0.039330307 0.0063499999 0.039516341
v 0.039330307 0.0063499999 0.059903659
v 0.039330307 0.0063499999 0.061966982
v 0.039512515 0.0055880002 0.011121694
v 0.039512515 0.0063499999 0.011121694
v 0.039582737 0.00254 0.04217048
v 0.039582737 0.00254 0.057249524
v 0.039582737 0.0063499999 0.04217048
v 0.039582737 0.0063499999 0.057249524
v 0.039766341 0.001 0.037889048
v 0.039766341 0.001 0.039080311
v 0.039766341 0.001 0.060339689
v 0.039766341 0.001 0.061530951
v 0.039766341 0.0063499999 0.037889048
v 0.039766341 0.0063499999 0.039080311
v 0.039766341 0.0063499999 0.060339689
v 0.039766341 0.0063499999 0.061530951
v 0.039835613 0.0055880002 0.083175406
v 0.039835613 0.0063499999 0.083175406
v 0.039845791 0.0055880002 0.084460154
v 0.039845791 0.0063499999 0.084460154
v 0.039891586 0.0055880002 0.078924261
v 0.039891586 0.0063499999 0.078924261
v 0.03992594 0.001 0.038484681
v 0.03992594 0.001 0.060935318
v 0.03992594 0.0063499999 0.038484681
v 0.03992594 0.0063499999 0.060935318
v 0.040154453 0.0055880002 0.078925744
v 0.040154453 0.0063499999 0.078925744
v 0.040180467 0.001 0.0025399998
v 0.040180467 0.001 0.03993047
v 0.040180467 0.001 0.099380001
v 0.040222712 0.00254 0.050612293
v 0.040355138 0.0055880002 0.077648886
v 0.040355138 0.0063499999 0.077648886
v 0.040385135 0.0055880002 0.016685579
v 0.040385135 0.0063499999 0.016685579
v 0.040475629 0.001 0.050588857
v 0.040475629 0.0022859999 0.050588857
v 0.040484354 0.0055880002 0.01242426
v 0.040484354 0.0063499999 0.01242426
v 0.040554307 0.00254 0.04703385
v 0.040586181 0.0055880002 0.084434733
v 0.040586181 0.0063499999 0.084434733
v 0.040692125 0.0055880002 0.017926924
v 0.040692125 0.0063499999 0.017926924
v 0.040798608 0.001 0.04710336
v 0.040798608 0.0022859999 0.04710336
v 0.040964171 0.0055880002 0.011151463
v 0.040964171 0.0063499999 0.011151463
v 0.041206196 0.00254 0.054068875
v 0.041433569 0.001 0.053955659
v 0.041433569 0.0022859999 0.053955659
v 0.041584484 0.0055880002 0.083015576
v 0.041584484 0.0063499999 0.083015576
v 0.041789461 0.0055880002 0.077794693
v 0.041789461 0.0063499999 0.077794693
v 0.041869096 0.0055880002 0.079143181
v 0.041869096 0.0063499999 0.079143181
v 0.042088471 0.0055880002 0.016534932
v 0.042088471 0.0063499999 0.016534932
v 0.04215619 0.00254 0.043816835
v 0.042233046 0.0055880002 0.012592793
v 0.042233046 0.0063499999 0.012592793
v 0.042303361 0.0055880002 0.017751545
v 0.042303361 0.0063499999 0.017751545
v 0.042358883 0.001 0.043969907
v 0.042358883 0.0022859999 0.043969907
v 0.042405125 0.0055880002 0.0113125
v 0.042405125 0.0063499999 0.0113125
v 0.042420477 0.00254 0.03933274
v 0.042420477 0.00254 0.060087264
v 0.042420477 0.0063499999 0.03933274
v 0.042420477 0.0063499999 0.060087264
v 0.042495184 0.0055880002 0.082565404
v 0.042495184 0.0063499999 0.082565404
v 0.042524584 0.0055880002 0.083998926
v 0.042524584 0.0063499999 0.083998926
v 0.042672697 0.0055880002 0.079671904
v 0.042672697 0.0063499999 0.079671904
v 0.042749967 0.0055880002 0.01281694
v 0.042749967 0.0063499999 0.01281694
v 0.042961482 0.0055880002 0.080068342
v 0.042961482 0.0063499999 0.080068342
v 0.043025564 0.0055880002 0.016056724
v 0.043025564 0.0063499999 0.016056724
v 0.043066598 0.0055880002 0.081772573
v 0.043066598 0.0063499999 0.081772573
v 0.043076057 0.0055880002 0.083673567
v 0.043076057 0.0063499999 0.083673567
v 0.043102201 0.0055880002 0.09032169
v 0.043102201 0.0063499999 0.09032169
v 0.04320905 0.0055880002 0.081015483
v 0.04320905 0.0063499999 0.081015483
v 0.043269612 0.0055880002 0.078535058
v 0.043269612 0.0063499999 0.078535058
v 0.043371931 0.00254 0.056936771
v 0.043408364 0.0055880002 0.01349292
v 0.043408364 0.0063499999 0.01349292
v 0.043543048 0.001 0.056749061
v 0.043543048 0.0022859999 0.056749061
v 0.043584201 0.0055880002 0.015219696
v 0.043584201 0.0063499999 0.015219696
v 0.043697514 0.0055880002 0.014533293
v 0.043697514 0.0063499999 0.014533293
v 0.043737452 0.0055880002 0.017064255
v 0.043737452 0.0063499999 0.017064255
v 0.043831471 0.0055880002 0.012073789
v 0.043831471 0.0063499999 0.012073789
v 0.043991517 0.0055880002 0.082598656
v 0.043991517 0.0063499999 0.082598656
v 0.044131406 0.0055880002 0.079757974
v 0.044131406 0.0063499999 0.079757974
v 0.044348795 0.0055880002 0.081018031
v 0.044348795 0.0063499999 0.081018031
v 0.044511616 0.0055880002 0.09032169
v 0.044511616 0.0063499999 0.09032169
v 0.044512324 0.0055880002 0.016084664
v 0.044512324 0.0063499999 0.016084664
v 0.044640094 0.0055880002 0.01328766
v 0.044640094 0.0063499999 0.01328766
v 0.04481202 0.00254 0.041395728
v 0.044837255 0.0055880002 0.014528204
v 0.044837255 0.0063499999 0.014528204
v 0.044945732 0.001 0.041611683
v 0.044945732 0.0022859999 0.041611683
v 0.045407128 0.0063499999 0.00050000101
v 0.045407128 0.0063499999 0.010958876
v 0.045407128 0.0063499999 0.012728389
v 0.045407128 0.0063499999 0.024065927
v 0.045407128 0.0063499999 0.062331792
v 0.045407128 0.0063499999 0.070079349
v 0.045407128 0.0063499999 0.093930699
v 0.045407128 0.0063499999 0.10061015
v 0.045407128 0.0063499999 0.10142
v 0.045977 0.0055880002 0.011121694
v 0.045977 0.0055880002 0.01242426
v 0.045977 0.0063499999 0.011121694
v 0.045977 0.0063499999 0.01242426
v 0.045996238 0.00254 0.037510797
v 0.045996238 0.00254 0.061909202
v 0.045996238 0.0063499999 0.037510797
v 0.045996238 0.0063499999 0.061909202
v 0.046427418 0.00254 0.058828644
v 0.046519171 0.001 0.058591798
v 0.046519171 0.0022859999 0.058591798
v 0.047116745 0.0055880002 0.077621698
v 0.047116745 0.0055880002 0.09032169
v 0.047116745 0.0063499999 0.077621698
v 0.047116745 0.0063499999 0.09032169
v 0.048163112 0.00254 0.040097505
v 0.048209783 0.001 0.040347181
v 0.048209783 0.0022859999 0.040347181
v 0.048256487 0.0055880002 0.078924261
v 0.048256487 0.0055880002 0.082994774
v 0.048256487 0.0055880002 0.084297337
v 0.048256487 0.0055880002 0.089019135
v 0.048256487 0.0063499999 0.078924261
v 0.048256487 0.0063499999 0.082994774
v 0.048256487 0.0063499999 0.084297337
v 0.048256487 0.0063499999 0.089019135
v 0.04874495 0.0055880002 0.01242426
v 0.04874495 0.0055880002 0.023821695
v 0.04874495 0.0063499999 0.01242426
v 0.04874495 0.0063499999 0.012728389
v 0.04874495 0.0063499999 0.023821695
v 0.049012076 0.0055880002 0.084297337
v 0.049012076 0.0063499999 0.084297337
v 0.049022254 0.0055880002 0.082994774
v 0.049022254 0.0063499999 0.082994774
v 0.049594667 0.0055880002 0.077621698
v 0.049594667 0.0063499999 0.077621698
v 0.049803283 0.0055880002 0.078924261
v 0.049803283 0.0063499999 0.078924261
v 0.049879603 0.0055880002 0.089019135
v 0.049879603 0.0063499999 0.089019135
v 0.049884692 0.0055880002 0.01242426
v 0.049884692 0.0055880002 0.023821695
v 0.049884692 0.0063499999 0.01242426
v 0.049884692 0.0063499999 0.012728389
v 0.049884692 0.0063499999 0.023821695
v 0.049959999 0 0
v 0.049959999 0 0.002286002
v 0.049959999 0 0.099633999
v 0.049959999 0 0.10192
v 0.049959999 5.4210109e-20 0.002286002
v 0.049959999 1.0842022e-19 0.099633999
v 0.049959999 0.001 0.059234999
v 0.049959999 0.0022859999 0.059234999
v 0.049959999 0.00254 0.036883
v 0.049959999 0.00254 0.059489001
v 0.049959999 0.00254 0.062537
v 0.049959999 0.0063499999 0.036883
v 0.049959999 0.0063499999 0.062537
v 0.05020399 0.0055880002 0.084320605
v 0.05020399 0.0063499999 0.084320605
v 0.050551239 0.0055880002 0.09032169
v 0.050551239 0.0063499999 0.09032169
v 0.050797451 0.0055880002 0.082831368
v 0.050797451 0.0063499999 0.082831368
v 0.051270485 0.0055880002 0.079124197
v 0.051270485 0.0063499999 0.079124197
v 0.051277403 0.0063499999 0.062469169
v 0.051355001 0.0055880002 0.09026736
v 0.051355001 0.0063499999 0.09026736
v 0.051373906 0.0055880002 0.07780537
v 0.051373906 0.0063499999 0.07780537
v 0.051388238 0.0055880002 0.084447436
v 0.051388238 0.0063499999 0.084447436
v 0.051638406 0.0055880002 0.088863611
v 0.051638406 0.0063499999 0.088863611
v 0.051710214 0.001 0.040347181
v 0.051710214 0.0022859999 0.040347181
v 0.051713448 0.0055880002 0.079330549
v 0.051713448 0.0063499999 0.079330549
v 0.051748537 0.0055880002 0.082355931
v 0.051748537 0.0063499999 0.082355931
v 0.051756885 0.00254 0.040097505
v 0.052161634 0.0055880002 0.083470508
v 0.052161634 0.0063499999 0.083470508
v 0.052270539 0.0055880002 0.079901136
v 0.052270539 0.0063499999 0.079901136
v 0.05235346 0.0055880002 0.081520468
v 0.05235346 0.0063499999 0.081520468
v 0.052447282 0.0055880002 0.084887773
v 0.052447282 0.0063499999 0.084887773
v 0.052489821 0.0055880002 0.080791607
v 0.052489821 0.0063499999 0.080791607
v 0.052652642 0.0055880002 0.011121694
v 0.052652642 0.0055880002 0.01242426
v 0.052652642 0.0063499999 0.011121694
v 0.052652642 0.0063499999 0.01242426
v 0.05268167 0.0055880002 0.078504801
v 0.05268167 0.0063499999 0.078504801
v 0.052731648 0.0055880002 0.088300146
v 0.052731648 0.0063499999 0.088300146
v 0.053027969 0.0055880002 0.089656621
v 0.053027969 0.0063499999 0.089656621
v 0.053141102 0.0063499999 0.00050000101
v 0.053141102 0.0063499999 0.010958876
v 0.053141102 0.0063499999 0.012728389
v 0.053141102 0.0063499999 0.024065927
v 0.053141102 0.0063499999 0.062331792
v 0.053141102 0.0063499999 0.070079349
v 0.053141102 0.0063499999 0.093930699
v 0.053141102 0.0063499999 0.10061015
v 0.053141102 0.0063499999 0.10142
v 0.053156797 0.0063499999 0.062132254
v 0.053196136 0.0055880002 0.085675657
v 0.053196136 0.0063499999 0.085675657
v 0.053261075 0.0055880002 0.082320467
v 0.053261075 0.0063499999 0.082320467
v 0.053355761 0.0055880002 0.087374307
v 0.053355761 0.0063499999 0.087374307
v 0.053400826 0.001 0.058591798
v 0.053400826 0.0022859999 0.058591798
v 0.053458769 0.0055880002 0.079720177
v 0.053458769 0.0063499999 0.079720177
v 0.053466745 0.0055880002 0.086716749
v 0.053466745 0.0063499999 0.086716749
v 0.05349258 0.00254 0.058828644
v 0.053598974 0.0055880002 0.084284395
v 0.053598974 0.0063499999 0.084284395
v 0.053629562 0.0055880002 0.011615247
v 0.053629562 0.0055880002 0.080768712
v 0.053629562 0.0063499999 0.011615247
v 0.053629562 0.0063499999 0.080768712
v 0.053642597 0.0055880002 0.011762902
v 0.053642597 0.0063499999 0.011762902
v 0.053765588 0.0055880002 0.011130065
v 0.053765588 0.0063499999 0.011130065
v 0.053803355 0.0055880002 0.012147095
v 0.053803355 0.0063499999 0.012147095
v 0.053873796 0.0063499999 0.00050000101
v 0.053873796 0.0063499999 0.010958876
v 0.053873796 0.0063499999 0.012728389
v 0.053873796 0.0063499999 0.024065927
v 0.053873796 0.0063499999 0.062331792
v 0.053873796 0.0063499999 0.070079349
v 0.053873796 0.0063499999 0.093930699
v 0.053873796 0.0063499999 0.10061015
v 0.053873796 0.0063499999 0.10142
v 0.053875033 0.0063499999 0.061924927
v 0.05392376 0.00254 0.037510797
v 0.05392376 0.00254 0.061909202
v 0.05392376 0.0063499999 0.037510797
v 0.05392376 0.0063499999 0.061909202
v 0.054101598 0.0055880002 0.010796789
v 0.054101598 0.0063499999 0.010796789
v 0.054118026 0.0055880002 0.014540926
v 0.054118026 0.0055880002 0.023821695
v 0.054118026 0.0063499999 0.014540926
v 0.054118026 0.0063499999 0.023821695
v 0.054138854 0.0055880002 0.012446053
v 0.054138854 0.0063499999 0.012446053
v 0.054199606 0.0055880002 0.088382214
v 0.054199606 0.0063499999 0.088382214
v 0.054403283 0.0055880002 0.085520081
v 0.054403283 0.0063499999 0.085520081
v 0.054606486 0.0055880002 0.086716749
v 0.054606486 0.0063499999 0.086716749
v 0.05468281 0.0055880002 0.010633234
v 0.05468281 0.0055880002 0.012587078
v 0.05468281 0.0063499999 0.010633234
v 0.05468281 0.0063499999 0.012587078
v 0.054974265 0.001 0.041611683
v 0.054974265 0.0022859999 0.041611683
v 0.055107977 0.00254 0.041395728
v 0.055236723 0.0055880002 0.010775503
v 0.055236723 0.0063499999 0.010775503
v 0.055257767 0.0055880002 0.014540926
v 0.055257767 0.0055880002 0.023821695
v 0.055257767 0.0063499999 0.014540926
v 0.055257767 0.0063499999 0.023821695
v 0.0552602 0.0055880002 0.012430698
v 0.0552602 0.0063499999 0.012430698
v 0.055502001 0.0063499999 0.00050000101
v 0.055502001 0.0063499999 0.010958876
v 0.055502001 0.0063499999 0.012728389
v 0.055502001 0.0063499999 0.024065927
v 0.055502001 0.0063499999 0.062331792
v 0.055502001 0.0063499999 0.070079349
v 0.055502001 0.0063499999 0.093930699
v 0.055502001 0.0063499999 0.10061015
v 0.055502001 0.0063499999 0.10142
v 0.055572215 0.0055880002 0.0110729
v 0.055572215 0.0063499999 0.0110729
v 0.055607617 0.0055880002 0.012095369
v 0.055607617 0.0063499999 0.012095369
v 0.055732705 0.0055880002 0.011459544
v 0.055732705 0.0063499999 0.011459544
v 0.055746231 0.0055880002 0.011615247
v 0.055746231 0.0063499999 0.011615247
v 0.056376949 0.001 0.056749061
v 0.056376949 0.0022859999 0.056749061
v 0.056478925 0.0063499999 0.00050000101
v 0.056478925 0.0063499999 0.010958876
v 0.056478925 0.0063499999 0.012728389
v 0.056478925 0.0063499999 0.024065927
v 0.056478925 0.0063499999 0.062331792
v 0.056478925 0.0063499999 0.070079349
v 0.056478925 0.0063499999 0.093930699
v 0.056478925 0.0063499999 0.10061015
v 0.056478925 0.0063499999 0.10142
v 0.056548066 0.00254 0.056936771
v 0.057211615 0.0055880002 0.077621698
v 0.057211615 0.0055880002 0.09032169
v 0.057211615 0.0063499999 0.077621698
v 0.057211615 0.0063499999 0.09032169
v 0.05749952 0.00254 0.03933274
v 0.05749952 0.00254 0.060087264
v 0.05749952 0.0063499999 0.03933274
v 0.05749952 0.0063499999 0.060087264
v 0.057561114 0.001 0.043969907
v 0.057561114 0.0022859999 0.043969907
v 0.057763807 0.00254 0.043816835
v 0.057862896 0.0055880002 0.010796055
v 0.057862896 0.0055880002 0.023821695
v 0.057862896 0.0063499999 0.010796055
v 0.057862896 0.0063499999 0.010958876
v 0.057862896 0.0063499999 0.012728389
v 0.057862896 0.0063499999 0.023821695
v 0.05835136 0.0055880002 0.078924261
v 0.05835136 0.0055880002 0.082831949
v 0.05835136 0.0055880002 0.084134519
v 0.05835136 0.0055880002 0.09032169
v 0.05835136 0.0063499999 0.078924261
v 0.05835136 0.0063499999 0.082831949
v 0.05835136 0.0063499999 0.084134519
v 0.05835136 0.0063499999 0.09032169
v 0.058486428 0.001 0.053955659
v 0.058486428 0.0022859999 0.053955659
v 0.058713801 0.00254 0.054068875
v 0.059002642 0.0055880002 0.010796055
v 0.059002642 0.0055880002 0.023821695
v 0.059002642 0.0063499999 0.010796055
v 0.059002642 0.0063499999 0.010958876
v 0.059002642 0.0063499999 0.012728389
v 0.059002642 0.0063499999 0.023821695
v 0.059121389 0.001 0.04710336
v 0.059121389 0.0022859999 0.04710336
v 0.05936569 0.00254 0.04703385
v 0.059444368 0.001 0.050588857
v 0.059444368 0.0022859999 0.050588857
v 0.059498351 0.0063499999 0.00050000101
v 0.059498351 0.0063499999 0.010958876
v 0.059498351 0.0063499999 0.012728389
v 0.059498351 0.0063499999 0.024065927
v 0.059498351 0.0063499999 0.062331792
v 0.059498351 0.0063499999 0.070079349
v 0.059498351 0.0063499999 0.077621698
v 0.059498351 0.0063499999 0.078924261
v 0.059498351 0.0063499999 0.082831949
v 0.059498351 0.0063499999 0.084134519
v 0.059498351 0.0063499999 0.093930699
v 0.059498351 0.0063499999 0.10061015
v 0.059498351 0.0063499999 0.10142
v 0.059697285 0.00254 0.050612293
v 0.059994057 0.001 0.038484681
v 0.059994057 0.001 0.060935318
v 0.059994057 0.0063499999 0.038484681
v 0.059994057 0.0063499999 0.060935318
v 0.060153656 0.001 0.037889048
v 0.060153656 0.001 0.039080311
v 0.060153656 0.001 0.060339689
v 0.060153656 0.001 0.061530951
v 0.060153656 0.0063499999 0.037889048
v 0.060153656 0.0063499999 0.039080311
v 0.060153656 0.0063499999 0.060339689
v 0.060153656 0.0063499999 0.061530951
v 0.06033726 0.00254 0.04217048
v 0.06033726 0.00254 0.057249524
v 0.06033726 0.0063499999 0.04217048
v 0.06033726 0.0063499999 0.057249524
v 0.06058969 0.001 0.037453018
v 0.06058969 0.001 0.039516341
v 0.06058969 0.001 0.059903659
v 0.06058969 0.001 0.061966982
v 0.06058969 0.0063499999 0.037453018
v 0.06058969 0.0063499999 0.039516341
v 0.06058969 0.0063499999 0.059903659
v 0.06058969 0.0063499999 0.061966982
v 0.061185319 0.001 0.037293419
v 0.061185319 0.001 0.03967594
v 0.061185319 0.001 0.05974406
v 0.061185319 0.001 0.062126581
v 0.061185319 0.0063499999 0.037293419
v 0.061185319 0.0063499999 0.03967594
v 0.061185319 0.0063499999 0.05974406
v 0.061185319 0.0063499999 0.062126581
v 0.061282128 0.0055880002 0.019206751
v 0.061282128 0.0063499999 0.019206751
v 0.061548658 0.0055880002 0.017565023
v 0.061548658 0.0063499999 0.017565023
v 0.061606288 0.0055880002 0.020993466
v 0.061606288 0.0063499999 0.020993466
v 0.061780948 0.001 0.037453018
v 0.061780948 0.001 0.039516341
v 0.061780948 0.001 0.059903659
v 0.061780948 0.001 0.061966982
v 0.061780948 0.0063499999 0.037453018
v 0.061780948 0.0063499999 0.039516341
v 0.061780948 0.0063499999 0.059903659
v 0.061780948 0.0063499999 0.061966982
v 0.062159199 0.00254 0.045746241
v 0.062159199 0.00254 0.053673763
v 0.062159199 0.0063499999 0.045746241
v 0.062159199 0.0063499999 0.053673763
v 0.062216982 0.001 0.037889048
v 0.062216982 0.001 0.039080311
v 0.062216982 0.001 0.060339689
v 0.062216982 0.001 0.061530951
v 0.062216982 0.0063499999 0.037889048
v 0.062216982 0.0063499999 0.039080311
v 0.062216982 0.0063499999 0.060339689
v 0.062216982 0.0063499999 0.061530951
v 0.062350638 0.0055880002 0.016108073
v 0.062350638 0.0063499999 0.016108073
v 0.062376577 0.001 0.038484681
v 0.062376577 0.001 0.060935318
v 0.062376577 0.0063499999 0.038484681
v 0.062376577 0.0063499999 0.060935318
v 0.062421873 0.0055880002 0.019425541
v 0.062421873 0.0063499999 0.019425541
v 0.06254144 0.0055880002 0.018285796
v 0.06254144 0.0063499999 0.018285796
v 0.062581792 0.0063499999 0.00050000101
v 0.062581792 0.0063499999 0.010958876
v 0.062581792 0.0063499999 0.012728389
v 0.062581792 0.0063499999 0.019425541
v 0.062581792 0.0063499999 0.024065927
v 0.062581792 0.0063499999 0.062331792
v 0.062581792 0.0063499999 0.070079349
v 0.062581792 0.0063499999 0.077621698
v 0.062581792 0.0063499999 0.078924261
v 0.062581792 0.0063499999 0.082831949
v 0.062581792 0.0063499999 0.084134519
v 0.062581792 0.0063499999 0.093930699
v 0.062581792 0.0063499999 0.10061015
v 0.062581792 0.0063499999 0.10142
v 0.062599793 0.0055880002 0.022612453
v 0.062599793 0.0063499999 0.022612453
v 0.062786996 0.00254 0.049710002
v 0.062786996 0.0063499999 0.049710002
v 0.062811352 0.0055880002 0.021060258
v 0.062811352 0.0063499999 0.021060258
v 0.062959597 0.0055880002 0.017256796
v 0.062959597 0.0063499999 0.017256796
v 0.063092895 0.0063499999 0.00050000101
v 0.063092895 0.0063499999 0.010958876
v 0.063092895 0.0063499999 0.012728389
v 0.063092895 0.0063499999 0.019425541
v 0.063092895 0.0063499999 0.024065927
v 0.063092895 0.0063499999 0.049710002
v 0.063092895 0.0063499999 0.062331792
v 0.063092895 0.0063499999 0.070079349
v 0.063092895 0.0063499999 0.077621698
v 0.063092895 0.0063499999 0.078924261
v 0.063092895 0.0063499999 0.082831949
v 0.063092895 0.0063499999 0.084134519
v 0.063092895 0.0063499999 0.093930699
v 0.063092895 0.0063499999 0.10061015
v 0.063092895 0.0063499999 0.10142
v 0.063398793 0.0055880002 0.077621698
v 0.063398793 0.0055880002 0.078924261
v 0.063398793 0.0055880002 0.082831949
v 0.063398793 0.0055880002 0.084134519
v 0.063398793 0.0063499999 0.077621698
v 0.063398793 0.0063499999 0.078924261
v 0.063398793 0.0063499999 0.082831949
v 0.063398793 0.0063499999 0.084134519
v 0.063645571 0.0055880002 0.016387921
v 0.063645571 0.0063499999 0.016387921
v 0.063829385 0.0055880002 0.022234434
v 0.063829385 0.0063499999 0.022234434
v 0.063953169 0.0055880002 0.014802296
v 0.063953169 0.0063499999 0.014802296
v 0.064111538 0.0055880002 0.023666155
v 0.064111538 0.0063499999 0.023666155
v 0.064759262 0.0055880002 0.015728768
v 0.064759262 0.0063499999 0.015728768
v 0.065354243 0.0055880002 0.022818713
v 0.065354243 0.0063499999 0.022818713
v 0.065808028 0.0055880002 0.022844773
v 0.065808028 0.0063499999 0.022844773
v 0.065950498 0.0055880002 0.023984516
v 0.065950498 0.0063499999 0.023984516
v 0.065978482 0.0055880002 0.014378104
v 0.065978482 0.0063499999 0.014378104
v 0.066036999 0.0055880002 0.015517849
v 0.066036999 0.0063499999 0.015517849
v 0.067226663 0.0055880002 0.023846272
v 0.067226663 0.0063499999 0.023846272
v 0.067733899 0.0055880002 0.022376806
v 0.067733899 0.0063499999 0.022376806
v 0.067780361 0.0055880002 0.015926551
v 0.067780361 0.0063499999 0.015926551
v 0.067875452 0.0055880002 0.014739584
v 0.067875452 0.0063499999 0.014739584
v 0.068699576 0.0055880002 0.021596538
v 0.068699576 0.0063499999 0.021596538
v 0.068901472 0.0055880002 0.016806047
v 0.068901472 0.0063499999 0.016806047
v 0.069036953 0.0055880002 0.022944625
v 0.069036953 0.0063499999 0.022944625
v 0.069224715 0.0055880002 0.020890925
v 0.069224715 0.0063499999 0.020890925
v 0.069413163 0.0055880002 0.015844215
v 0.069413163 0.0063499999 0.015844215
v 0.069585979 0.0055880002 0.018285796
v 0.069585979 0.0063499999 0.018285796
v 0.069715723 0.0055880002 0.016204748
v 0.069715723 0.0063499999 0.016204748
v 0.070237257 0.0055880002 0.021422636
v 0.070237257 0.0063499999 0.021422636
v 0.070486501 0.0055880002 0.017729666
v 0.070486501 0.0063499999 0.017729666
v 0.070725717 0.0055880002 0.019425541
v 0.070725717 0.0063499999 0.019425541
v 0.071458414 0.0063499999 0.00050000101
v 0.071458414 0.0063499999 0.010958876
v 0.071458414 0.0063499999 0.012728389
v 0.071458414 0.0063499999 0.024065927
v 0.071458414 0.0063499999 0.049710002
v 0.071458414 0.0063499999 0.062331792
v 0.071458414 0.0063499999 0.070079349
v 0.071458414 0.0063499999 0.093930699
v 0.071458414 0.0063499999 0.10061015
v 0.071458414 0.0063499999 0.10142
v 0.072191104 0.0055880002 0.018285796
v 0.072191104 0.0055880002 0.019588362
v 0.072191104 0.0063499999 0.018285796
v 0.072191104 0.0063499999 0.019588362
v 0.07707572 0.0055880002 0.018285796
v 0.07707572 0.0055880002 0.019588362
v 0.07707572 0.0063499999 0.018285796
v 0.07707572 0.0063499999 0.019588362
v 0.07756418 0.0063499999 0.00050000101
v 0.07756418 0.0063499999 0.010958876
v 0.07756418 0.0063499999 0.012728389
v 0.07756418 0.0063499999 0.024065927
v 0.07756418 0.0063499999 0.049710002
v 0.07756418 0.0063499999 0.062331792
v 0.07756418 0.0063499999 0.070079349
v 0.07756418 0.0063499999 0.093930699
v 0.07756418 0.0063499999 0.10061015
v 0.07756418 0.0063499999 0.10142
v 0.07805264 0.0055880002 0.020402465
v 0.07805264 0.0063499999 0.020402465
v 0.07821326 0.0055880002 0.021082848
v 0.07821326 0.0063499999 0.021082848
v 0.0785411 0.0055880002 0.014052466
v 0.0785411 0.0063499999 0.014052466
v 0.079044573 0.0055880002 0.022721197
v 0.079044573 0.0063499999 0.022721197
v 0.079192385 0.0055880002 0.020402465
v 0.079192385 0.0063499999 0.020402465
v 0.079240307 0.0055880002 0.012383934
v 0.079240307 0.0063499999 0.012383934
v 0.079563633 0.0055880002 0.021354284
v 0.079563633 0.0063499999 0.021354284
v 0.079680845 0.0055880002 0.014052466
v 0.079680845 0.0063499999 0.014052466
v 0.080175415 0.0055880002 0.013156813
v 0.080175415 0.0063499999 0.013156813
v 0.080187112 0.0055880002 0.022157872
v 0.080187112 0.0063499999 0.022157872
v 0.080497734 0.0055880002 0.023809126
v 0.080497734 0.0063499999 0.023809126
v 0.080506898 0.0055880002 0.011239693
v 0.080506898 0.0063499999 0.011239693
v 0.081030555 0.0055880002 0.012395989
v 0.081030555 0.0063499999 0.012395989
v 0.081185862 0.0055880002 0.022688244
v 0.081185862 0.0063499999 0.022688244
v 0.081634693 0.0055880002 0.016169131
v 0.081634693 0.0055880002 0.017471693
v 0.081634693 0.0063499999 0.016169131
v 0.081634693 0.0063499999 0.017471693
v 0.081933998 0.0055880002 0.017489452
v 0.081933998 0.0063499999 0.017489452
v 0.082288519 0.0055880002 0.024147335
v 0.082288519 0.0063499999 0.024147335
v 0.082308874 0.0055880002 0.022844773
v 0.082308874 0.0063499999 0.022844773
v 0.082321592 0.0055880002 0.010796055
v 0.082321592 0.0063499999 0.010796055
v 0.082336858 0.0055880002 0.012098618
v 0.082336858 0.0063499999 0.012098618
v 0.082965285 0.0055880002 0.012152866
v 0.082965285 0.0063499999 0.012152866
v 0.083258793 0.0055880002 0.024057986
v 0.083258793 0.0063499999 0.024057986
v 0.08370918 0.0055880002 0.015730605
v 0.08370918 0.0063499999 0.015730605
v 0.083855867 0.0055880002 0.017838564
v 0.083855867 0.0063499999 0.017838564
v 0.083907127 0.0055880002 0.022532746
v 0.083907127 0.0063499999 0.022532746
v 0.08397238 0.0055880002 0.012546096
v 0.08397238 0.0063499999 0.012546096
v 0.084061936 0.0055880002 0.011182275
v 0.084061936 0.0063499999 0.011182275
v 0.084547654 0.0055880002 0.016708475
v 0.084547654 0.0063499999 0.016708475
v 0.08454892 0.0055880002 0.015084248
v 0.08454892 0.0063499999 0.015084248
v 0.084691435 0.0055880002 0.013299327
v 0.084691435 0.0063499999 0.013299327
v 0.084861085 0.0055880002 0.014402084
v 0.084861085 0.0063499999 0.014402084
v 0.084891103 0.0055880002 0.014090624
v 0.084891103 0.0063499999 0.014090624
v 0.084906444 0.0055880002 0.018565122
v 0.084906444 0.0063499999 0.018565122
v 0.085002571 0.0055880002 0.021673435
v 0.085002571 0.0063499999 0.021673435
v 0.085015327 0.0055880002 0.023305377
v 0.085015327 0.0063499999 0.023305377
v 0.085239902 0.0055880002 0.019027539
v 0.085239902 0.0063499999 0.019027539
v 0.085306674 0.0055880002 0.017160568
v 0.085306674 0.0063499999 0.017160568
v 0.085430726 0.0055880002 0.01229829
v 0.085430726 0.0063499999 0.01229829
v 0.085505635 0.0055880002 0.02058669
v 0.085505635 0.0063499999 0.02058669
v 0.085542381 0.0055880002 0.020158233
v 0.085542381 0.0063499999 0.020158233
v 0.085643828 0.0055880002 0.015600882
v 0.085643828 0.0063499999 0.015600882
v 0.085924 0.0055880002 0.017792247
v 0.085924 0.0063499999 0.017792247
v 0.086008944 0.0055880002 0.013751257
v 0.086008944 0.0063499999 0.013751257
v 0.086030841 0.0055880002 0.014095712
v 0.086030841 0.0063499999 0.014095712
v 0.086246103 0.0055880002 0.021842193
v 0.086246103 0.0063499999 0.021842193
v 0.086492561 0.0055880002 0.018856816
v 0.086492561 0.0063499999 0.018856816
v 0.086682126 0.0055880002 0.020048838
v 0.086682126 0.0063499999 0.020048838
v 0.089469999 -1.5720932e-18 0.002286002
v 0.089469999 0 0.002286002
v 0.089469999 0 0.099633999
v 0.089469999 1.0842022e-19 0.099633999
v 0.089469999 0.00025400001 0.0025399998
v 0.089469999 0.00025400001 0.099380001
v 0.089469999 0.001 0.0025399998
v 0.089469999 0.001 0.099380001
v 0.090769999 0.00025400001 0.0028883331
v 0.090769999 0.00025400001 0.099031672
v 0.090769999 0.001 0.0028883331
v 0.090769999 0.001 0.099031672
v 0.090896994 0 0.0026683658
v 0.090896994 0 0.099251635
v 0.091110915 0.0063499999 0.00050000101
v 0.091110915 0.0063499999 0.010958876
v 0.091110915 0.0063499999 0.012728389
v 0.091110915 0.0063499999 0.024065927
v 0.091110915 0.0063499999 0.049710002
v 0.091110915 0.0063499999 0.062331792
v 0.091110915 0.0063499999 0.070079349
v 0.091110915 0.0063499999 0.093930699
v 0.091110915 0.0063499999 0.10061015
v 0.091110915 0.0063499999 0.10142
v 0.091721669 0.00025400001 0.0038399994
v 0.091721669 0.00025400001 0.098080002
v 0.091721669 0.001 0.0038399994
v 0.091721669 0.001 0.098080002
v 0.09194164 0 0.0037130006
v 0.09194164 0 0.098206997
v 0.092069998 0.00025400001 0.0051399991
v 0.092069998 0.00025400001 0.015999999
v 0.092069998 0.00025400001 0.096670002
v 0.092069998 0.00025400001 0.096780002
v 0.092069998 0.001 0.0051399991
v 0.092069998 0.001 0.015999999
v 0.092069998 0.001 0.096670002
v 0.092069998 0.001 0.096780002
v 0.092324004 -7.8604658e-18 0.096780002
v 0.092324004 -8.6736174e-19 0.096670002
v 0.092324004 0 0.0051399991
v 0.092324004 0 0.015999999
v 0.092324004 0 0.096670002
v 0.092324004 0 0.096780002
v 0.092324004 7.0473141e-19 0.015999999
v 0.092324004 3.0357661e-18 0.0051399991
v 0.092418328 0.00025400001 0.017300002
v 0.092418328 0.00025400001 0.095370002
v 0.092418328 0.001 0.017300002
v 0.092418328 0.001 0.095370002
v 0.092638299 0 0.017173
v 0.092638299 0 0.095496997
v 0.093369998 0.00025400001 0.018251665
v 0.093369998 0.00025400001 0.094418332
v 0.093369998 0.001 0.018251665
v 0.093369998 0.001 0.094418332
v 0.093496993 0 0.018031698
v 0.093496993 0 0.094638303
v 0.094669998 -3.2526065e-19 0.018346
v 0.094669998 -3.2526065e-19 0.094324
v 0.094669998 0 0.018346
v 0.094669998 0 0.094324
v 0.094669998 0.00025400001 0.018600002
v 0.094669998 0.00025400001 0.094070002
v 0.094669998 0.001 0.018600002
v 0.094669998 0.001 0.094070002
v 0.094779998 -7.5894152e-18 0.018346
v 0.094779998 -6.505213e-19 0.094324
v 0.094779998 0 0.018346
v 0.094779998 0 0.094324
v 0.094779998 0.00025400001 0.018600002
v 0.094779998 0.00025400001 0.094070002
v 0.094779998 0.001 0.018600002
v 0.094779998 0.001 0.094070002
v 0.095539704 0 0.014000002
v 0.095539704 0 0.098670006
v 0.095539704 0.0063499999 0.014000002
v 0.095539704 0.0063499999 0.098670006
v 0.09569113 0 0.01343485
v 0.09569113 0 0.014565151
v 0.09569113 0 0.098104849
v 0.09569113 0 0.099235147
v 0.09569113 0.0063499999 0.01343485
v 0.09569113 0.0063499999 0.014565151
v 0.09569113 0.0063499999 0.098104849
v 0.09569113 0.0063499999 0.099235147
v 0.096079998 0.00025400001 0.018948335
v 0.096079998 0.00025400001 0.093721665
v 0.096079998 0.001 0.018948335
v 0.096079998 0.001 0.093721665
v 0.096104845 0 0.013021134
v 0.096104845 0 0.014978871
v 0.096104845 0 0.097691134
v 0.096104845 0 0.099648871
v 0.096104845 0.0063499999 0.013021134
v 0.096104845 0.0063499999 0.014978871
v 0.096104845 0.0063499999 0.097691134
v 0.096104845 0.0063499999 0.099648871
v 0.096207 0 0.018728364
v 0.096207 0 0.093941636
v 0.096670002 0 0.012869701
v 0.096670002 0 0.0151303
v 0.096670002 0 0.097539701
v 0.096670002 0 0.099800304
v 0.096670002 0.0063499999 0.012869701
v 0.096670002 0.0063499999 0.0151303
v 0.096670002 0.0063499999 0.097539701
v 0.096670002 0.0063499999 0.099800304
v 0.097031668 0.00025400001 0.0199
v 0.097031668 0.00025400001 0.092769995
v 0.097031668 0.001 0.0199
v 0.097031668 0.001 0.092769995
v 0.097235143 0 0.013021134
v 0.097235143 0 0.014978871
v 0.097235143 0 0.097691134
v 0.097235143 0 0.099648871
v 0.097235143 0.0063499999 0.013021134
v 0.097235143 0.0063499999 0.014978871
v 0.097235143 0.0063499999 0.097691134
v 0.097235143 0.0063499999 0.099648871
v 0.097251639 0 0.019773001
v 0.097251639 0 0.092896998
v 0.097379997 0 0
v 0.097379997 0 0.10192
v 0.097379997 0.00025400001 0.021200001
v 0.097379997 0.00025400001 0.091470003
v 0.097379997 0.001 0.021200001
v 0.097379997 0.001 0.03993047
v 0.097379997 0.001 0.091470003
v 0.097379997 0.0058499998 0
v 0.097379997 0.0058499998 0.10192
v 0.097379997 0.0063499999 0.00050000101
v 0.097379997 0.0063499999 0.10142
v 0.097634003 0 0.021200001
v 0.097634003 0 0.056335002
v 0.097634003 0 0.091470003
v 0.097634003 1.0842022e-19 0.021200001
v 0.097634003 1.0842022e-19 0.056335002
v 0.097634003 1.0842022e-19 0.091470003
v 0.097648866 0 0.01343485
v 0.097648866 0 0.014565151
v 0.097648866 0 0.098104849
v 0.097648866 0 0.099235147
v 0.097648866 0.0063499999 0.01343485
v 0.097648866 0.0063499999 0.014565151
v 0.097648866 0.0063499999 0.098104849
v 0.097648866 0.0063499999 0.099235147
v 0.0978003 0 0.014000002
v 0.0978003 0 0.098670006
v 0.0978003 0.0063499999 0.014000002
v 0.0978003 0.0063499999 0.098670006
v 0.098399997 0.0063499999 0.00077330694
v 0.098399997 0.0063499999 0.1011467
v 0.098649994 0 0.00034029782
v 0.098649994 0 0.1015797
v 0.098649994 0.0058499998 0.00034029782
v 0.098649994 0.0058499998 0.1015797
v 0.099146694 0.0063499999 0.0015200004
v 0.099146694 0.0063499999 0.1004
v 0.099419996 0.0063499999 0.0025399998
v 0.099419996 0.0063499999 0.010958876
v 0.099419996 0.0063499999 0.012728389
v 0.099419996 0.0063499999 0.024065927
v 0.099419996 0.0063499999 0.049710002
v 0.099419996 0.0063499999 0.062331792
v 0.099419996 0.0063499999 0.070079349
v 0.099419996 0.0063499999 0.093930699
v 0.099419996 0.0063499999 0.099380001
v 0.099579707 0 0.0012699999
v 0.099579707 0 0.10065
v 0.099579707 0.0058499998 0.0012699999
v 0.099579707 0.0058499998 0.10065
v 0.099919997 0 0.0025399998
v 0.099919997 0 0.056335002
v 0.099919997 0 0.099380001
v 0.099919997 0.0058499998 0.0025399998
v 0.099919997 0.0058499998 0.099380001
s 1
f 959// 960// 978//
f 13// 14// 28//
f 12// 13// 27//
f 536// 524// 587//
f 745// 781// 732//
f 877// 865// 888//
f 1208// 1091// 1092//
f 10// 11// 25//
f 986// 992// 973//
f 656// 645// 613//
f 645// 656// 660//
f 559// 558// 522//
f 879// 863// 857//
f 912// 875// 886//
f 769// 770// 779//
f 770// 771// 780//
f 755// 754// 731//
f 374// 326// 327//
f 194// 193// 182//
f 218// 210// 250//
f 254// 253// 248//
f 254// 250// 238//
f 204// 201// 238//
f 238// 201// 202//
f 238// 202// 254//
f 254// 202// 183//
f 248// 244// 254//
f 254// 244// 236//
f 254// 236// 250//
f 250// 236// 228//
f 250// 228// 218//
f 216// 222// 252//
f 252// 222// 242//
f 252// 242// 253//
f 253// 242// 246//
f 253// 246// 248//
f 216// 252// 206//
f 206// 252// 181//
f 206// 181// 192//
f 299// 290// 258//
f 290// 289// 257//
f 257// 289// 297//
f 342// 331// 332//
f 332// 331// 317//
f 332// 317// 318//
f 318// 317// 299//
f 318// 299// 300//
f 300// 299// 258//
f 526// 510// 485//
f 329// 428// 525//
f 525// 428// 450//
f 525// 450// 489//
f 376// 341// 485//
f 485// 341// 342//
f 485// 342// 526//
f 526// 342// 332//
f 489// 506// 525//
f 525// 506// 508//
f 525// 508// 526//
f 526// 508// 504//
f 526// 504// 510//
f 510// 504// 483//
f 483// 471// 510//
f 510// 471// 437//
f 510// 437// 414//
f 289// 298// 297//
f 297// 298// 316//
f 297// 316// 315//
f 315// 316// 330//
f 315// 330// 329//
f 329// 330// 386//
f 329// 386// 428//
f 787// 762// 763//
f 735// 742// 741//
f 742// 735// 763//
f 763// 735// 788//
f 763// 788// 787//
f 787// 788// 871//
f 787// 871// 870//
f 870// 871// 894//
f 870// 894// 893//
f 902// 960// 901//
f 901// 960// 959//
f 901// 959// 890//
f 893// 894// 904//
f 904// 894// 960//
f 904// 960// 903//
f 903// 960// 902//
f 903// 902// 892//
f 902// 891// 892//
f 892// 891// 868//
f 892// 868// 869//
f 869// 868// 785//
f 869// 785// 786//
f 786// 785// 760//
f 786// 760// 761//
f 959// 889// 890//
f 890// 889// 866//
f 890// 866// 867//
f 867// 866// 783//
f 867// 783// 784//
f 294// 312// 311//
f 388// 373// 374//
f 517// 512// 523//
f 512// 500// 523//
f 523// 500// 459//
f 523// 459// 374//
f 374// 459// 439//
f 374// 439// 388//
f 514// 522// 502//
f 502// 522// 521//
f 502// 521// 463//
f 463// 521// 443//
f 443// 521// 398//
f 398// 521// 324//
f 398// 324// 325//
f 325// 324// 309//
f 325// 309// 310//
f 310// 309// 305//
f 305// 309// 292//
f 305// 292// 306//
f 306// 292// 293//
f 306// 293// 307//
f 682// 668// 664//
f 664// 668// 633//
f 664// 633// 659//
f 659// 633// 662//
f 662// 633// 634//
f 662// 634// 666//
f 666// 634// 669//
f 666// 669// 688//
f 688// 669// 698//
f 698// 669// 712//
f 698// 712// 709//
f 730// 711// 720//
f 720// 724// 730//
f 730// 724// 726//
f 730// 726// 731//
f 731// 726// 722//
f 667// 697// 710//
f 710// 697// 703//
f 780// 771// 781//
f 731// 754// 730//
f 730// 754// 753//
f 730// 753// 752//
f 912// 886// 920//
f 956// 938// 926//
f 916// 918// 885//
f 952// 956// 955//
f 938// 956// 948//
f 948// 956// 952//
f 948// 952// 940//
f 940// 952// 885//
f 940// 885// 934//
f 934// 885// 918//
f 934// 918// 928//
f 863// 879// 885//
f 885// 879// 908//
f 885// 908// 916//
f 862// 910// 884//
f 884// 910// 922//
f 884// 922// 955//
f 955// 922// 932//
f 955// 932// 942//
f 942// 946// 955//
f 955// 946// 950//
f 955// 950// 952//
f 781// 825// 780//
f 780// 825// 827//
f 780// 827// 862//
f 862// 827// 851//
f 862// 851// 910//
f 572// 573// 625//
f 625// 573// 634//
f 625// 634// 624//
f 624// 634// 633//
f 624// 633// 531//
f 531// 633// 521//
f 531// 521// 532//
f 532// 521// 522//
f 532// 522// 557//
f 557// 522// 558//
f 514// 517// 522//
f 522// 517// 523//
f 522// 523// 559//
f 559// 523// 635//
f 559// 635// 574//
f 271// 272// 293//
f 293// 272// 283//
f 311// 307// 294//
f 294// 307// 293//
f 294// 293// 284//
f 284// 293// 283//
f 273// 274// 284//
f 284// 274// 285//
f 284// 285// 294//
f 294// 285// 286//
f 294// 286// 254//
f 254// 286// 265//
f 254// 265// 253//
f 253// 265// 264//
f 253// 264// 252//
f 252// 264// 263//
f 252// 263// 281//
f 270// 271// 282//
f 282// 271// 293//
f 282// 293// 281//
f 281// 293// 292//
f 281// 292// 252//
f 526// 638// 591//
f 565// 600// 637//
f 565// 637// 542//
f 716// 690// 673//
f 673// 690// 631//
f 673// 631// 638//
f 638// 631// 598//
f 638// 598// 591//
f 694// 715// 692//
f 692// 715// 672//
f 656// 692// 660//
f 660// 692// 672//
f 660// 672// 651//
f 651// 672// 637//
f 651// 637// 627//
f 627// 637// 600//
f 1034// 1024// 998//
f 998// 1024// 1022//
f 998// 1022// 1006//
f 1002// 988// 974//
f 974// 988// 984//
f 974// 984// 982//
f 1012// 1011// 986//
f 1008// 1018// 1014//
f 1014// 1018// 1048//
f 1014// 1048// 1030//
f 1028// 998// 1011//
f 1011// 998// 996//
f 1011// 996// 986//
f 1042// 1034// 1046//
f 1046// 1034// 998//
f 1046// 998// 1044//
f 1044// 998// 1028//
f 1044// 1028// 1040//
f 1018// 1032// 1050//
f 1054// 1048// 1062//
f 1062// 1048// 1018//
f 1062// 1018// 1060//
f 1060// 1018// 1050//
f 1002// 974// 1016//
f 1016// 974// 975//
f 1016// 975// 1026//
f 1070// 1064// 1094//
f 1093// 1058// 1068//
f 1064// 1038// 1056//
f 1056// 1066// 1064//
f 1064// 1066// 1074//
f 1064// 1074// 1094//
f 1094// 1074// 1076//
f 1094// 1076// 1072//
f 971// 972// 1020//
f 1058// 1093// 1036//
f 1036// 1093// 1092//
f 1036// 1092// 1020//
f 1020// 1092// 1091//
f 1020// 1091// 971//
f 973// 992// 972//
f 972// 992// 1004//
f 972// 1004// 1020//
f 32// 34// 63//
f 32// 63// 188//
f 17// 18// 32//
f 32// 18// 20//
f 32// 20// 34//
f 1099// 1229// 1184//
f 1173// 1183// 1243//
f 1184// 1174// 1099//
f 1099// 1174// 1162//
f 1099// 1162// 1154//
f 1154// 1161// 1098//
f 1183// 1195// 1243//
f 1243// 1195// 1222//
f 1243// 1222// 1244//
f 1244// 1222// 1227//
f 1244// 1227// 1235//
f 1235// 1227// 1223//
f 1235// 1223// 1229//
f 1229// 1223// 1196//
f 1229// 1196// 1184//
f 591// 543// 526//
f 526// 543// 542//
f 526// 542// 525//
f 525// 542// 637//
f 525// 637// 587//
f 596// 636// 641//
f 641// 636// 671//
f 641// 671// 676//
f 676// 671// 714//
f 676// 714// 680//
f 680// 714// 746//
f 815// 782// 823//
f 823// 782// 865//
f 823// 865// 837//
f 815// 803// 782//
f 782// 803// 746//
f 782// 746// 733//
f 733// 746// 714//
f 803// 795// 746//
f 746// 795// 802//
f 746// 802// 807//
f 807// 802// 814//
f 807// 814// 841//
f 814// 822// 841//
f 841// 822// 836//
f 841// 836// 877//
f 836// 848// 877//
f 877// 848// 855//
f 877// 855// 865//
f 865// 855// 849//
f 865// 849// 837//
f 813// 801// 745//
f 801// 794// 745//
f 745// 794// 800//
f 745// 800// 781//
f 781// 800// 812//
f 781// 812// 864//
f 864// 812// 820//
f 864// 820// 834//
f 834// 846// 864//
f 864// 846// 854//
f 864// 854// 877//
f 877// 854// 847//
f 877// 847// 835//
f 813// 745// 821//
f 821// 745// 806//
f 821// 806// 835//
f 835// 806// 840//
f 835// 840// 877//
f 679// 745// 713//
f 713// 745// 732//
f 713// 732// 712//
f 363// 381// 327//
f 364// 322// 357//
f 374// 327// 523//
f 523// 327// 381//
f 523// 381// 393//
f 713// 670// 679//
f 679// 670// 635//
f 679// 635// 586//
f 586// 635// 523//
f 586// 523// 535//
f 535// 523// 393//
f 364// 352// 322//
f 322// 352// 345//
f 322// 345// 327//
f 327// 345// 351//
f 327// 351// 363//
f 393// 407// 535//
f 535// 407// 419//
f 535// 419// 466//
f 466// 419// 408//
f 466// 408// 401//
f 401// 408// 394//
f 401// 394// 357//
f 357// 394// 382//
f 357// 382// 364//
f 314// 328// 322//
f 410// 396// 524//
f 524// 396// 384//
f 524// 384// 328//
f 328// 384// 366//
f 366// 354// 328//
f 328// 354// 346//
f 328// 346// 322//
f 322// 346// 353//
f 322// 353// 365//
f 410// 524// 420//
f 420// 524// 536//
f 420// 536// 409//
f 409// 536// 467//
f 409// 467// 395//
f 395// 467// 402//
f 395// 402// 383//
f 383// 402// 365//
f 365// 402// 358//
f 365// 358// 322//
f 11// 26// 25//
f 25// 26// 182//
f 25// 182// 181//
f 181// 182// 193//
f 181// 193// 192//
f 27// 71// 44//
f 26// 37// 43//
f 11// 12// 26//
f 26// 12// 27//
f 26// 27// 37//
f 37// 27// 44//
f 104// 110// 182//
f 182// 110// 183//
f 182// 183// 194//
f 194// 183// 202//
f 43// 70// 26//
f 26// 70// 82//
f 26// 82// 182//
f 182// 82// 92//
f 182// 92// 104//
f 110// 105// 183//
f 183// 105// 93//
f 183// 93// 27//
f 27// 93// 83//
f 27// 83// 71//
f 46// 38// 32//
f 17// 32// 31//
f 31// 32// 38//
f 31// 38// 45//
f 188// 111// 107//
f 45// 72// 31//
f 31// 72// 84//
f 31// 84// 187//
f 187// 84// 94//
f 187// 94// 106//
f 107// 95// 188//
f 188// 95// 85//
f 188// 85// 32//
f 32// 85// 73//
f 32// 73// 46//
f 290// 257// 258//
f 258// 257// 186//
f 258// 186// 187//
f 187// 186// 30//
f 187// 30// 31//
f 31// 30// 16//
f 31// 16// 17//
f 13// 28// 27//
f 27// 28// 184//
f 27// 184// 183//
f 183// 184// 255//
f 183// 255// 254//
f 254// 255// 295//
f 254// 295// 294//
f 294// 295// 313//
f 294// 313// 312//
f 326// 311// 327//
f 327// 311// 312//
f 327// 312// 322//
f 322// 312// 313//
f 322// 313// 314//
f 314// 313// 295//
f 314// 295// 296//
f 296// 295// 255//
f 296// 255// 256//
f 256// 255// 184//
f 256// 184// 185//
f 185// 184// 28//
f 185// 28// 29//
f 29// 28// 14//
f 29// 14// 15//
f 587// 524// 525//
f 525// 524// 328//
f 525// 328// 329//
f 329// 328// 314//
f 329// 314// 315//
f 315// 314// 296//
f 315// 296// 297//
f 297// 296// 256//
f 297// 256// 257//
f 257// 256// 185//
f 257// 185// 186//
f 186// 185// 29//
f 186// 29// 30//
f 30// 29// 15//
f 30// 15// 16//
f 19// 10// 33//
f 33// 10// 25//
f 33// 25// 62//
f 62// 25// 181//
f 62// 181// 180//
f 180// 181// 252//
f 180// 252// 251//
f 251// 252// 292//
f 251// 292// 291//
f 291// 292// 309//
f 291// 309// 308//
f 308// 309// 324//
f 308// 324// 323//
f 323// 324// 521//
f 323// 521// 520//
f 520// 521// 633//
f 520// 633// 632//
f 632// 633// 668//
f 632// 668// 667//
f 667// 668// 682//
f 667// 682// 697//
f 670// 686// 685//
f 686// 670// 707//
f 707// 670// 713//
f 707// 713// 706//
f 706// 713// 712//
f 706// 712// 685//
f 685// 712// 669//
f 685// 669// 670//
f 670// 669// 634//
f 670// 634// 635//
f 635// 634// 573//
f 635// 573// 574//
f 769// 778// 752//
f 752// 778// 729//
f 752// 729// 730//
f 730// 729// 710//
f 730// 710// 711//
f 711// 710// 703//
f 711// 703// 720//
f 771// 772// 781//
f 781// 772// 755//
f 781// 755// 732//
f 732// 755// 731//
f 732// 731// 712//
f 712// 731// 722//
f 712// 722// 709//
f 784// 783// 741//
f 741// 783// 734//
f 741// 734// 735//
f 735// 734// 715//
f 735// 715// 716//
f 716// 715// 694//
f 716// 694// 690//
f 959// 888// 889//
f 889// 888// 865//
f 889// 865// 866//
f 866// 865// 782//
f 866// 782// 783//
f 783// 782// 733//
f 783// 733// 734//
f 734// 733// 714//
f 734// 714// 715//
f 715// 714// 671//
f 715// 671// 672//
f 672// 671// 636//
f 672// 636// 637//
f 637// 636// 596//
f 637// 596// 587//
f 769// 779// 778//
f 778// 779// 861//
f 778// 861// 860//
f 860// 861// 883//
f 860// 883// 882//
f 882// 883// 954//
f 882// 954// 953//
f 770// 780// 779//
f 779// 780// 862//
f 779// 862// 861//
f 861// 862// 884//
f 861// 884// 883//
f 883// 884// 955//
f 883// 955// 954//
f 926// 920// 956//
f 956// 920// 886//
f 956// 886// 957//
f 957// 886// 887//
f 957// 887// 958//
f 970// 966// 956//
f 956// 966// 965//
f 956// 965// 955//
f 955// 965// 973//
f 955// 973// 954//
f 954// 973// 972//
f 954// 972// 953//
f 953// 972// 971//
f 965// 969// 973//
f 973// 969// 974//
f 973// 974// 986//
f 986// 974// 982//
f 986// 982// 1012//
f 1012// 982// 990//
f 1012// 990// 1014//
f 1014// 990// 994//
f 1014// 994// 1008//
f 1008// 994// 1000//
f 969// 970// 974//
f 974// 970// 956//
f 974// 956// 975//
f 975// 956// 957//
f 975// 957// 976//
f 976// 957// 958//
f 976// 958// 977//
f 978// 977// 959//
f 959// 977// 958//
f 959// 958// 888//
f 888// 958// 887//
f 888// 887// 877//
f 877// 887// 886//
f 877// 886// 864//
f 864// 886// 875//
f 864// 875// 781//
f 781// 875// 829//
f 781// 829// 825//
f 978// 1098// 977//
f 977// 1098// 1097//
f 977// 1097// 976//
f 976// 1097// 1096//
f 976// 1096// 975//
f 975// 1096// 1095//
f 975// 1095// 1026//
f 1026// 1095// 1094//
f 1026// 1094// 1052//
f 1052// 1094// 1072//
f 1154// 1098// 1099//
f 1099// 1098// 978//
f 1099// 978// 979//
f 979// 978// 960//
f 979// 960// 961//
f 961// 960// 894//
f 961// 894// 895//
f 895// 894// 871//
f 895// 871// 872//
f 872// 871// 788//
f 872// 788// 789//
f 789// 788// 735//
f 789// 735// 736//
f 736// 735// 716//
f 736// 716// 717//
f 717// 716// 673//
f 717// 673// 674//
f 674// 673// 638//
f 674// 638// 639//
f 639// 638// 526//
f 639// 526// 527//
f 527// 526// 332//
f 527// 332// 333//
f 333// 332// 318//
f 333// 318// 319//
f 319// 318// 300//
f 319// 300// 301//
f 301// 300// 258//
f 301// 258// 259//
f 259// 258// 187//
f 259// 187// 188//
f 188// 187// 106//
f 188// 106// 111//
f 63// 189// 188//
f 188// 189// 260//
f 188// 260// 259//
f 259// 260// 302//
f 259// 302// 301//
f 301// 302// 320//
f 301// 320// 319//
f 319// 320// 334//
f 319// 334// 333//
f 333// 334// 528//
f 333// 528// 527//
f 527// 528// 640//
f 527// 640// 639//
f 639// 640// 675//
f 639// 675// 674//
f 674// 675// 718//
f 674// 718// 717//
f 717// 718// 737//
f 717// 737// 736//
f 736// 737// 790//
f 736// 790// 789//
f 789// 790// 873//
f 789// 873// 872//
f 872// 873// 896//
f 872// 896// 895//
f 895// 896// 962//
f 895// 962// 961//
f 961// 962// 980//
f 961// 980// 979//
f 979// 980// 1100//
f 979// 1100// 1099//
f 1099// 1100// 1209//
f 1099// 1209// 1229//
f 1182// 1172// 1094//
f 1172// 1160// 1094//
f 1094// 1160// 1093//
f 1094// 1093// 1070//
f 1070// 1093// 1068//
f 1160// 1153// 1093//
f 1093// 1153// 1159//
f 1093// 1159// 1171//
f 1238// 1181// 1193//
f 1234// 1228// 1236//
f 1236// 1228// 1208//
f 1236// 1208// 1237//
f 1237// 1208// 1092//
f 1237// 1092// 1238//
f 1238// 1092// 1093//
f 1238// 1093// 1181//
f 1181// 1093// 1171//
f 1193// 1220// 1238//
f 1238// 1220// 1226//
f 1238// 1226// 1239//
f 1239// 1226// 1221//
f 1239// 1221// 1194//
f 1161// 1173// 1098//
f 1098// 1173// 1243//
f 1098// 1243// 1097//
f 1097// 1243// 1242//
f 1097// 1242// 1096//
f 1096// 1242// 1241//
f 1096// 1241// 1095//
f 1095// 1241// 1240//
f 1095// 1240// 1094//
f 1094// 1240// 1239//
f 1094// 1239// 1182//
f 1182// 1239// 1194//
f 581// 582// 648//
f 648// 582// 649//
f 648// 649// 727//
f 727// 649// 728//
f 727// 728// 764//
f 764// 728// 765//
f 764// 765// 776//
f 776// 765// 777//
f 776// 777// 773//
f 773// 777// 774//
f 773// 774// 747//
f 747// 774// 748//
f 747// 748// 699//
f 699// 748// 700//
f 699// 700// 605//
f 605// 700// 606//
f 605// 606// 545//
f 545// 606// 546//
f 545// 546// 518//
f 518// 546// 519//
f 518// 519// 460//
f 460// 519// 461//
f 460// 461// 440//
f 440// 461// 441//
f 440// 441// 431//
f 431// 441// 432//
f 431// 432// 445//
f 445// 432// 446//
f 445// 446// 493//
f 493// 446// 494//
f 493// 494// 538//
f 538// 494// 539//
f 538// 539// 581//
f 581// 539// 582//
f 1249// 1252// 1250//
f 1250// 1252// 1253//
f 1250// 1253// 1251//
f 53// 60// 575//
f 575// 60// 1206//
f 575// 1206// 1199//
f 3// 5// 2//
f 2// 5// 4//
f 2// 4// 1//
f 1200// 1207// 578//
f 578// 1207// 61//
f 578// 61// 54//
f 1249// 1189// 1177//
f 100// 157// 108//
f 108// 157// 140//
f 108// 140// 141//
f 1// 35// 2//
f 2// 35// 40//
f 2// 40// 67//
f 575// 171// 53//
f 53// 171// 164//
f 53// 164// 157//
f 6// 21// 1//
f 1// 21// 53//
f 89// 120// 112//
f 100// 88// 157//
f 157// 88// 78//
f 157// 78// 53//
f 53// 78// 66//
f 53// 66// 1//
f 1// 66// 39//
f 1// 39// 35//
f 89// 112// 79//
f 128// 120// 134//
f 134// 120// 89//
f 134// 89// 141//
f 141// 89// 101//
f 141// 101// 108//
f 54// 22// 69//
f 112// 86// 79//
f 79// 86// 64//
f 79// 64// 67//
f 67// 64// 47//
f 67// 47// 2//
f 2// 47// 48//
f 2// 48// 49//
f 109// 165// 103//
f 103// 165// 172//
f 103// 172// 91//
f 69// 22// 42//
f 42// 22// 7//
f 42// 7// 36//
f 36// 7// 3//
f 36// 3// 41//
f 41// 3// 2//
f 41// 2// 68//
f 68// 2// 49//
f 68// 49// 80//
f 69// 81// 54//
f 54// 81// 91//
f 54// 91// 578//
f 578// 91// 172//
f 578// 172// 577//
f 102// 143// 109//
f 109// 143// 158//
f 109// 158// 165//
f 121// 129// 90//
f 90// 129// 135//
f 90// 135// 102//
f 102// 135// 142//
f 102// 142// 143//
f 49// 65// 80//
f 80// 65// 87//
f 80// 87// 90//
f 90// 87// 113//
f 90// 113// 121//
f 1170// 1079// 1158//
f 1158// 1079// 1152//
f 1169// 1138// 1146//
f 1079// 1090// 1152//
f 1152// 1090// 1106//
f 1152// 1106// 1157//
f 577// 1079// 578//
f 578// 1079// 1170//
f 578// 1170// 1200//
f 1200// 1170// 1180//
f 1200// 1180// 1231//
f 1231// 1180// 1192//
f 1231// 1192// 1246//
f 1246// 1192// 1219//
f 1246// 1219// 1251//
f 1251// 1219// 1225//
f 1251// 1225// 1250//
f 1250// 1225// 1218//
f 1250// 1218// 1191//
f 1169// 1146// 1179//
f 1134// 1138// 1128//
f 1128// 1138// 1169//
f 1128// 1169// 1119//
f 1119// 1169// 1157//
f 1119// 1157// 1120//
f 1120// 1157// 1106//
f 1250// 1217// 1224//
f 1250// 1224// 1249//
f 1249// 1224// 1216//
f 1249// 1216// 1189//
f 1199// 1230// 1245//
f 1117// 1105// 1199//
f 1156// 1118// 1151//
f 1151// 1118// 1117//
f 1151// 1117// 1155//
f 1146// 1176// 1179//
f 1179// 1176// 1198//
f 1179// 1198// 1191//
f 1191// 1198// 1212//
f 1191// 1212// 1250//
f 1250// 1212// 1211//
f 1250// 1211// 1210//
f 1245// 1249// 1199//
f 1199// 1249// 1177//
f 1199// 1177// 1117//
f 1117// 1177// 1167//
f 1117// 1167// 1155//
f 1168// 1178// 1175//
f 1217// 1250// 1190//
f 1190// 1250// 1210//
f 1190// 1210// 1178//
f 1178// 1210// 1197//
f 1178// 1197// 1175//
f 1105// 1089// 1199//
f 1199// 1089// 1078//
f 1199// 1078// 575//
f 575// 1078// 576//
f 575// 576// 171//
f 1127// 1118// 1133//
f 1133// 1118// 1156//
f 1133// 1156// 1137//
f 1137// 1156// 1168//
f 1137// 1168// 1145//
f 1145// 1168// 1175//
f 964// 963// 966//
f 966// 963// 965//
f 963// 967// 965//
f 965// 967// 969//
f 967// 968// 969//
f 969// 968// 970//
f 968// 964// 970//
f 970// 964// 966//
f 968// 967// 964//
f 964// 967// 963//
f 939// 940// 934//
f 939// 934// 933//
f 933// 934// 928//
f 933// 928// 927//
f 927// 928// 918//
f 927// 918// 917//
f 939// 947// 940//
f 940// 947// 948//
f 919// 920// 926//
f 919// 926// 925//
f 925// 926// 938//
f 925// 938// 937//
f 937// 938// 948//
f 937// 948// 947//
f 824// 825// 829//
f 824// 829// 828//
f 828// 829// 875//
f 828// 875// 874//
f 874// 875// 912//
f 874// 912// 911//
f 911// 912// 920//
f 911// 920// 919//
f 850// 851// 827//
f 850// 827// 826//
f 826// 827// 825//
f 826// 825// 824//
f 921// 922// 910//
f 921// 910// 909//
f 909// 910// 851//
f 909// 851// 850//
f 945// 946// 942//
f 945// 942// 941//
f 941// 942// 932//
f 941// 932// 931//
f 931// 932// 922//
f 931// 922// 921//
f 951// 952// 950//
f 951// 950// 949//
f 949// 950// 946//
f 949// 946// 945//
f 952// 951// 885//
f 885// 951// 856//
f 885// 856// 863//
f 863// 856// 857//
f 917// 918// 916//
f 917// 916// 915//
f 915// 916// 908//
f 915// 908// 907//
f 907// 908// 879//
f 907// 879// 878//
f 878// 879// 857//
f 878// 857// 856//
f 856// 951// 943//
f 943// 951// 949//
f 943// 949// 935//
f 937// 947// 939//
f 949// 945// 935//
f 935// 945// 941//
f 935// 941// 929//
f 929// 941// 931//
f 929// 931// 923//
f 923// 931// 921//
f 923// 921// 913//
f 913// 921// 909//
f 913// 909// 905//
f 905// 909// 850//
f 905// 850// 880//
f 939// 933// 937//
f 937// 933// 927//
f 937// 927// 925//
f 925// 927// 917//
f 925// 917// 919//
f 919// 917// 915//
f 943// 858// 856//
f 856// 858// 824//
f 856// 824// 878//
f 878// 824// 828//
f 878// 828// 907//
f 907// 828// 874//
f 907// 874// 915//
f 915// 874// 911//
f 915// 911// 919//
f 880// 850// 858//
f 858// 850// 826//
f 858// 826// 824//
f 858// 943// 859//
f 859// 943// 944//
f 858// 859// 881//
f 858// 881// 880//
f 880// 881// 906//
f 880// 906// 905//
f 905// 906// 914//
f 905// 914// 913//
f 913// 914// 924//
f 913// 924// 923//
f 923// 924// 930//
f 923// 930// 929//
f 929// 930// 936//
f 929// 936// 935//
f 935// 936// 944//
f 935// 944// 943//
f 755// 751// 754//
f 754// 751// 750//
f 754// 750// 753//
f 753// 750// 752//
f 750// 767// 752//
f 752// 767// 769//
f 767// 768// 772//
f 772// 771// 767//
f 767// 771// 770//
f 767// 770// 769//
f 768// 751// 772//
f 772// 751// 755//
f 768// 767// 751//
f 751// 767// 750//
f 684// 683// 686//
f 686// 683// 685//
f 683// 704// 685//
f 685// 704// 706//
f 704// 705// 706//
f 706// 705// 707//
f 705// 684// 707//
f 707// 684// 686//
f 705// 704// 684//
f 684// 704// 683//
f 695// 697// 682//
f 695// 682// 681//
f 681// 682// 664//
f 681// 664// 663//
f 663// 664// 659//
f 663// 659// 657//
f 725// 726// 724//
f 725// 724// 723//
f 723// 724// 720//
f 723// 720// 719//
f 719// 720// 703//
f 719// 703// 702//
f 702// 703// 697//
f 702// 697// 695//
f 696// 698// 709//
f 696// 709// 708//
f 708// 709// 722//
f 708// 722// 721//
f 721// 722// 726//
f 721// 726// 725//
f 657// 659// 662//
f 657// 662// 661//
f 661// 662// 666//
f 661// 666// 665//
f 665// 666// 688//
f 665// 688// 687//
f 687// 688// 698//
f 687// 698// 696//
f 725// 665// 687//
f 665// 725// 661//
f 661// 725// 723//
f 661// 723// 657//
f 657// 723// 719//
f 657// 719// 702//
f 687// 696// 725//
f 725// 696// 708//
f 725// 708// 721//
f 702// 695// 657//
f 657// 695// 681//
f 657// 681// 663//
f 555// 530// 557//
f 557// 530// 532//
f 530// 529// 532//
f 532// 529// 531//
f 529// 622// 531//
f 531// 622// 624//
f 622// 623// 624//
f 624// 623// 625//
f 623// 570// 625//
f 625// 570// 572//
f 572// 570// 573//
f 573// 570// 571//
f 573// 571// 574//
f 571// 556// 574//
f 574// 556// 559//
f 559// 556// 558//
f 558// 556// 555//
f 558// 555// 557//
f 529// 530// 622//
f 622// 530// 555//
f 623// 622// 570//
f 570// 622// 555//
f 570// 555// 571//
f 571// 555// 556//
f 307// 304// 306//
f 306// 304// 303//
f 306// 303// 305//
f 303// 397// 398//
f 398// 325// 303//
f 303// 325// 310//
f 303// 310// 305//
f 462// 463// 443//
f 462// 443// 442//
f 442// 443// 398//
f 442// 398// 397//
f 516// 517// 514//
f 516// 514// 513//
f 513// 514// 502//
f 513// 502// 501//
f 501// 502// 463//
f 501// 463// 462//
f 458// 459// 500//
f 458// 500// 499//
f 499// 500// 512//
f 499// 512// 511//
f 511// 512// 517//
f 511// 517// 516//
f 387// 388// 439//
f 387// 439// 438//
f 438// 439// 459//
f 438// 459// 458//
f 387// 369// 388//
f 388// 369// 373//
f 369// 370// 373//
f 373// 370// 374//
f 374// 370// 326//
f 326// 370// 304//
f 326// 304// 311//
f 311// 304// 307//
f 303// 304// 369//
f 369// 304// 370//
f 368// 387// 429//
f 429// 387// 438//
f 429// 438// 453//
f 453// 438// 458//
f 453// 458// 478//
f 478// 458// 499//
f 478// 499// 495//
f 495// 499// 511//
f 495// 511// 497//
f 497// 511// 516//
f 497// 516// 491//
f 491// 516// 513//
f 491// 513// 474//
f 474// 513// 501//
f 474// 501// 456//
f 456// 501// 462//
f 456// 462// 433//
f 462// 442// 433//
f 433// 442// 397//
f 433// 397// 367//
f 367// 397// 303//
f 367// 303// 368//
f 368// 303// 369//
f 368// 369// 387//
f 433// 367// 434//
f 434// 367// 371//
f 433// 434// 457//
f 433// 457// 456//
f 456// 457// 475//
f 456// 475// 474//
f 474// 475// 492//
f 474// 492// 491//
f 491// 492// 498//
f 491// 498// 497//
f 497// 498// 496//
f 497// 496// 495//
f 495// 496// 479//
f 495// 479// 478//
f 478// 479// 454//
f 478// 454// 453//
f 453// 454// 430//
f 453// 430// 429//
f 368// 429// 372//
f 372// 429// 430//
f 367// 368// 371//
f 371// 368// 372//
f 265// 262// 264//
f 264// 262// 261//
f 264// 261// 263//
f 261// 275// 263//
f 263// 275// 281//
f 275// 276// 281//
f 281// 276// 282//
f 276// 266// 282//
f 282// 266// 270//
f 270// 266// 271//
f 271// 266// 267//
f 271// 267// 272//
f 267// 277// 272//
f 272// 277// 283//
f 277// 278// 283//
f 283// 278// 284//
f 278// 268// 284//
f 284// 268// 273//
f 268// 269// 273//
f 273// 269// 274//
f 269// 279// 274//
f 274// 279// 285//
f 279// 280// 285//
f 285// 280// 286//
f 280// 262// 286//
f 286// 262// 265//
f 262// 280// 279//
f 279// 269// 262//
f 262// 269// 268//
f 262// 268// 261//
f 276// 275// 266//
f 266// 275// 261//
f 266// 261// 267//
f 267// 261// 268//
f 267// 268// 277//
f 277// 268// 278//
f 740// 739// 742//
f 742// 739// 741//
f 901// 890// 897//
f 897// 890// 867//
f 897// 867// 739//
f 739// 867// 784//
f 739// 784// 741//
f 897// 898// 901//
f 901// 898// 902//
f 891// 902// 898//
f 756// 760// 785//
f 756// 785// 898//
f 898// 785// 868//
f 898// 868// 891//
f 756// 757// 760//
f 760// 757// 761//
f 903// 892// 899//
f 899// 892// 869//
f 899// 869// 757//
f 757// 869// 786//
f 757// 786// 761//
f 899// 900// 903//
f 903// 900// 904//
f 893// 904// 900//
f 758// 762// 787//
f 758// 787// 900//
f 900// 787// 870//
f 900// 870// 893//
f 758// 759// 762//
f 762// 759// 763//
f 759// 740// 763//
f 763// 740// 742//
f 739// 740// 758//
f 758// 740// 759//
f 898// 897// 756//
f 756// 897// 739//
f 756// 739// 757//
f 757// 739// 758//
f 757// 758// 899//
f 899// 758// 900//
f 541// 540// 543//
f 543// 540// 542//
f 540// 564// 542//
f 542// 564// 565//
f 658// 660// 651//
f 658// 651// 650//
f 650// 651// 627//
f 650// 627// 626//
f 626// 627// 600//
f 626// 600// 599//
f 599// 600// 565//
f 599// 565// 564//
f 612// 613// 645//
f 612// 645// 644//
f 644// 645// 660//
f 644// 660// 658//
f 693// 694// 692//
f 693// 692// 691//
f 691// 692// 656//
f 691// 656// 655//
f 655// 656// 613//
f 655// 613// 612//
f 590// 591// 598//
f 590// 598// 597//
f 597// 598// 631//
f 597// 631// 630//
f 630// 631// 690//
f 630// 690// 689//
f 689// 690// 694//
f 689// 694// 693//
f 590// 541// 591//
f 591// 541// 543//
f 540// 541// 549//
f 549// 541// 550//
f 550// 541// 568//
f 568// 541// 590//
f 568// 590// 603//
f 603// 590// 597//
f 603// 597// 628//
f 628// 597// 630//
f 628// 630// 646//
f 646// 630// 689//
f 646// 689// 652//
f 652// 689// 693//
f 652// 693// 642//
f 642// 693// 691//
f 642// 691// 618//
f 618// 691// 655//
f 618// 655// 601//
f 601// 655// 612//
f 601// 612// 588//
f 612// 644// 620//
f 620// 644// 658//
f 620// 658// 614//
f 614// 658// 650//
f 614// 650// 607//
f 607// 650// 626//
f 607// 626// 594//
f 594// 626// 599//
f 594// 599// 566//
f 566// 599// 564//
f 566// 564// 547//
f 547// 564// 540//
f 547// 540// 548//
f 548// 540// 549//
f 548// 549// 562//
f 562// 549// 560//
f 562// 560// 592//
f 592// 560// 588//
f 592// 588// 609//
f 609// 588// 612//
f 609// 612// 616//
f 616// 612// 620//
f 566// 547// 567//
f 567// 547// 551//
f 566// 567// 595//
f 566// 595// 594//
f 594// 595// 608//
f 594// 608// 607//
f 607// 608// 615//
f 607// 615// 614//
f 614// 615// 621//
f 614// 621// 620//
f 620// 621// 617//
f 620// 617// 616//
f 616// 617// 610//
f 616// 610// 609//
f 609// 610// 593//
f 609// 593// 592//
f 592// 593// 563//
f 592// 563// 562//
f 548// 562// 552//
f 552// 562// 563//
f 547// 548// 551//
f 551// 548// 552//
f 560// 549// 561//
f 561// 549// 553//
f 560// 561// 589//
f 560// 589// 588//
f 588// 589// 602//
f 588// 602// 601//
f 601// 602// 619//
f 601// 619// 618//
f 618// 619// 643//
f 618// 643// 642//
f 642// 643// 653//
f 642// 653// 652//
f 652// 653// 647//
f 652// 647// 646//
f 646// 647// 629//
f 646// 629// 628//
f 628// 629// 604//
f 628// 604// 603//
f 603// 604// 569//
f 603// 569// 568//
f 550// 568// 554//
f 554// 568// 569//
f 549// 550// 553//
f 553// 550// 554//
f 567// 551// 563//
f 563// 551// 552//
f 610// 617// 593//
f 593// 617// 621//
f 567// 563// 595//
f 595// 563// 593//
f 595// 593// 608//
f 608// 593// 621//
f 608// 621// 615//
f 288// 287// 290//
f 290// 287// 289//
f 385// 386// 287//
f 287// 386// 330//
f 330// 316// 287//
f 287// 316// 298//
f 287// 298// 289//
f 449// 450// 428//
f 449// 428// 427//
f 427// 428// 386//
f 427// 386// 385//
f 507// 508// 506//
f 507// 506// 505//
f 505// 506// 489//
f 505// 489// 488//
f 488// 489// 450//
f 488// 450// 449//
f 413// 414// 437//
f 413// 437// 436//
f 436// 437// 471//
f 436// 471// 470//
f 470// 471// 483//
f 470// 483// 482//
f 482// 483// 504//
f 482// 504// 503//
f 503// 504// 508//
f 503// 508// 507//
f 413// 509// 414//
f 414// 509// 510//
f 509// 484// 510//
f 510// 484// 485//
f 484// 375// 485//
f 485// 375// 376//
f 375// 337// 376//
f 376// 337// 341//
f 337// 338// 341//
f 341// 338// 342//
f 331// 342// 338//
f 288// 290// 299//
f 288// 299// 338//
f 338// 299// 317//
f 338// 317// 331//
f 287// 288// 337//
f 337// 288// 338//
f 484// 509// 375//
f 375// 509// 413//
f 375// 413// 411//
f 411// 413// 436//
f 411// 436// 447//
f 447// 436// 470//
f 447// 470// 468//
f 468// 470// 482//
f 468// 482// 480//
f 480// 482// 503//
f 480// 503// 486//
f 486// 503// 507//
f 486// 507// 476//
f 476// 507// 505//
f 476// 505// 472//
f 472// 505// 488//
f 472// 488// 451//
f 451// 488// 449//
f 451// 449// 421//
f 421// 449// 427//
f 421// 427// 415//
f 415// 427// 385//
f 415// 385// 335//
f 335// 385// 287//
f 335// 287// 336//
f 336// 287// 337//
f 336// 337// 411//
f 411// 337// 375//
f 415// 335// 416//
f 416// 335// 339//
f 415// 416// 422//
f 415// 422// 421//
f 421// 422// 452//
f 421// 452// 451//
f 451// 452// 473//
f 451// 473// 472//
f 472// 473// 477//
f 472// 477// 476//
f 476// 477// 487//
f 476// 487// 486//
f 486// 487// 481//
f 486// 481// 480//
f 480// 481// 469//
f 480// 469// 468//
f 468// 469// 448//
f 468// 448// 447//
f 447// 448// 412//
f 447// 412// 411//
f 336// 411// 340//
f 340// 411// 412//
f 335// 336// 339//
f 339// 336// 340//
f 995// 996// 998//
f 995// 998// 997//
f 997// 998// 1006//
f 997// 1006// 1005//
f 1005// 1006// 1022//
f 1005// 1022// 1021//
f 995// 985// 996//
f 996// 985// 986//
f 1019// 1020// 1004//
f 1019// 1004// 1003//
f 1003// 1004// 992//
f 1003// 992// 991//
f 991// 992// 986//
f 991// 986// 985//
f 1069// 1070// 1068//
f 1069// 1068// 1067//
f 1067// 1068// 1058//
f 1067// 1058// 1057//
f 1057// 1058// 1036//
f 1057// 1036// 1035//
f 1035// 1036// 1020//
f 1035// 1020// 1019//
f 1037// 1038// 1064//
f 1037// 1064// 1063//
f 1063// 1064// 1070//
f 1063// 1070// 1069//
f 1065// 1066// 1056//
f 1065// 1056// 1055//
f 1055// 1056// 1038//
f 1055// 1038// 1037//
f 1075// 1076// 1074//
f 1075// 1074// 1073//
f 1073// 1074// 1066//
f 1073// 1066// 1065//
f 1015// 1016// 1026//
f 1015// 1026// 1025//
f 1025// 1026// 1052//
f 1025// 1052// 1051//
f 1051// 1052// 1072//
f 1051// 1072// 1071//
f 1071// 1072// 1076//
f 1071// 1076// 1075//
f 981// 982// 984//
f 981// 984// 983//
f 983// 984// 988//
f 983// 988// 987//
f 987// 988// 1002//
f 987// 1002// 1001//
f 1001// 1002// 1016//
f 1001// 1016// 1015//
f 981// 989// 982//
f 982// 989// 990//
f 999// 1000// 994//
f 999// 994// 993//
f 993// 994// 990//
f 993// 990// 989//
f 1017// 1018// 1008//
f 1017// 1008// 1007//
f 1007// 1008// 1000//
f 1007// 1000// 999//
f 1061// 1062// 1060//
f 1061// 1060// 1059//
f 1059// 1060// 1050//
f 1059// 1050// 1049//
f 1049// 1050// 1032//
f 1049// 1032// 1031//
f 1031// 1032// 1018//
f 1031// 1018// 1017//
f 1010// 1012// 1014//
f 1010// 1014// 1013//
f 1013// 1014// 1030//
f 1013// 1030// 1029//
f 1029// 1030// 1048//
f 1029// 1048// 1047//
f 1047// 1048// 1054//
f 1047// 1054// 1053//
f 1053// 1054// 1062//
f 1053// 1062// 1061//
f 1010// 1009// 1012//
f 1012// 1009// 1011//
f 1045// 1046// 1044//
f 1045// 1044// 1043//
f 1043// 1044// 1040//
f 1043// 1040// 1039//
f 1039// 1040// 1028//
f 1039// 1028// 1027//
f 1027// 1028// 1011//
f 1027// 1011// 1009//
f 1021// 1022// 1024//
f 1021// 1024// 1023//
f 1023// 1024// 1034//
f 1023// 1034// 1033//
f 1033// 1034// 1042//
f 1033// 1042// 1041//
f 1041// 1042// 1046//
f 1041// 1046// 1045//
f 1017// 1007// 1001//
f 1047// 1053// 1073//
f 1001// 1007// 987//
f 1007// 999// 987//
f 987// 999// 993//
f 987// 993// 983//
f 983// 993// 989//
f 983// 989// 981//
f 985// 995// 991//
f 991// 995// 997//
f 991// 997// 1003//
f 1003// 997// 1005//
f 1003// 1005// 1019//
f 1019// 1005// 1021//
f 1019// 1021// 1035//
f 1073// 1053// 1075//
f 1009// 1010// 1027//
f 1027// 1010// 1037//
f 1027// 1037// 1039//
f 1039// 1037// 1063//
f 1039// 1063// 1043//
f 1043// 1063// 1069//
f 1043// 1069// 1045//
f 1045// 1069// 1067//
f 1045// 1067// 1041//
f 1041// 1067// 1057//
f 1041// 1057// 1033//
f 1033// 1057// 1035//
f 1033// 1035// 1023//
f 1023// 1035// 1021//
f 1010// 1013// 1037//
f 1037// 1013// 1029//
f 1037// 1029// 1055//
f 1055// 1029// 1047//
f 1055// 1047// 1065//
f 1065// 1047// 1073//
f 1001// 1015// 1017//
f 1017// 1015// 1025//
f 1017// 1025// 1031//
f 1031// 1025// 1051//
f 1031// 1051// 1049//
f 1049// 1051// 1071//
f 1049// 1071// 1059//
f 1059// 1071// 1075//
f 1059// 1075// 1061//
f 1061// 1075// 1053//
f 194// 191// 193//
f 193// 191// 190//
f 193// 190// 192//
f 190// 205// 192//
f 192// 205// 206//
f 221// 222// 216//
f 221// 216// 215//
f 215// 216// 206//
f 215// 206// 205//
f 247// 248// 246//
f 247// 246// 245//
f 245// 246// 242//
f 245// 242// 241//
f 241// 242// 222//
f 241// 222// 221//
f 209// 210// 218//
f 209// 218// 217//
f 217// 218// 228//
f 217// 228// 227//
f 227// 228// 236//
f 227// 236// 235//
f 235// 236// 244//
f 235// 244// 243//
f 243// 244// 248//
f 243// 248// 247//
f 209// 249// 210//
f 210// 249// 250//
f 249// 237// 250//
f 250// 237// 238//
f 237// 203// 238//
f 238// 203// 204//
f 203// 197// 204//
f 204// 197// 201//
f 197// 198// 201//
f 201// 198// 202//
f 198// 191// 202//
f 202// 191// 194//
f 190// 191// 197//
f 197// 191// 198//
f 237// 249// 203//
f 203// 249// 209//
f 203// 209// 207//
f 207// 209// 217//
f 207// 217// 219//
f 219// 217// 227//
f 219// 227// 225//
f 225// 227// 235//
f 225// 235// 233//
f 233// 235// 243//
f 233// 243// 239//
f 239// 243// 247//
f 239// 247// 231//
f 231// 247// 245//
f 231// 245// 229//
f 229// 245// 241//
f 229// 241// 223//
f 223// 241// 221//
f 223// 221// 213//
f 213// 221// 215//
f 213// 215// 211//
f 211// 215// 205//
f 211// 205// 195//
f 195// 205// 190//
f 195// 190// 196//
f 196// 190// 197//
f 196// 197// 207//
f 207// 197// 203//
f 211// 195// 212//
f 212// 195// 199//
f 211// 212// 214//
f 211// 214// 213//
f 213// 214// 224//
f 213// 224// 223//
f 223// 224// 230//
f 223// 230// 229//
f 229// 230// 232//
f 229// 232// 231//
f 231// 232// 240//
f 231// 240// 239//
f 239// 240// 234//
f 239// 234// 233//
f 233// 234// 226//
f 233// 226// 225//
f 225// 226// 220//
f 225// 220// 219//
f 219// 220// 208//
f 219// 208// 207//
f 196// 207// 200//
f 200// 207// 208//
f 195// 196// 199//
f 199// 196// 200//
f 914// 906// 944//
f 944// 906// 881//
f 944// 881// 859//
f 936// 930// 944//
f 944// 930// 924//
f 944// 924// 914//
f 371// 372// 434//
f 434// 372// 430//
f 434// 430// 457//
f 457// 430// 454//
f 457// 454// 475//
f 498// 492// 496//
f 496// 492// 475//
f 496// 475// 479//
f 479// 475// 454//
f 561// 553// 554//
f 629// 647// 604//
f 604// 647// 653//
f 561// 554// 589//
f 589// 554// 569//
f 589// 569// 602//
f 602// 569// 604//
f 602// 604// 619//
f 619// 604// 653//
f 619// 653// 643//
f 473// 452// 422//
f 339// 340// 416//
f 416// 340// 412//
f 416// 412// 422//
f 448// 469// 481//
f 422// 412// 473//
f 473// 412// 448//
f 473// 448// 477//
f 477// 448// 481//
f 477// 481// 487//
f 230// 224// 214//
f 199// 200// 212//
f 212// 200// 208//
f 212// 208// 214//
f 220// 226// 234//
f 214// 208// 230//
f 230// 208// 220//
f 230// 220// 232//
f 232// 220// 234//
f 232// 234// 240//
f 1252// 1249// 1245//
f 1252// 1245// 1247//
f 1247// 1245// 1230//
f 1247// 1230// 1232//
f 1232// 1230// 1199//
f 1232// 1199// 1206//
f 1207// 1200// 1231//
f 1207// 1231// 1233//
f 1233// 1231// 1246//
f 1233// 1246// 1248//
f 1248// 1246// 1251//
f 1248// 1251// 1253//
f 5// 3// 7//
f 5// 7// 9//
f 9// 7// 22//
f 9// 22// 24//
f 24// 22// 54//
f 24// 54// 61//
f 60// 53// 21//
f 60// 21// 23//
f 23// 21// 6//
f 23// 6// 8//
f 8// 6// 1//
f 8// 1// 4//
f 1209// 1207// 1233//
f 1209// 1233// 1229//
f 1229// 1233// 1248//
f 1229// 1248// 1235//
f 1235// 1248// 1253//
f 1235// 1253// 1244//
f 1236// 1237// 1252//
f 1252// 1237// 1238//
f 1241// 1253// 1240//
f 1240// 1253// 1252//
f 1240// 1252// 1239//
f 1239// 1252// 1238//
f 1241// 1242// 1253//
f 1253// 1242// 1243//
f 1253// 1243// 1244//
f 1209// 1100// 1207//
f 1207// 1100// 980//
f 1207// 980// 962//
f 189// 63// 61//
f 962// 896// 1207//
f 1207// 896// 873//
f 1207// 873// 61//
f 61// 873// 790//
f 61// 790// 737//
f 320// 302// 61//
f 61// 302// 260//
f 61// 260// 189//
f 737// 718// 61//
f 61// 718// 675//
f 61// 675// 640//
f 640// 528// 61//
f 61// 528// 334//
f 61// 334// 320//
f 1236// 1252// 1247//
f 1236// 1247// 1234//
f 1234// 1247// 1232//
f 1234// 1232// 1228//
f 1228// 1232// 1206//
f 1228// 1206// 1208//
f 18// 5// 9//
f 18// 9// 20//
f 20// 9// 24//
f 20// 24// 34//
f 34// 24// 61//
f 34// 61// 63//
f 62// 180// 60//
f 60// 180// 251//
f 251// 291// 60//
f 60// 291// 308//
f 60// 308// 1206//
f 1206// 308// 323//
f 1206// 323// 520//
f 1208// 1206// 1091//
f 1091// 1206// 971//
f 520// 632// 1206//
f 1206// 632// 667//
f 1206// 667// 710//
f 710// 729// 1206//
f 1206// 729// 778//
f 1206// 778// 860//
f 860// 882// 1206//
f 1206// 882// 953//
f 1206// 953// 971//
f 18// 17// 5//
f 5// 17// 16//
f 16// 15// 5//
f 5// 15// 14//
f 5// 14// 4//
f 4// 14// 13//
f 13// 12// 4//
f 4// 12// 11//
f 4// 11// 10//
f 62// 60// 23//
f 62// 23// 33//
f 33// 23// 8//
f 33// 8// 19//
f 19// 8// 4//
f 19// 4// 10//
f 1178// 1182// 1190//
f 1190// 1182// 1194//
f 1190// 1194// 1217//
f 1217// 1194// 1221//
f 1217// 1221// 1224//
f 1224// 1221// 1226//
f 1224// 1226// 1216//
f 1216// 1226// 1220//
f 1216// 1220// 1189//
f 1189// 1220// 1193//
f 1189// 1193// 1177//
f 1177// 1193// 1181//
f 1177// 1181// 1167//
f 1167// 1181// 1171//
f 1167// 1171// 1155//
f 1155// 1171// 1159//
f 1155// 1159// 1151//
f 1151// 1159// 1153//
f 1151// 1153// 1156//
f 1156// 1153// 1160//
f 1156// 1160// 1168//
f 1168// 1160// 1172//
f 1168// 1172// 1178//
f 1178// 1172// 1182//
f 1180// 1184// 1192//
f 1192// 1184// 1196//
f 1192// 1196// 1219//
f 1219// 1196// 1223//
f 1219// 1223// 1225//
f 1225// 1223// 1227//
f 1225// 1227// 1218//
f 1218// 1227// 1222//
f 1218// 1222// 1191//
f 1191// 1222// 1195//
f 1191// 1195// 1179//
f 1179// 1195// 1183//
f 1179// 1183// 1169//
f 1169// 1183// 1173//
f 1169// 1173// 1157//
f 1157// 1173// 1161//
f 1157// 1161// 1152//
f 1152// 1161// 1154//
f 1152// 1154// 1158//
f 1158// 1154// 1162//
f 1158// 1162// 1170//
f 1170// 1162// 1174//
f 1170// 1174// 1180//
f 1180// 1174// 1184//
f 81// 85// 91//
f 91// 85// 95//
f 91// 95// 103//
f 103// 95// 107//
f 103// 107// 109//
f 109// 107// 111//
f 109// 111// 102//
f 102// 111// 106//
f 102// 106// 90//
f 90// 106// 94//
f 90// 94// 80//
f 80// 94// 84//
f 80// 84// 68//
f 68// 84// 72//
f 68// 72// 41//
f 41// 72// 45//
f 41// 45// 36//
f 36// 45// 38//
f 36// 38// 42//
f 42// 38// 46//
f 42// 46// 69//
f 69// 46// 73//
f 69// 73// 81//
f 81// 73// 85//
f 79// 83// 89//
f 89// 83// 93//
f 89// 93// 101//
f 101// 93// 105//
f 101// 105// 108//
f 108// 105// 110//
f 108// 110// 100//
f 100// 110// 104//
f 100// 104// 88//
f 88// 104// 92//
f 88// 92// 78//
f 78// 92// 82//
f 78// 82// 66//
f 66// 82// 70//
f 66// 70// 39//
f 39// 70// 43//
f 39// 43// 35//
f 35// 43// 37//
f 35// 37// 40//
f 40// 37// 44//
f 40// 44// 67//
f 67// 44// 71//
f 67// 71// 79//
f 79// 71// 83//
f 611// 583// 544//
f 544// 583// 533//
f 544// 533// 515//
f 515// 533// 464//
f 515// 464// 455//
f 455// 464// 399//
f 455// 399// 435//
f 435// 399// 355//
f 435// 355// 426//
f 426// 355// 321//
f 426// 321// 444//
f 766// 839// 791//
f 791// 839// 876//
f 791// 876// 775//
f 775// 876// 838//
f 775// 838// 749//
f 749// 838// 804//
f 749// 804// 701//
f 701// 804// 743//
f 701// 743// 611//
f 611// 743// 677//
f 611// 677// 583//
f 321// 356// 444//
f 444// 356// 400//
f 444// 400// 490//
f 490// 400// 465//
f 490// 465// 537//
f 537// 465// 534//
f 537// 534// 584//
f 584// 534// 585//
f 584// 585// 654//
f 654// 585// 678//
f 654// 678// 738//
f 738// 678// 744//
f 738// 744// 766//
f 766// 744// 805//
f 766// 805// 839//
f 585// 596// 678//
f 678// 596// 641//
f 641// 676// 678//
f 678// 676// 680//
f 678// 680// 744//
f 744// 680// 746//
f 744// 746// 805//
f 805// 746// 807//
f 805// 807// 839//
f 839// 807// 841//
f 839// 841// 876//
f 876// 841// 877//
f 876// 877// 838//
f 838// 877// 840//
f 838// 840// 804//
f 804// 840// 806//
f 804// 806// 743//
f 743// 806// 745//
f 743// 745// 677//
f 677// 745// 679//
f 677// 679// 583//
f 583// 679// 586//
f 583// 586// 533//
f 533// 586// 535//
f 533// 535// 464//
f 464// 535// 466//
f 464// 466// 399//
f 399// 466// 401//
f 399// 401// 355//
f 355// 401// 357//
f 355// 357// 321//
f 321// 357// 322//
f 321// 322// 356//
f 356// 322// 358//
f 356// 358// 400//
f 400// 358// 402//
f 400// 402// 465//
f 465// 402// 467//
f 465// 467// 534//
f 534// 467// 536//
f 534// 536// 585//
f 585// 536// 587//
f 585// 587// 596//
f 819// 823// 833//
f 833// 823// 837//
f 833// 837// 845//
f 845// 837// 849//
f 845// 849// 853//
f 853// 849// 855//
f 853// 855// 844//
f 844// 855// 848//
f 844// 848// 832//
f 832// 848// 836//
f 832// 836// 818//
f 818// 836// 822//
f 818// 822// 810//
f 810// 822// 814//
f 810// 814// 798//
f 798// 814// 802//
f 798// 802// 793//
f 793// 802// 795//
f 793// 795// 799//
f 799// 795// 803//
f 799// 803// 811//
f 811// 803// 815//
f 811// 815// 819//
f 819// 815// 823//
f 380// 384// 392//
f 392// 384// 396//
f 392// 396// 406//
f 406// 396// 410//
f 406// 410// 418//
f 418// 410// 420//
f 418// 420// 405//
f 405// 420// 409//
f 405// 409// 391//
f 391// 409// 395//
f 391// 395// 379//
f 379// 395// 383//
f 379// 383// 361//
f 361// 383// 365//
f 361// 365// 349//
f 349// 365// 353//
f 349// 353// 344//
f 344// 353// 346//
f 344// 346// 350//
f 350// 346// 354//
f 350// 354// 362//
f 362// 354// 366//
f 362// 366// 380//
f 380// 366// 384//
f 378// 382// 390//
f 390// 382// 394//
f 390// 394// 404//
f 404// 394// 408//
f 404// 408// 417//
f 417// 408// 419//
f 417// 419// 403//
f 403// 419// 407//
f 403// 407// 389//
f 389// 407// 393//
f 389// 393// 377//
f 377// 393// 381//
f 377// 381// 359//
f 359// 381// 363//
f 359// 363// 347//
f 347// 363// 351//
f 347// 351// 343//
f 343// 351// 345//
f 343// 345// 348//
f 348// 345// 352//
f 348// 352// 360//
f 360// 352// 364//
f 360// 364// 378//
f 378// 364// 382//
f 817// 821// 831//
f 831// 821// 835//
f 831// 835// 843//
f 843// 835// 847//
f 843// 847// 852//
f 852// 847// 854//
f 852// 854// 842//
f 842// 854// 846//
f 842// 846// 830//
f 830// 846// 834//
f 830// 834// 816//
f 816// 834// 820//
f 816// 820// 808//
f 808// 820// 812//
f 808// 812// 796//
f 796// 812// 800//
f 796// 800// 792//
f 792// 800// 794//
f 792// 794// 797//
f 797// 794// 801//
f 797// 801// 809//
f 809// 801// 813//
f 809// 813// 817//
f 817// 813// 821//
f 649// 654// 728//
f 728// 654// 738//
f 728// 738// 765//
f 765// 738// 766//
f 765// 766// 777//
f 777// 766// 791//
f 777// 791// 774//
f 774// 791// 775//
f 774// 775// 748//
f 748// 775// 749//
f 748// 749// 700//
f 700// 749// 701//
f 700// 701// 606//
f 606// 701// 611//
f 606// 611// 546//
f 546// 611// 544//
f 546// 544// 519//
f 519// 544// 515//
f 519// 515// 461//
f 461// 515// 455//
f 461// 455// 441//
f 441// 455// 435//
f 441// 435// 432//
f 432// 435// 426//
f 432// 426// 446//
f 446// 426// 444//
f 446// 444// 494//
f 494// 444// 490//
f 494// 490// 539//
f 539// 490// 537//
f 539// 537// 582//
f 582// 537// 584//
f 582// 584// 649//
f 649// 584// 654//
f 391// 379// 424//
f 844// 832// 773//
f 773// 832// 818//
f 773// 818// 776//
f 518// 460// 424//
f 581// 810// 798//
f 798// 793// 581//
f 581// 793// 799//
f 581// 799// 538//
f 581// 648// 810//
f 810// 648// 727//
f 810// 727// 818//
f 818// 727// 764//
f 818// 764// 776//
f 460// 440// 424//
f 424// 440// 431//
f 424// 431// 425//
f 425// 431// 445//
f 425// 445// 493//
f 1114// 1104// 1088//
f 811// 819// 1126//
f 1126// 819// 833//
f 1126// 833// 1132//
f 1132// 833// 845//
f 1132// 845// 1142//
f 1142// 845// 1150//
f 773// 747// 1204//
f 799// 811// 538//
f 538// 811// 1126//
f 538// 1126// 493//
f 493// 1126// 1113//
f 493// 1113// 425//
f 425// 1113// 1114//
f 425// 1114// 1084//
f 1084// 1114// 1088//
f 844// 773// 853//
f 853// 773// 1204//
f 853// 1204// 845//
f 747// 699// 1204//
f 1204// 699// 605//
f 1204// 605// 424//
f 424// 605// 545//
f 424// 545// 518//
f 1166// 1150// 1188//
f 1188// 1150// 845//
f 1188// 845// 1205//
f 1205// 845// 1204//
f 830// 816// 423//
f 831// 1204// 817//
f 817// 1204// 424//
f 817// 424// 809//
f 809// 424// 797//
f 816// 808// 423//
f 423// 808// 796//
f 423// 796// 424//
f 424// 796// 792//
f 424// 792// 797//
f 1149// 1165// 1187//
f 831// 843// 1204//
f 1204// 843// 852//
f 1204// 852// 1131//
f 1131// 852// 842//
f 1131// 842// 1125//
f 1125// 842// 830//
f 1125// 830// 1112//
f 1112// 830// 1111//
f 1131// 1141// 1204//
f 1204// 1141// 1149//
f 1204// 1149// 1203//
f 1203// 1149// 1187//
f 1103// 1111// 1087//
f 1087// 1111// 830//
f 1087// 830// 1083//
f 1083// 830// 423//
f 162// 169// 178//
f 424// 378// 390//
f 403// 423// 417//
f 417// 423// 424//
f 417// 424// 404//
f 404// 424// 390//
f 343// 348// 58//
f 58// 348// 360//
f 58// 360// 378//
f 76// 98// 57//
f 57// 98// 118//
f 57// 118// 126//
f 359// 347// 132//
f 132// 347// 343//
f 132// 343// 126//
f 126// 343// 58//
f 126// 58// 57//
f 132// 138// 359//
f 359// 138// 154//
f 359// 154// 153//
f 153// 162// 359//
f 359// 162// 178//
f 359// 178// 377//
f 377// 178// 423//
f 377// 423// 389//
f 389// 423// 403//
f 378// 424// 58//
f 58// 424// 379//
f 58// 379// 361//
f 380// 392// 425//
f 156// 155// 362//
f 362// 155// 139//
f 362// 139// 350//
f 350// 139// 133//
f 380// 425// 362//
f 392// 406// 425//
f 425// 406// 418//
f 425// 418// 424//
f 424// 418// 405//
f 424// 405// 391//
f 163// 156// 170//
f 170// 156// 362//
f 170// 362// 179//
f 179// 362// 425//
f 133// 127// 350//
f 350// 127// 119//
f 350// 119// 99//
f 361// 349// 58//
f 58// 349// 344//
f 58// 344// 59//
f 59// 344// 350//
f 59// 350// 77//
f 77// 350// 99//
f 151// 155// 152//
f 152// 155// 156//
f 1084// 1082// 425//
f 425// 1082// 177//
f 425// 177// 179//
f 1110// 1114// 1109//
f 1109// 1114// 1113//
f 1140// 1142// 1148//
f 1148// 1142// 1150//
f 1203// 1201// 1204//
f 1204// 1201// 1202//
f 1204// 1202// 1205//
f 1147// 1149// 1139//
f 1139// 1149// 1141//
f 1108// 1112// 1107//
f 1107// 1112// 1111//
f 178// 176// 423//
f 423// 176// 1081//
f 423// 1081// 1083//
f 149// 153// 150//
f 150// 153// 154//
f 124// 126// 116//
f 116// 126// 118//
f 59// 56// 58//
f 58// 56// 55//
f 58// 55// 57//
f 117// 119// 125//
f 125// 119// 127//
f 1082// 1084// 1086//
f 1086// 1084// 1088//
f 1086// 1088// 1102//
f 1102// 1088// 1104//
f 1102// 1104// 1110//
f 1110// 1104// 1114//
f 1142// 1140// 1130//
f 1142// 1130// 1132//
f 1132// 1130// 1124//
f 1132// 1124// 1126//
f 1126// 1124// 1109//
f 1126// 1109// 1113//
f 1148// 1150// 1164//
f 1164// 1150// 1166//
f 1164// 1166// 1186//
f 1186// 1166// 1188//
f 1186// 1188// 1202//
f 1202// 1188// 1205//
f 1201// 1203// 1185//
f 1185// 1203// 1187//
f 1185// 1187// 1163//
f 1163// 1187// 1165//
f 1163// 1165// 1147//
f 1147// 1165// 1149//
f 1112// 1108// 1123//
f 1112// 1123// 1125//
f 1125// 1123// 1129//
f 1125// 1129// 1131//
f 1131// 1129// 1139//
f 1131// 1139// 1141//
f 1107// 1111// 1101//
f 1101// 1111// 1103//
f 1101// 1103// 1085//
f 1085// 1103// 1087//
f 1085// 1087// 1081//
f 1081// 1087// 1083//
f 176// 178// 167//
f 167// 178// 169//
f 167// 169// 160//
f 160// 169// 162//
f 160// 162// 149//
f 149// 162// 153//
f 126// 124// 130//
f 126// 130// 132//
f 132// 130// 136//
f 132// 136// 138//
f 138// 136// 150//
f 138// 150// 154//
f 116// 118// 96//
f 96// 118// 98//
f 96// 98// 74//
f 74// 98// 76//
f 74// 76// 55//
f 55// 76// 57//
f 56// 59// 75//
f 75// 59// 77//
f 75// 77// 97//
f 97// 77// 99//
f 97// 99// 117//
f 117// 99// 119//
f 155// 151// 137//
f 155// 137// 139//
f 139// 137// 131//
f 139// 131// 133//
f 133// 131// 125//
f 133// 125// 127//
f 152// 156// 161//
f 161// 156// 163//
f 161// 163// 168//
f 168// 163// 170//
f 168// 170// 177//
f 177// 170// 179//
f 1081// 1078// 1085//
f 1085// 1078// 1089//
f 1085// 1089// 1101//
f 1101// 1089// 1105//
f 1101// 1105// 1107//
f 1107// 1105// 1117//
f 1077// 1081// 579//
f 579// 1081// 176//
f 579// 176// 174//
f 1121// 1108// 1122//
f 1122// 1108// 1107//
f 149// 148// 160//
f 160// 148// 159//
f 160// 159// 167//
f 167// 159// 166//
f 167// 166// 176//
f 176// 166// 175//
f 1137// 1139// 1129//
f 1137// 1129// 1133//
f 1133// 1129// 1123//
f 1133// 1123// 1127//
f 1127// 1123// 1108//
f 1127// 1108// 1118//
f 150// 144// 149//
f 149// 144// 147//
f 1143// 1147// 1135//
f 1135// 1147// 1139//
f 141// 150// 136//
f 141// 136// 134//
f 134// 136// 130//
f 134// 130// 128//
f 128// 130// 124//
f 128// 124// 120//
f 1147// 1145// 1163//
f 1163// 1145// 1175//
f 1163// 1175// 1185//
f 1185// 1175// 1197//
f 1185// 1197// 1201//
f 1201// 1197// 1210//
f 116// 114// 124//
f 124// 114// 122//
f 1215// 1202// 1214//
f 1214// 1202// 1201//
f 1214// 1201// 1213//
f 55// 47// 74//
f 74// 47// 64//
f 74// 64// 96//
f 96// 64// 86//
f 96// 86// 116//
f 116// 86// 112//
f 1202// 1212// 1186//
f 1186// 1212// 1198//
f 1186// 1198// 1164//
f 1164// 1198// 1176//
f 1164// 1176// 1148//
f 1148// 1176// 1146//
f 50// 55// 51//
f 51// 55// 56//
f 51// 56// 52//
f 1136// 1140// 1144//
f 1144// 1140// 1148//
f 117// 113// 97//
f 97// 113// 87//
f 97// 87// 75//
f 75// 87// 65//
f 75// 65// 56//
f 56// 65// 49//
f 1119// 1109// 1124//
f 1119// 1124// 1128//
f 1128// 1124// 1130//
f 1128// 1130// 1134//
f 1134// 1130// 1140//
f 1134// 1140// 1138//
f 125// 123// 117//
f 117// 123// 115//
f 1115// 1110// 1116//
f 1116// 1110// 1109//
f 121// 125// 131//
f 121// 131// 129//
f 129// 131// 137//
f 129// 137// 135//
f 135// 137// 151//
f 135// 151// 142//
f 1110// 1120// 1102//
f 1102// 1120// 1106//
f 1102// 1106// 1086//
f 1086// 1106// 1090//
f 1086// 1090// 1082//
f 1082// 1090// 1079//
f 152// 145// 151//
f 151// 145// 146//
f 173// 177// 580//
f 580// 177// 1082//
f 580// 1082// 1080//
f 177// 172// 168//
f 168// 172// 165//
f 168// 165// 161//
f 161// 165// 158//
f 161// 158// 152//
f 152// 158// 143//
