# File generated by ImageToStl.com - Free Image and 3D model conversion tools

o obj1
v 36.13960266 47.02428436 -8.40282059
v 39.15779877 40.75189209 -8.40282059
v 38.7306633 40.32475662 -8.40282059
v 36.92064667 19.79751587 -8.40282059
v 36.55583954 19.79751587 -8.40282059
v 37.21722794 21.62752533 -8.40282059
v 12.79521275 21.62752533 -8.40282059
v 13.45660114 19.79751587 -8.40282059
v 13.09179497 19.79751587 -8.40282059
v 10.27116394 11.43812084 -8.40282059
v 9.10420704 39.74127579 -8.40282059
v 10.85464287 11.28177738 -8.40282059
v 11.28177738 10.85464287 -8.40282059
v 12.41781044 23.57226562 -8.40282059
v 22.17542267 12.31485844 -8.40282059
v 23.58225822 12.08118916 -8.40282059
v 11.43812084 10.27116394 -8.40282059
v 40.75189209 10.85464287 -8.40282059
v 46.44681931 12.79769993 -8.40282059
v 40.90823364 10.27116394 -8.40282059
v 44.19654083 9.49883747 -8.40282059
v 40.75189209 9.68768501 -8.40282059
v 39.15779877 38.7306633 -8.40282059
v 39.74127579 11.43812084 -8.40282059
v 38.7306633 39.15779877 -8.40282059
v 38.57431793 39.74127579 -8.40282059
v 32.04399872 48.3647728 -8.40282059
v 32.14432144 48.48295593 -8.40282059
v 32.00796127 48.21400452 -8.40282059
v 32.28723907 48.54299545 -8.40282059
v 32.4418602 48.53192139 -8.40282059
v 35.627285 34.54769135 -8.40282059
v 34.81506729 35.90095139 -8.40282059
v 33.86431122 37.16605759 -8.40282059
v 10.85464287 38.7306633 -8.40282059
v 13.90115356 33.56352234 -8.40282059
v 10.27116394 38.57431793 -8.40282059
v 13.30344391 32.04850388 -8.40282059
v 11.43812084 39.74127579 -8.40282059
v 11.28177738 40.32475662 -8.40282059
v 18.00447845 48.21400452 -8.40282059
v 10.85464287 40.75189209 -8.40282059
v 17.57058144 48.53192139 -8.40282059
v 17.72520256 48.54299545 -8.40282059
v 17.86812019 48.48295593 -8.40282059
v 39.15779877 11.28177738 -8.40282059
v 35.8597908 17.84492683 -8.40282059
v 30.53202629 13.23551273 -8.40282059
v 31.78778648 13.91142464 -8.40282059
v 38.57431793 10.27116394 -8.40282059
v 49.46928787 28.21644783 -8.40282059
v 49.66674805 24.22805405 -8.40282059
v 40.32475662 38.7306633 -8.40282059
v 39.74127579 40.90823364 -8.40282059
v 39.54570389 44.93988037 -8.40282059
v 40.32475662 40.75189209 -8.40282059
v 42.5709343 42.33330917 -8.40282059
v 40.75189209 40.32475662 -8.40282059
v 32.00796127 38.99300385 -8.40282059
v 32.97937775 38.12517166 -8.40282059
v 18.00447845 38.99300385 -8.40282059
v 16.48493576 37.55260086 -8.40282059
v 11.28177738 39.15779877 -8.40282059
v 15.49798298 36.33218384 -8.40282059
v 14.64457226 35.01438141 -8.40282059
v 17.96844292 48.3647728 -8.40282059
v 13.87283993 47.02428436 -8.40282059
v 10.46673965 44.93988037 -8.40282059
v 10.27116394 40.90823364 -8.40282059
v 7.441504 42.33330917 -8.40282059
v 37.5946312 23.57226562 -8.40282059
v 36.57873917 19.07655144 -8.40282059
v 38.7306633 10.85464287 -8.40282059
v 40.32475662 9.26054955 -8.40282059
v 41.44356537 6.6061945 -8.40282059
v 39.74127579 9.10420704 -8.40282059
v 38.26000977 4.19554186 -8.40282059
v 39.15779877 9.26054955 -8.40282059
v 34.72927094 2.33003235 -8.40282059
v 38.7306633 9.68768501 -8.40282059
v 30.9438324 1.05852687 -8.40282059
v 27.00285912 0.41433874 -8.40282059
v 39.74127579 38.57431793 -8.40282059
v 37.29371262 29.89884377 -8.40282059
v 36.87852478 31.52415848 -8.40282059
v 36.3246994 33.06952667 -8.40282059
v 12.83916759 30.44023132 -8.40282059
v 12.52616405 28.79787636 -8.40282059
v 12.36426258 27.1606884 -8.40282059
v 32.96197128 14.72078896 -8.40282059
v 34.04046631 15.65386772 -8.40282059
v 35.01029587 16.69944 -8.40282059
v 14.15264988 17.84492683 -8.40282059
v 15.00214672 16.69944 -8.40282059
v 18.22465515 13.91142464 -8.40282059
v 19.48041344 13.23551273 -8.40282059
v 20.8026371 12.70118141 -8.40282059
v 25.00621986 12.002985 -8.40282059
v 26.43018341 12.08118916 -8.40282059
v 0.79421729 20.26004791 -8.40282059
v 9.68768501 11.28177738 -8.40282059
v 1.87698162 16.41636848 -8.40282059
v 9.26054955 10.85464287 -8.40282059
v 3.56562066 12.79769993 -8.40282059
v 9.10420704 10.27116394 -8.40282059
v 5.81590128 9.49883747 -8.40282059
v 9.26054955 9.68768501 -8.40282059
v 8.56887627 6.6061945 -8.40282059
v 9.68768501 9.26054955 -8.40282059
v 11.75242996 4.19554186 -8.40282059
v 10.27116394 9.10420704 -8.40282059
v 15.28316975 2.33003235 -8.40282059
v 10.85464287 9.26054955 -8.40282059
v 19.06860924 1.05852687 -8.40282059
v 11.28177738 9.68768501 -8.40282059
v 23.00958252 0.41433874 -8.40282059
v 40.32475662 11.28177738 -8.40282059
v 49.21822357 20.26004791 -8.40282059
v 48.1354599 16.41636848 -8.40282059
v 40.90823364 39.74127579 -8.40282059
v 45.13605881 39.27285385 -8.40282059
v 40.75189209 39.15779877 -8.40282059
v 47.17388153 35.83868027 -8.40282059
v 48.63101196 32.12074661 -8.40282059
v 9.26054955 39.15779877 -8.40282059
v 9.68768501 38.7306633 -8.40282059
v 12.34669495 25.51682281 -8.40282059
v 0.34569222 24.22805405 -8.40282059
v 0.54315239 28.21644783 -8.40282059
v 27.83701897 12.31485844 -8.40282059
v 29.20980453 12.70118141 -8.40282059
v 9.68768501 40.75189209 -8.40282059
v 9.26054955 40.32475662 -8.40282059
v 4.87637997 39.27285385 -8.40282059
v 2.83856082 35.83868027 -8.40282059
v 1.38142896 32.12074661 -8.40282059
v 13.43370342 19.07655144 -8.40282059
v 15.97197437 15.65386772 -8.40282059
v 17.05046844 14.72078896 -8.40282059
v 37.6657486 25.51682281 -8.40282059
v 37.6613121 26.88185501 -8.40282059
v 37.55774689 28.24113655 -8.40282059
v 18.33789635 48.21400452 -8.06940365
v 18.33789635 48.21400452 -5.0686574
v 18.33789635 39.09765244 -8.06940365
v 18.33789635 39.23024368 -5.0686574
v 18.33789635 35.77923203 -0.95175231
v 18.33789635 36.91622925 -0.42165485
v 18.33789635 36.91622925 -0.0674136
v 18.33789635 39.23024368 -0.0674136
v 31.67454529 48.21400452 -5.0686574
v 31.67454529 48.21400452 -8.06940365
v 31.67454529 39.23024368 -5.0686574
v 31.67454529 39.09765244 -8.06940365
v 31.67454529 36.91622925 -0.0674136
v 31.67454529 39.23024368 -0.0674136
v 31.67454529 36.91622925 -0.42165485
v 31.67454529 35.77923203 -0.95175231
v 12.33640575 25.01584625 -6.02017498
v 12.79521275 21.62752533 -7.54962587
v 12.41781044 23.57226562 -6.64293957
v 12.33640194 25.00621986 -5.97439432
v 37.5946312 23.57226562 -6.64293957
v 37.67603683 25.00621986 -5.97439432
v 37.67603683 25.01584625 -6.02017498
v 37.21722794 21.62752533 -7.54962587
v 35.19705582 37.77561188 -0.0674136
v 32.49419403 39.526577 -0.0674136
v 31.97091675 39.7847023 -0.0674136
v 31.7599678 39.55678177 -0.0674136
v 31.03612709 36.25000381 -0.0674136
v 32.74695587 10.61901951 -0.0674136
v 35.41878891 12.41698074 -0.0674136
v 18.25247383 39.55678177 -0.0674136
v 18.04152489 39.7847023 -0.0674136
v 17.5182457 39.526577 -0.0674136
v 41.27752686 23.53820419 -0.0674136
v 41.24937057 26.75853729 -0.0674136
v 31.3574028 36.34844208 -0.0674136
v 40.59004974 29.91078568 -0.0674136
v 31.58988571 36.59105301 -0.0674136
v 39.3251915 32.87245178 -0.0674136
v 37.50393677 35.52846527 -0.0674136
v 37.6860199 14.7041235 -0.0674136
v 39.46055222 17.39157486 -0.0674136
v 40.6734314 20.37490845 -0.0674136
v 20.23810005 9.38010216 -0.0674136
v 19.30480194 36.3207283 -0.0674136
v 17.26548386 10.61901951 -0.0674136
v 18.97631264 36.25000381 -0.0674136
v 14.59365177 12.41698074 -0.0674136
v 12.32642078 14.7041235 -0.0674136
v 26.94618034 37.52663803 -0.0674136
v 25.00621986 37.67603683 -0.0674136
v 26.61644936 8.74836922 -0.0674136
v 23.06625938 37.52663803 -0.0674136
v 8.76307011 26.75853729 -0.0674136
v 8.73491192 23.53820419 -0.0674136
v 18.65503693 36.34844208 -0.0674136
v 9.33900928 20.37490845 -0.0674136
v 10.55188751 17.39157486 -0.0674136
v 14.81538296 37.77561188 -0.0674136
v 12.50850391 35.52846527 -0.0674136
v 18.42255402 36.59105301 -0.0674136
v 10.68725014 32.87245178 -0.0674136
v 9.42238903 29.91078568 -0.0674136
v 29.77434158 9.38010216 -0.0674136
v 30.70763779 36.3207283 -0.0674136
v 28.8741951 37.07117081 -0.0674136
v 23.39599037 8.74836922 -0.0674136
v 21.13824654 37.07117081 -0.0674136
v 32.54233932 48.84983826 -8.06940365
v 32.54233932 48.84983826 -5.0686574
v 36.29005051 47.32182312 -5.0686574
v 36.29005051 47.32182312 -8.06940365
v 39.74217987 45.20925522 -5.0686574
v 39.74217987 45.20925522 -8.06940365
v 42.80830002 42.56745911 -5.0686574
v 42.80830002 42.56745911 -8.06940365
v 45.40808487 39.46564484 -5.0686574
v 45.40808487 39.46564484 -8.06940365
v 47.47344589 35.98506165 -5.0686574
v 47.47344589 35.98506165 -8.06940365
v 48.95026779 32.21688843 -5.0686574
v 48.95026779 32.21688843 -8.06940365
v 49.79986954 28.25982857 -5.0686574
v 49.79986954 28.25982857 -8.06940365
v 50 24.21753883 -5.0686574
v 50 24.21753883 -8.06940365
v 49.54541016 20.19591141 -5.0686574
v 49.54541016 20.19591141 -8.06940365
v 48.44801712 16.30028725 -5.0686574
v 48.44801712 16.30028725 -8.06940365
v 46.73655701 12.63271999 -5.0686574
v 46.73655701 12.63271999 -8.06940365
v 44.45586777 9.28927803 -5.0686574
v 44.45586777 9.28927803 -8.06940365
v 41.66569138 6.3575449 -5.0686574
v 41.66569138 6.3575449 -8.06940365
v 38.43911362 3.91431785 -5.0686574
v 38.43911362 3.91431785 -8.06940365
v 34.86066437 2.02359509 -5.0686574
v 34.86066437 2.02359509 -8.06940365
v 31.02407074 0.73491079 -5.0686574
v 31.02407074 0.73491079 -8.06940365
v 27.02984047 0.0820159 -5.0686574
v 27.02984047 0.0820159 -8.06940365
v 22.98260117 0.0820159 -5.0686574
v 22.98260117 0.0820159 -8.06940365
v 18.9883709 0.73491079 -5.0686574
v 18.9883709 0.73491079 -8.06940365
v 15.15177822 2.02359509 -5.0686574
v 15.15177822 2.02359509 -8.06940365
v 11.57332611 3.91431785 -5.0686574
v 11.57332611 3.91431785 -8.06940365
v 8.34674931 6.3575449 -5.0686574
v 8.34674931 6.3575449 -8.06940365
v 5.55657339 9.28927803 -5.0686574
v 5.55657339 9.28927803 -8.06940365
v 3.27588272 12.63271999 -5.0686574
v 3.27588272 12.63271999 -8.06940365
v 1.5644244 16.30028725 -5.0686574
v 1.5644244 16.30028725 -8.06940365
v 0.46702901 20.19591141 -5.0686574
v 0.46702901 20.19591141 -8.06940365
v 0.01244028 24.21753883 -5.0686574
v 0.01244028 24.21753883 -8.06940365
v 0.21257041 28.25982857 -5.0686574
v 0.21257041 28.25982857 -8.06940365
v 1.0621748 32.21688843 -5.0686574
v 1.0621748 32.21688843 -8.06940365
v 2.53899884 35.98506165 -5.0686574
v 2.53899884 35.98506165 -8.06940365
v 4.60435486 39.46564484 -5.0686574
v 4.60435486 39.46564484 -8.06940365
v 7.20414352 42.56745911 -5.0686574
v 7.20414352 42.56745911 -8.06940365
v 10.27025986 45.20925522 -5.0686574
v 10.27025986 45.20925522 -8.06940365
v 13.72238922 47.32182312 -5.0686574
v 13.72238922 47.32182312 -8.06940365
v 17.4700985 48.84983826 -5.0686574
v 17.4700985 48.84983826 -8.06940365
v 23.06625938 37.52663803 -0.13706806
v 21.13824654 37.07117081 -0.34941661
v 19.30480194 36.3207283 -0.69929165
v 14.4309473 18.0285511 -8.73623562
v 13.80656147 19.08237648 -8.73623562
v 15.25866127 16.91243362 -9.74791718
v 36.20587921 19.08237648 -8.73623562
v 35.58149338 18.0285511 -8.73623562
v 34.75378036 16.91243362 -9.74791718
v 34.75378036 16.91243362 -8.73623562
v 32.75798035 14.98451805 -10.64675808
v 33.80881882 15.89367199 -8.73623562
v 32.75798035 14.98451805 -8.73623562
v 31.61389923 14.19590664 -8.73623562
v 30.39034081 13.53732586 -11.32147503
v 30.39034081 13.53732586 -8.73623562
v 29.10202026 13.01669502 -8.73623562
v 27.76443291 12.64027691 -11.73970127
v 27.76443291 12.64027691 -8.73623562
v 26.39367104 12.41260052 -8.73623562
v 25.00621986 12.33640194 -11.88137627
v 25.00621986 12.33640194 -8.73623562
v 23.61876869 12.41260052 -8.73623562
v 22.24800873 12.64027691 -11.73970127
v 22.24800873 12.64027691 -8.73623562
v 20.91042137 13.01669502 -8.73623562
v 19.62210083 13.53732586 -11.32147503
v 19.62210083 13.53732586 -8.73623562
v 18.3985424 14.19590664 -8.73623562
v 17.25446129 14.98451805 -10.64675808
v 17.25446129 14.98451805 -8.73623562
v 16.20362091 15.89367199 -8.73623562
v 15.25866127 16.91243362 -8.73623562
v 26.94618034 37.52663803 -0.13706806
v 28.8741951 37.07117081 -0.34941661
v 30.70763779 36.3207283 -0.69929165
v 13.15518188 19.7879982 -8.40725899
v 13.31134129 19.70586967 -8.44554806
v 31.58988571 36.59105301 -0.57326043
v 36.84047699 19.7827282 -8.4097147
v 36.71987534 19.7192173 -8.43932533
v 36.69032288 19.69783783 -8.44929314
v 36.43428802 19.435812 -8.57145596
v 12.52616405 27.19082832 -4.9558773
v 13.30344391 29.86104393 -3.71095681
v 35.627285 31.91398811 -2.75382209
v 33.86431122 34.06483841 -1.75104451
v 13.57759285 19.43653107 -8.57112122
v 13.52387619 19.50225639 -8.54047775
v 13.44014263 19.59340668 -8.49798203
v 36.87852478 29.43032074 -3.91176987
v 37.55774689 26.73349571 -5.16909695
v 16.48493576 34.38236237 -1.60300684
v 14.64457226 32.29734802 -2.57509112
v 18.42255402 36.59105301 -0.57326043
v 18.65503693 36.34844208 -0.68637091
v 18.80937195 36.27865601 -0.71890807
v 31.03612709 36.25000381 -0.73226583
v 31.20306969 36.27865601 -0.71890807
v 31.3574028 36.34844208 -0.68637091
v 30.86735725 36.26433945 -0.72558361
v 18.97631264 36.25000381 -0.73226583
v 19.14508438 36.26433945 -0.72558361
v 32.6470108 39.82291031 -5.0686574
v 32.6470108 39.82291031 -0.40082934
v 35.40503311 38.03621292 -0.40082934
v 35.40503311 38.03621292 -5.0686574
v 37.75899124 35.74320602 -0.40082934
v 37.75899124 35.74320602 -5.0686574
v 39.61741638 33.0329895 -0.40082934
v 39.61741638 33.0329895 -5.0686574
v 40.90808868 30.01087761 -0.40082934
v 40.90808868 30.01087761 -5.0686574
v 41.58086395 26.79430199 -0.40082934
v 41.58086395 26.79430199 -5.0686574
v 41.60959625 23.50824165 -0.40082934
v 41.60959625 23.50824165 -5.0686574
v 40.99317169 20.28039169 -0.40082934
v 40.99317169 20.28039169 -5.0686574
v 39.75553894 17.23617363 -0.40082934
v 39.75553894 17.23617363 -5.0686574
v 37.9447937 14.49387646 -0.40082934
v 37.9447937 14.49387646 -5.0686574
v 35.63129044 12.16005707 -0.40082934
v 35.63129044 12.16005707 -5.0686574
v 32.90493011 10.32540321 -0.40082934
v 32.90493011 10.32540321 -5.0686574
v 29.8716507 9.06120205 -0.40082934
v 29.8716507 9.06120205 -5.0686574
v 26.64931107 8.41657734 -0.40082934
v 26.64931107 8.41657734 -5.0686574
v 23.36313057 8.41657734 -0.40082934
v 23.36313057 8.41657734 -5.0686574
v 20.14079094 9.06120205 -0.40082934
v 20.14079094 9.06120205 -5.0686574
v 17.10750961 10.32540321 -0.40082934
v 17.10750961 10.32540321 -5.0686574
v 14.38115025 12.16005707 -0.40082934
v 14.38115025 12.16005707 -5.0686574
v 12.06764889 14.49387646 -0.40082934
v 12.06764889 14.49387646 -5.0686574
v 10.25690174 17.23617363 -0.40082934
v 10.25690174 17.23617363 -5.0686574
v 9.0192709 20.28039169 -0.40082934
v 9.0192709 20.28039169 -5.0686574
v 8.40284443 23.50824165 -0.40082934
v 8.40284443 23.50824165 -5.0686574
v 8.43157768 26.79430199 -0.40082934
v 8.43157768 26.79430199 -5.0686574
v 9.10435104 30.01087761 -0.40082934
v 9.10435104 30.01087761 -5.0686574
v 10.39502621 33.0329895 -0.40082934
v 10.39502621 33.0329895 -5.0686574
v 12.25344849 35.74320602 -0.40082934
v 12.25344849 35.74320602 -5.0686574
v 14.60740566 38.03621292 -0.40082934
v 14.60740566 38.03621292 -5.0686574
v 17.36543083 39.82291031 -0.40082934
v 17.36543083 39.82291031 -5.0686574
v 8.97180271 40.49146271 -5.0686574
v 9.52097797 41.04063797 -5.0686574
v 31.7599678 39.55678177 -5.0686574
v 31.99434662 39.79966354 -5.0686574
v 32.3176384 39.89665604 -5.0686574
v 38.99108887 41.04063797 -5.0686574
v 39.74127579 41.24164963 -5.0686574
v 40.49146271 38.44191742 -5.0686574
v 31.9472599 48.75190735 -5.0686574
v 31.74662018 48.51554871 -5.0686574
v 32.23309708 48.8719902 -5.0686574
v 9.52097797 38.44191742 -5.0686574
v 40.49146271 41.04063797 -5.0686574
v 41.04063797 40.49146271 -5.0686574
v 41.24164963 39.74127579 -5.0686574
v 41.04063797 38.99108887 -5.0686574
v 10.27116394 41.24164963 -5.0686574
v 17.69480324 39.89665604 -5.0686574
v 8.7707901 10.27116394 -5.0686574
v 8.97180271 11.02135086 -5.0686574
v 8.7707901 39.74127579 -5.0686574
v 8.97180271 38.99108887 -5.0686574
v 39.74127579 11.77153683 -5.0686574
v 40.49146271 11.57052517 -5.0686574
v 18.01809311 39.79966354 -5.0686574
v 18.25247383 39.55678177 -5.0686574
v 9.52097797 11.57052517 -5.0686574
v 10.27116394 11.77153683 -5.0686574
v 10.27116394 38.24090576 -5.0686574
v 18.26582146 48.51554871 -5.0686574
v 18.06517982 48.75190735 -5.0686574
v 17.77934265 48.8719902 -5.0686574
v 11.02135086 38.44191742 -5.0686574
v 11.57052517 38.99108887 -5.0686574
v 11.77153683 39.74127579 -5.0686574
v 11.57052517 40.49146271 -5.0686574
v 11.02135086 41.04063797 -5.0686574
v 11.77153683 10.27116394 -5.0686574
v 11.57052517 11.02135086 -5.0686574
v 11.02135086 11.57052517 -5.0686574
v 41.04063797 11.02135086 -5.0686574
v 41.24164963 10.27116394 -5.0686574
v 41.04063797 9.52097797 -5.0686574
v 40.49146271 8.97180271 -5.0686574
v 39.74127579 8.7707901 -5.0686574
v 38.99108887 8.97180271 -5.0686574
v 38.44191742 9.52097797 -5.0686574
v 38.44191742 40.49146271 -5.0686574
v 38.24090576 39.74127579 -5.0686574
v 38.44191742 38.99108887 -5.0686574
v 38.99108887 38.44191742 -5.0686574
v 39.74127579 38.24090576 -5.0686574
v 11.57052517 9.52097797 -5.0686574
v 11.02135086 8.97180271 -5.0686574
v 10.27116394 8.7707901 -5.0686574
v 9.52097797 8.97180271 -5.0686574
v 8.97180271 9.52097797 -5.0686574
v 38.99108887 11.57052517 -5.0686574
v 38.44191742 11.02135086 -5.0686574
v 38.24090576 10.27116394 -5.0686574
v 18.01809311 39.79966354 -0.09093963
v 17.69480324 39.89665604 -0.31862214
v 17.52963638 39.88190842 -0.37890115
v 32.48260498 39.88195038 -0.37885043
v 32.3176384 39.89665604 -0.31862214
v 31.99434662 39.79966354 -0.09093963
v 17.77934265 48.8719902 -8.06940365
v 18.06517982 48.75190735 -8.06940365
v 18.26582146 48.51554871 -8.06940365
v 31.74662018 48.51554871 -8.06940365
v 31.9472599 48.75190735 -8.06940365
v 32.23309708 48.8719902 -8.06940365
v 10.27116394 40.90823364 -5.40207338
v 10.85464287 40.75189209 -5.40207338
v 11.28177738 40.32475662 -5.40207338
v 11.43812084 39.74127579 -5.40207338
v 11.28177738 39.15779877 -5.40207338
v 10.85464287 38.7306633 -5.40207338
v 10.27116394 38.57431793 -5.40207338
v 9.68768501 38.7306633 -5.40207338
v 9.26054955 39.15779877 -5.40207338
v 9.10420704 39.74127579 -5.40207338
v 9.26054955 40.32475662 -5.40207338
v 9.68768501 40.75189209 -5.40207338
v 39.74127579 40.90823364 -5.40207338
v 40.32475662 40.75189209 -5.40207338
v 40.75189209 40.32475662 -5.40207338
v 40.90823364 39.74127579 -5.40207338
v 40.75189209 39.15779877 -5.40207338
v 40.32475662 38.7306633 -5.40207338
v 39.74127579 38.57431793 -5.40207338
v 39.15779877 38.7306633 -5.40207338
v 38.7306633 39.15779877 -5.40207338
v 38.57431793 39.74127579 -5.40207338
v 38.7306633 40.32475662 -5.40207338
v 39.15779877 40.75189209 -5.40207338
v 39.74127579 11.43812084 -5.40207338
v 40.32475662 11.28177738 -5.40207338
v 40.75189209 10.85464287 -5.40207338
v 40.90823364 10.27116394 -5.40207338
v 40.75189209 9.68768501 -5.40207338
v 40.32475662 9.26054955 -5.40207338
v 39.74127579 9.10420704 -5.40207338
v 39.15779877 9.26054955 -5.40207338
v 38.7306633 9.68768501 -5.40207338
v 38.57431793 10.27116394 -5.40207338
v 38.7306633 10.85464287 -5.40207338
v 39.15779877 11.28177738 -5.40207338
v 10.27116394 11.43812084 -5.40207338
v 10.85464287 11.28177738 -5.40207338
v 11.28177738 10.85464287 -5.40207338
v 11.43812084 10.27116394 -5.40207338
v 11.28177738 9.68768501 -5.40207338
v 10.85464287 9.26054955 -5.40207338
v 10.27116394 9.10420704 -5.40207338
v 9.68768501 9.26054955 -5.40207338
v 9.26054955 9.68768501 -5.40207338
v 9.10420704 10.27116394 -5.40207338
v 9.26054955 10.85464287 -5.40207338
v 9.68768501 11.28177738 -5.40207338
v 36.32176208 19.20822716 -8.56952763
v 35.61877823 18.00395012 -8.56952763
v 13.5820694 19.15257454 -8.44748974
v 14.29179859 17.93673897 -8.44748974
v 15.13040352 16.80593681 -8.44748974
v 16.08779907 15.77376938 -8.44748974
v 17.15246391 14.85265255 -8.44748974
v 18.31159973 14.05366611 -8.44748974
v 19.55125618 13.3864193 -8.44748974
v 20.85652924 12.85893822 -8.44748974
v 22.21171379 12.47756672 -8.44748974
v 23.60051537 12.24689484 -8.44748974
v 25.00621986 12.1696949 -8.44748974
v 26.41192627 12.24689484 -8.44748974
v 27.80072594 12.47756672 -8.44748974
v 29.15591049 12.85893822 -8.44748974
v 30.46118546 13.3864193 -8.44748974
v 31.7008419 14.05366611 -8.44748974
v 32.85997772 14.85265255 -8.44748974
v 33.92464066 15.77376938 -8.44748974
v 34.88203812 16.80593681 -8.44748974
v 35.72064209 17.93673897 -8.44748974
v 36.43037033 19.15257454 -8.44748974
v 13.6906805 19.20822716 -8.56952763
v 14.3936615 18.00395012 -8.56952763
v 15.22429371 16.88389778 -8.56952763
v 16.17258644 15.86154461 -8.56952763
v 17.22713089 14.94918442 -8.56952763
v 18.37524605 14.157794 -8.56952763
v 19.60311699 13.49689007 -8.56952763
v 20.89598083 12.97442436 -8.56952763
v 22.23828125 12.59667873 -8.56952763
v 23.61387634 12.3682003 -8.56952763
v 25.00621986 12.29173279 -8.56952763
v 26.39856339 12.3682003 -8.56952763
v 27.77415848 12.59667873 -8.56952763
v 29.1164608 12.97442436 -8.56952763
v 30.40932274 13.49689007 -8.56952763
v 31.63719559 14.157794 -8.56952763
v 32.78530884 14.94918442 -8.56952763
v 33.83985519 15.86154461 -8.56952763
v 34.78814697 16.88389778 -8.56952763
vn 0 1 0
vn 1 0 0
vn -1 0 0
vn 0.99927 -0.01199 0.03653
vn 0.94046 0 0.33988
vn 0.98169 0 0.1905
vn 0.99841 0 0.05631
vn 0.9986 -0.01093 0.05161
vn -0.9986 -0.01093 0.05161
vn -0.94046 0 0.33988
vn -0.98169 0 0.1905
vn -0.99841 0 0.05631
vn -0.99927 -0.01199 0.03653
vn 0 -1 0
vn 0.37754 0 0.92599
vn 0.52199 0 0.85296
vn 0.65273 0 0.75759
vn 0.76641 0 0.64235
vn 0.85998 0 0.5103
vn 0.93106 0 0.36491
vn 0.97772 0 0.20994
vn 0.99878 0 0.04944
vn 0.99368 0 -0.11231
vn 0.96252 0 -0.27116
vn 0.90619 0 -0.42286
vn 0.82611 0 -0.56352
vn 0.72439 0 -0.68941
vn 0.60369 0 -0.79724
vn 0.46718 0 -0.88418
vn 0.3184 0 -0.94797
vn 0.16132 0 -0.98691
vn 0 0 -1
vn -0.16132 0 -0.98691
vn -0.3184 0 -0.94797
vn -0.46718 0 -0.88418
vn -0.60369 0 -0.79724
vn -0.72439 0 -0.68941
vn -0.82611 0 -0.56352
vn -0.90619 0 -0.42286
vn -0.96252 0 -0.27116
vn -0.99368 0 -0.11231
vn -0.99878 0 0.04944
vn -0.97772 0 0.20994
vn -0.93106 0 0.36491
vn -0.85998 0 0.5103
vn -0.76641 0 0.64235
vn -0.65273 0 0.75759
vn -0.52199 0 0.85296
vn -0.37754 0 0.92599
vn -0.07678 0 0.99704
vn -0.2299 0 0.9732
vn -0.3788 0 0.92547
vn -0.85183 0.14014 -0.50472
vn 0.85183 0.14014 -0.50472
vn 0.80322 0 -0.59566
vn 0.69478 0 -0.71923
vn 0.73086 0.07941 -0.67791
vn 0.65429 0 -0.75625
vn 0.56752 0 -0.82336
vn 0.52824 0.03388 -0.84841
vn 0.47395 0 -0.88055
vn 0.37468 0 -0.92715
vn 0.32704 0.02725 -0.94461
vn 0.27088 0 -0.96261
vn 0.16385 0 -0.98648
vn 0.11072 0.02478 -0.99353
vn 0.05484 0 -0.9985
vn -0.05484 0 -0.9985
vn -0.11072 0.02478 -0.99353
vn -0.16385 0 -0.98648
vn -0.27088 0 -0.96261
vn -0.32704 0.02725 -0.94461
vn -0.37468 0 -0.92715
vn -0.47395 0 -0.88055
vn -0.52824 0.03388 -0.84841
vn -0.56752 0 -0.82336
vn -0.65429 0 -0.75625
vn -0.70586 0.05206 -0.70644
vn -0.73318 0 -0.68004
vn -0.80322 0 -0.59566
vn 0.07678 0 0.99704
vn 0.2299 0 0.9732
vn 0.3788 0 0.92547
vn 0 0.90634 0.42256
vn 0 0.90634 0.42256
vn 0 0.90634 0.42256
vn 0 0.90634 0.42256
vn 0 0.90634 0.42256
vn 0 0.90634 0.42256
vn 0 0.90634 0.42256
vn 0 0.90634 0.42256
vn 0 0.90634 0.42256
vn 0 0.90634 0.42256
vn 0 0.90634 0.42256
vn 0 0.90634 0.42256
vn 0 0.90634 0.42256
vn 0 0.90634 0.42256
vn 0 0.90634 0.42256
vn 0 0.90634 0.42256
vn 0 0.90634 0.42256
vn 0 0.90634 0.42256
vn 0 0.90634 0.42256
vn 0 0.90634 0.42256
vn 0 0.90634 0.42256
vn 0 0.90634 0.42256
vn 0 0.90634 0.42256
vn 0 0.90634 0.42256
vn 0 0.90634 0.42256
vn 0 0.90634 0.42256
vn 0 0.90634 0.42256
vn 0 0.90634 0.42256
vn 0 0.90634 0.42256
vn 0 0.90634 0.42256
vn 0 0.90634 0.42256
vn 0 0.90634 0.42256
vn 0 0.90634 0.42256
vn 0 0.90634 0.42256
vn 0 0.90634 0.42256
vn 0 0.90634 0.42256
vn 0 0.90634 0.42256
vn 0 0.90634 0.42256
vn 0 0.90634 0.42256
vn 0 0.90634 0.42256
vn 0 0.90634 0.42256
vn 0 0.90634 0.42256
vn 0 0.90634 0.42256
vn 0 0.90634 0.42256
vn 0 0.90634 0.42256
vn 0 0.90634 0.42256
vn 0 0.90634 0.42256
vn 0 0.90634 0.42256
vn 0 0.90634 0.42256
vn 0 0.90634 0.42256
vn 0 0.90634 0.42256
vn 0 0.90634 0.42256
vn 0 0.90634 0.42256
vn 0.54369 0 0.83929
vn 0.69778 0 0.71633
vn 0.82473 0 0.56554
vn 0.91964 0 0.39274
vn 0.97882 0 0.20472
vn 0.99997 0 0.00873
vn 0.98224 0 -0.18757
vn 0.92636 0 -0.37663
vn 0.8345 0 -0.55101
vn 0.7102 0 -0.704
vn 0.55831 0 -0.82965
vn 0.38472 0 -0.92303
vn 0.19617 0 -0.98056
vn -0.19617 0 -0.98056
vn -0.38472 0 -0.92303
vn -0.55831 0 -0.82965
vn -0.7102 0 -0.704
vn -0.8345 0 -0.55101
vn -0.92636 0 -0.37663
vn -0.98224 0 -0.18757
vn -0.99997 0 0.00873
vn -0.97882 0 0.20472
vn -0.91964 0 0.39274
vn -0.82473 0 0.56554
vn -0.69778 0 0.71633
vn -0.54369 0 0.83929
vn 0.54863 0.01495 0.83593
vn 0.7196 0 0.69442
vn 0.28736 0 0.95782
vn -0.21848 0 0.97583
vn -0.33705 0.00891 0.94143
vn -0.08893 0 0.99603
vn 0.73391 0 0.67925
vn 0.96744 0 0.25309
vn 0.33796 0 0.94116
vn 0.21848 0.00464 0.97583
vn 0.08878 0 0.99606
vn -0.28736 0 0.95782
vn -0.53807 0 0.84289
vn -0.7196 0.00128 0.69442
vn -0.73391 0 0.67925
vn -0.96744 0 0.25309
vn -0.07144 0 0.99744
vn 0.38731 0 0.92196
vn 0.76235 0 0.64714
vn 0.97259 0 0.23246
vn -0.97259 0 0.23246
vn -0.76235 0 0.64714
vn -0.38731 0 0.92196
vn 0.07144 0 0.99744
vn 0.96774 0 0.25196
vn 0.72201 0 0.69189
vn 0.41203 0 0.91116
vn 0.29279 0.03299 0.9556
vn 0.16916 0 0.9856
vn -0.08463 0 0.9964
vn -0.21036 0.03265 0.97708
vn -0.33293 0 0.94296
vn 0.33293 0 0.94296
vn 0.21036 0.03265 0.97708
vn 0.08463 0 0.9964
vn -0.16916 0 0.9856
vn -0.29279 0.03299 0.9556
vn -0.41203 0 0.91116
vn -0.72201 0 0.69189
vn -0.96774 0 0.25196
vn -0.99799 0.013 -0.06229
vn -0.99808 0.03433 -0.05173
vn -1 -0.00363 -0.00323
vn -0.97476 0.11035 -0.19404
vn -0.98489 0.07315 -0.15687
vn -0.99649 0.0354 -0.07593
vn -0.90957 0.18809 -0.37053
vn -0.92993 0.15537 -0.33326
vn -0.96249 0.11463 -0.24586
vn -0.80267 0.26255 -0.53551
vn -0.83377 0.23331 -0.50041
vn -0.88702 0.1951 -0.4185
vn -0.57732 0.34504 -0.74004
vn -0.62853 0.33158 -0.70354
vn -0.65368 0.32905 -0.68151
vn -0.70077 0.30146 -0.64657
vn -0.7698 0.26972 -0.57851
vn 0.99994 -0.00208 -0.01068
vn 0.99686 0.04627 -0.06433
vn 0.99673 0.01651 -0.07889
vn 0.57732 0.34504 -0.74004
vn 0.63945 0.32844 -0.69512
vn 0.78082 0.2743 -0.56133
vn 0.74615 0.28132 -0.60341
vn 0.65166 0.32051 -0.68746
vn 0.89474 0.20081 -0.39891
vn 0.87051 0.20795 -0.44606
vn 0.81365 0.24567 -0.5269
vn 0.99411 0.04584 -0.0983
vn 0.97861 0.08695 -0.1865
vn 0.96677 0.12329 -0.22394
vn 0.95285 0.12824 -0.27506
vn 0.9169 0.16865 -0.36174
vn -0.25883 0 -0.96591
vn -0.70711 0 -0.70711
vn -0.96591 0 -0.25883
vn -0.96591 0 0.25883
vn -0.70711 0 0.70711
vn -0.25883 0 0.96591
vn 0.25883 0 0.96591
vn 0.70711 0 0.70711
vn 0.96591 0 0.25883
vn 0.96591 0 -0.25883
vn 0.70711 0 -0.70711
vn 0.25883 0 -0.96591
vn -0.25883 0 -0.96591
vn -0.70711 0 -0.70711
vn -0.96591 0 -0.25883
vn -0.96591 0 0.25883
vn -0.70711 0 0.70711
vn -0.25883 0 0.96591
vn 0.25883 0 0.96591
vn 0.70711 0 0.70711
vn 0.96591 0 0.25883
vn 0.96591 0 -0.25883
vn 0.70711 0 -0.70711
vn 0.25883 0 -0.96591
vn -0.25883 0 -0.96591
vn -0.70711 0 -0.70711
vn -0.96591 0 -0.25883
vn -0.96591 0 0.25883
vn -0.25883 0 0.96591
vn 0.25883 0 0.96591
vn 0.70711 0 0.70711
vn 0.96591 0 0.25883
vn 0.96591 0 -0.25883
vn 0.25883 0 -0.96591
vn -0.25883 0 -0.96591
vn -0.96591 0 -0.25883
vn -0.96591 0 0.25883
vn -0.70711 0 0.70711
vn -0.25883 0 0.96591
vn 0.25883 0 0.96591
vn 0.96591 0 0.25883
vn 0.96591 0 -0.25883
vn 0.70711 0 -0.70711
vn 0.25883 0 -0.96591
vn -0.50859 -0.69475 0.50859
vn -0.50859 -0.69475 0.50859
vn -0.69475 -0.69475 0.18616
vn -0.69475 -0.69475 0.18616
vn -0.69475 -0.69475 -0.18616
vn -0.69475 -0.69475 -0.18616
vn -0.50859 -0.69475 -0.50859
vn -0.18616 -0.69475 -0.69475
vn -0.18616 -0.69475 -0.69475
vn 0.18616 -0.69475 -0.69475
vn 0.18616 -0.69475 -0.69475
vn 0.50859 -0.69475 -0.50859
vn 0.50859 -0.69475 -0.50859
vn 0.69475 -0.69475 -0.18616
vn 0.69475 -0.69475 -0.18616
vn 0.69475 -0.69475 0.18616
vn 0.69475 -0.69475 0.18616
vn 0.50859 -0.69475 0.50859
vn 0.18616 -0.69475 0.69475
vn 0.18616 -0.69475 0.69475
vn -0.18616 -0.69475 0.69475
vn -0.18616 -0.69475 0.69475
vn -0.50859 -0.69475 0.50859
vn -0.69475 -0.69475 0.18616
vn -0.69475 -0.69475 0.18616
vn -0.69475 -0.69475 -0.18616
vn -0.69475 -0.69475 -0.18616
vn -0.50859 -0.69475 -0.50859
vn -0.18616 -0.69475 -0.69475
vn -0.18616 -0.69475 -0.69475
vn 0.18616 -0.69475 -0.69475
vn 0.18616 -0.69475 -0.69475
vn 0.50859 -0.69475 -0.50859
vn 0.69475 -0.69475 -0.18616
vn 0.69475 -0.69475 -0.18616
vn 0.69475 -0.69475 0.18616
vn 0.69475 -0.69475 0.18616
vn 0.50859 -0.69475 0.50859
vn 0.18616 -0.69475 0.69475
vn 0.18616 -0.69475 0.69475
vn -0.18616 -0.69475 0.69475
vn -0.18616 -0.69475 0.69475
vn -0.50859 -0.69475 0.50859
vn -0.69475 -0.69475 0.18616
vn -0.69475 -0.69475 0.18616
vn -0.69475 -0.69475 -0.18616
vn -0.69475 -0.69475 -0.18616
vn -0.50859 -0.69475 -0.50859
vn -0.18616 -0.69475 -0.69475
vn -0.18616 -0.69475 -0.69475
vn 0.18616 -0.69475 -0.69475
vn 0.18616 -0.69475 -0.69475
vn 0.50859 -0.69475 -0.50859
vn 0.69475 -0.69475 -0.18616
vn 0.69475 -0.69475 -0.18616
vn 0.69475 -0.69475 0.18616
vn 0.69475 -0.69475 0.18616
vn 0.50859 -0.69475 0.50859
vn 0.18616 -0.69475 0.69475
vn 0.18616 -0.69475 0.69475
vn -0.18616 -0.69475 0.69475
vn -0.18616 -0.69475 0.69475
vn -0.69475 -0.69475 0.18616
vn -0.69475 -0.69475 0.18616
vn -0.69475 -0.69475 -0.18616
vn -0.69475 -0.69475 -0.18616
vn -0.50859 -0.69475 -0.50859
vn -0.18616 -0.69475 -0.69475
vn -0.18616 -0.69475 -0.69475
vn 0.18616 -0.69475 -0.69475
vn 0.18616 -0.69475 -0.69475
vn 0.69475 -0.69475 -0.18616
vn 0.69475 -0.69475 -0.18616
vn 0.69475 -0.69475 0.18616
vn 0.69475 -0.69475 0.18616
vn 0.50859 -0.69475 0.50859
vn 0.18616 -0.69475 0.69475
vn 0.18616 -0.69475 0.69475
vn -0.18616 -0.69475 0.69475
vn -0.18616 -0.69475 0.69475
vn -0.70711 0.70711 0
vn -0.69723 0.69723 0.16666
vn -0.69723 0.69723 0.16666
vn -0.54649 0.69723 0.46391
vn -0.54649 0.69723 0.46391
vn -0.27766 0.69723 0.66091
vn -0.27766 0.69723 0.66091
vn 0.05121 0.69723 0.71502
vn 0.05121 0.69723 0.71502
vn 0.2674 0.70595 0.65584
vn 0.2674 0.70595 0.65584
vn 0.3697 0.70595 0.60411
vn 0.3697 0.70595 0.60411
vn 0.46232 0.70595 0.53658
vn 0.46232 0.70595 0.53658
vn 0.54283 0.70595 0.45497
vn 0.54283 0.70595 0.45497
vn 0.60909 0.70595 0.36143
vn 0.60909 0.70595 0.36143
vn 0.65944 0.70595 0.25843
vn 0.65944 0.70595 0.25843
vn 0.6925 0.70595 0.14869
vn 0.6925 0.70595 0.14869
vn 0.70739 0.70595 0.03504
vn 0.70739 0.70595 0.03504
vn 0.70379 0.70595 -0.07956
vn 0.70379 0.70595 -0.07956
vn 0.68172 0.70595 -0.19205
vn 0.68172 0.70595 -0.19205
vn 0.64183 0.70595 -0.29951
vn 0.64183 0.70595 -0.29951
vn 0.5851 0.70595 -0.39912
vn 0.5851 0.70595 -0.39912
vn 0.51305 0.70595 -0.4883
vn 0.51305 0.70595 -0.48827
vn 0.42756 0.70595 -0.56465
vn 0.42756 0.70595 -0.56465
vn 0.33088 0.70595 -0.62624
vn 0.33088 0.70595 -0.62624
vn 0.22553 0.70595 -0.67141
vn 0.22553 0.70595 -0.67141
vn 0.11426 0.70595 -0.699
vn 0.11426 0.70595 -0.699
vn 0 0.70595 -0.70827
vn -0.11426 0.70595 -0.699
vn -0.11426 0.70595 -0.699
vn -0.22553 0.70595 -0.67141
vn -0.22553 0.70595 -0.67141
vn -0.33088 0.70595 -0.62624
vn -0.33088 0.70595 -0.62624
vn -0.42756 0.70595 -0.56465
vn -0.42756 0.70595 -0.56465
vn -0.51305 0.70595 -0.48827
vn -0.51305 0.70595 -0.4883
vn -0.5851 0.70595 -0.39912
vn -0.5851 0.70595 -0.39912
vn -0.64183 0.70595 -0.29951
vn -0.64183 0.70595 -0.29951
vn -0.68172 0.70595 -0.19205
vn -0.68172 0.70595 -0.19205
vn -0.70379 0.70595 -0.07956
vn -0.70379 0.70595 -0.07956
vn -0.70739 0.70595 0.03504
vn -0.70739 0.70595 0.03504
vn -0.6925 0.70595 0.14869
vn -0.6925 0.70595 0.14869
vn -0.65944 0.70595 0.25843
vn -0.65944 0.70595 0.25843
vn -0.60909 0.70595 0.36143
vn -0.60909 0.70595 0.36143
vn -0.54283 0.70595 0.45497
vn -0.54283 0.70595 0.45497
vn -0.46232 0.70595 0.53658
vn -0.46232 0.70595 0.53658
vn -0.3697 0.70595 0.60411
vn -0.3697 0.70595 0.60411
vn -0.2674 0.70595 0.65584
vn -0.2674 0.70595 0.65584
vn -0.05121 0.69723 0.71502
vn -0.05121 0.69723 0.71502
vn 0.27766 0.69723 0.66091
vn 0.27766 0.69723 0.66091
vn 0.54649 0.69723 0.46391
vn 0.54649 0.69723 0.46391
vn 0.69723 0.69723 0.16666
vn 0.69723 0.69723 0.16666
vn 0.70711 0.70711 0
vn 0.31114 -0.7109 0.63073
vn -0.31114 -0.7109 0.63073
vn -0.31123 -0.71068 0.63091
vn -0.31501 -0.70867 0.63134
vn 0.31663 -0.71508 0.62325
vn 0.31187 -0.70949 0.63195
vn 0.32081 -0.70711 0.63015
vn 0.38539 -0.70537 0.5949
vn 0.38539 -0.70537 0.5949
vn 0.49461 -0.70537 0.50774
vn 0.49461 -0.70537 0.50774
vn 0.58458 -0.70537 0.40086
vn 0.58458 -0.70537 0.40086
vn 0.65188 -0.70537 0.27839
vn 0.65188 -0.70537 0.27839
vn 0.69381 -0.70537 0.14512
vn 0.69381 -0.70537 0.14512
vn 0.70879 -0.70537 0.0062
vn 0.70879 -0.70537 0.0062
vn 0.69625 -0.70537 -0.13297
vn 0.69625 -0.70537 -0.13297
vn 0.65664 -0.70537 -0.26695
vn 0.65664 -0.70537 -0.26695
vn 0.59151 -0.70537 -0.39058
vn 0.59151 -0.70537 -0.39058
vn 0.5034 -0.70537 -0.49901
vn 0.5034 -0.70537 -0.49901
vn 0.39573 -0.70537 -0.58809
vn 0.39573 -0.70537 -0.58806
vn 0.27268 -0.70537 -0.65429
vn 0.27268 -0.70537 -0.65429
vn 0.13904 -0.70537 -0.69506
vn 0.13904 -0.70537 -0.69506
vn 0 -0.70537 -0.70882
vn -0.13904 -0.70537 -0.69506
vn -0.13904 -0.70537 -0.69506
vn -0.27268 -0.70537 -0.65429
vn -0.27268 -0.70537 -0.65429
vn -0.39573 -0.70537 -0.58806
vn -0.39573 -0.70537 -0.58809
vn -0.5034 -0.70537 -0.49901
vn -0.5034 -0.70537 -0.49901
vn -0.59151 -0.70537 -0.39058
vn -0.59151 -0.70537 -0.39058
vn -0.65664 -0.70537 -0.26695
vn -0.65664 -0.70537 -0.26695
vn -0.69625 -0.70537 -0.13297
vn -0.69625 -0.70537 -0.13297
vn -0.70879 -0.70537 0.0062
vn -0.70879 -0.70537 0.0062
vn -0.69381 -0.70537 0.14512
vn -0.69381 -0.70537 0.14512
vn -0.65188 -0.70537 0.27839
vn -0.65188 -0.70537 0.27839
vn -0.58458 -0.70537 0.40086
vn -0.58458 -0.70537 0.40086
vn -0.49461 -0.70537 0.50774
vn -0.49461 -0.70537 0.50774
vn -0.38539 -0.70537 0.5949
vn -0.38539 -0.70537 0.5949
vn -0.32081 -0.70711 0.63015
vn 0.8435 0.21464 -0.49239
vn 0.86084 0.27531 -0.42796
vn 0.40617 0.90292 -0.14048
vn 0.29527 0.948 -0.11869
vn 0.09372 0.9946 -0.04447
vn -0.30799 0.93991 -0.1474
vn -0.55519 0.78704 -0.2689
vn -0.07514 0.99655 -0.03562
vn -0.2396 0.96573 -0.09983
vn -0.22382 0.96582 -0.13065
vn -0.22382 0.96582 -0.13065
vn -0.2082 0.96582 -0.15439
vn -0.2082 0.96582 -0.15439
vn -0.19004 0.96582 -0.17624
vn -0.19004 0.96582 -0.17624
vn -0.16959 0.96582 -0.19602
vn -0.16959 0.96582 -0.19602
vn -0.1471 0.96582 -0.21339
vn -0.1471 0.96582 -0.21339
vn -0.12284 0.96582 -0.22822
vn -0.12284 0.96582 -0.22822
vn -0.09711 0.96582 -0.2403
vn -0.09711 0.96582 -0.2403
vn -0.07022 0.96582 -0.24949
vn -0.07022 0.96582 -0.24949
vn -0.04248 0.96582 -0.25568
vn -0.04248 0.96582 -0.25568
vn -0.01422 0.96582 -0.2588
vn -0.01422 0.96582 -0.2588
vn 0.01422 0.96582 -0.2588
vn 0.01422 0.96582 -0.2588
vn 0.04248 0.96582 -0.25568
vn 0.04248 0.96582 -0.25568
vn 0.07022 0.96582 -0.24949
vn 0.07022 0.96582 -0.24949
vn 0.09711 0.96582 -0.2403
vn 0.09711 0.96582 -0.2403
vn 0.12284 0.96582 -0.22822
vn 0.12284 0.96582 -0.22822
vn 0.1471 0.96582 -0.21339
vn 0.1471 0.96582 -0.21339
vn 0.16959 0.96582 -0.19602
vn 0.16959 0.96582 -0.19602
vn 0.19004 0.96582 -0.17624
vn 0.19004 0.96582 -0.17624
vn 0.2082 0.96582 -0.15439
vn 0.2082 0.96582 -0.15439
vn 0.22382 0.96582 -0.13065
vn 0.22382 0.96582 -0.13065
vn 0.2324 0.96591 -0.11399
vn -0.66683 0.68511 -0.29316
vn -0.64302 0.70678 -0.29496
vn -0.61113 0.70656 -0.35673
vn -0.61113 0.70656 -0.35673
vn -0.56841 0.70656 -0.42152
vn -0.56841 0.70656 -0.42152
vn -0.51881 0.70656 -0.48122
vn -0.51881 0.70656 -0.48122
vn -0.463 0.70656 -0.53514
vn -0.463 0.70656 -0.53514
vn -0.40159 0.70656 -0.58263
vn -0.40162 0.70656 -0.58263
vn -0.3354 0.70656 -0.6231
vn -0.3354 0.70656 -0.6231
vn -0.26514 0.70656 -0.65609
vn -0.26514 0.70656 -0.65609
vn -0.19169 0.70656 -0.68117
vn -0.19169 0.70656 -0.68117
vn -0.11594 0.70656 -0.69808
vn -0.11594 0.70656 -0.69808
vn -0.03882 0.70656 -0.70656
vn -0.03882 0.70656 -0.70656
vn 0.03882 0.70656 -0.70656
vn 0.03882 0.70656 -0.70656
vn 0.11594 0.70656 -0.69808
vn 0.11594 0.70656 -0.69808
vn 0.19169 0.70656 -0.68117
vn 0.19169 0.70656 -0.68117
vn 0.26514 0.70656 -0.65609
vn 0.26514 0.70656 -0.65609
vn 0.3354 0.70656 -0.6231
vn 0.3354 0.70656 -0.6231
vn 0.40162 0.70656 -0.58263
vn 0.40162 0.70656 -0.58263
vn 0.463 0.70656 -0.53514
vn 0.463 0.70656 -0.53514
vn 0.51881 0.70656 -0.48122
vn 0.51881 0.70656 -0.48122
vn 0.56841 0.70656 -0.42152
vn 0.56841 0.70656 -0.42152
vn 0.61113 0.70656 -0.35673
vn 0.61113 0.70656 -0.35673
vn 0.63747 0.70699 -0.30625
vn 0.66121 0.67241 -0.33262
vn -0.76406 0.51985 -0.38209
vn -0.86077 0.275 -0.4283
vn -0.8435 0.21464 -0.49239
vn -0.83108 0.25855 -0.49242
vn -0.77593 0.25846 -0.57543
vn -0.77593 0.25846 -0.57543
vn -0.70824 0.25846 -0.65694
vn -0.70824 0.25846 -0.65694
vn -0.63204 0.25846 -0.73055
vn -0.63204 0.25846 -0.73055
vn -0.54827 0.25846 -0.79537
vn -0.54827 0.25846 -0.79537
vn -0.45784 0.25846 -0.85064
vn -0.45784 0.25846 -0.85064
vn -0.36195 0.25846 -0.89566
vn -0.36195 0.25846 -0.89566
vn -0.2617 0.25846 -0.9299
vn -0.2617 0.25846 -0.9299
vn -0.15827 0.25846 -0.95297
vn -0.15827 0.25846 -0.95297
vn -0.05298 0.25846 -0.96457
vn -0.05298 0.25846 -0.96457
vn 0.05298 0.25846 -0.96457
vn 0.05298 0.25846 -0.96457
vn 0.15827 0.25846 -0.95297
vn 0.15827 0.25846 -0.95297
vn 0.2617 0.25846 -0.9299
vn 0.2617 0.25846 -0.9299
vn 0.36195 0.25846 -0.89566
vn 0.36195 0.25846 -0.89566
vn 0.45784 0.25846 -0.85064
vn 0.45784 0.25846 -0.85064
vn 0.54827 0.25846 -0.79537
vn 0.54827 0.25846 -0.79537
vn 0.63204 0.25846 -0.73055
vn 0.63204 0.25846 -0.73055
vn 0.70824 0.25846 -0.65694
vn 0.70824 0.25846 -0.65694
vn 0.77593 0.25846 -0.57543
vn 0.77593 0.25846 -0.57543
vn 0.83108 0.25855 -0.49242
f 1//1 2//1 3//1
f 4//1 5//1 6//1
f 7//1 8//1 9//1
f 10//1 11//1 12//1
f 12//1 11//1 9//1
f 12//1 9//1 13//1
f 7//1 9//1 14//1
f 15//1 16//1 17//1
f 18//1 19//1 20//1
f 20//1 19//1 21//1
f 20//1 21//1 22//1
f 23//1 24//1 25//1
f 25//1 24//1 26//1
f 27//1 28//1 29//1
f 29//1 28//1 30//1
f 29//1 30//1 31//1
f 32//1 33//1 26//1
f 26//1 33//1 34//1
f 35//1 36//1 37//1
f 37//1 36//1 38//1
f 39//1 40//1 41//1
f 41//1 40//1 42//1
f 43//1 44//1 45//1
f 24//1 46//1 47//1
f 48//1 49//1 50//1
f 51//1 52//1 53//1
f 2//1 1//1 54//1
f 54//1 1//1 55//1
f 54//1 55//1 56//1
f 56//1 55//1 57//1
f 56//1 57//1 58//1
f 31//1 1//1 29//1
f 29//1 1//1 3//1
f 29//1 3//1 59//1
f 59//1 3//1 26//1
f 59//1 26//1 60//1
f 60//1 26//1 34//1
f 41//1 61//1 39//1
f 39//1 61//1 62//1
f 39//1 62//1 63//1
f 63//1 62//1 64//1
f 63//1 64//1 35//1
f 35//1 64//1 65//1
f 35//1 65//1 36//1
f 45//1 66//1 43//1
f 43//1 66//1 41//1
f 43//1 41//1 67//1
f 67//1 41//1 42//1
f 67//1 42//1 68//1
f 68//1 42//1 69//1
f 68//1 69//1 70//1
f 6//1 71//1 4//1
f 4//1 71//1 24//1
f 4//1 24//1 72//1
f 72//1 24//1 47//1
f 50//1 49//1 73//1
f 22//1 21//1 74//1
f 74//1 21//1 75//1
f 74//1 75//1 76//1
f 76//1 75//1 77//1
f 76//1 77//1 78//1
f 78//1 77//1 79//1
f 78//1 79//1 80//1
f 80//1 79//1 81//1
f 80//1 81//1 82//1
f 53//1 52//1 83//1
f 84//1 85//1 26//1
f 26//1 85//1 86//1
f 26//1 86//1 32//1
f 38//1 87//1 37//1
f 37//1 87//1 88//1
f 37//1 88//1 89//1
f 49//1 90//1 73//1
f 73//1 90//1 91//1
f 73//1 91//1 46//1
f 46//1 91//1 92//1
f 46//1 92//1 47//1
f 93//1 94//1 17//1
f 95//1 96//1 17//1
f 17//1 96//1 97//1
f 17//1 97//1 15//1
f 98//1 99//1 50//1
f 100//1 101//1 102//1
f 102//1 101//1 103//1
f 102//1 103//1 104//1
f 104//1 103//1 105//1
f 104//1 105//1 106//1
f 106//1 105//1 107//1
f 106//1 107//1 108//1
f 108//1 107//1 109//1
f 108//1 109//1 110//1
f 110//1 109//1 111//1
f 110//1 111//1 112//1
f 112//1 111//1 113//1
f 112//1 113//1 114//1
f 114//1 113//1 115//1
f 114//1 115//1 116//1
f 23//1 83//1 24//1
f 24//1 83//1 52//1
f 24//1 52//1 117//1
f 117//1 52//1 118//1
f 117//1 118//1 18//1
f 18//1 118//1 119//1
f 18//1 119//1 19//1
f 58//1 57//1 120//1
f 120//1 57//1 121//1
f 120//1 121//1 122//1
f 122//1 121//1 123//1
f 122//1 123//1 53//1
f 53//1 123//1 124//1
f 53//1 124//1 51//1
f 11//1 125//1 9//1
f 9//1 125//1 126//1
f 9//1 126//1 14//1
f 14//1 126//1 37//1
f 14//1 37//1 127//1
f 127//1 37//1 89//1
f 100//1 128//1 101//1
f 101//1 128//1 129//1
f 101//1 129//1 10//1
f 99//1 130//1 50//1
f 50//1 130//1 131//1
f 50//1 131//1 48//1
f 69//1 132//1 70//1
f 70//1 132//1 133//1
f 70//1 133//1 134//1
f 134//1 133//1 11//1
f 134//1 11//1 135//1
f 135//1 11//1 10//1
f 135//1 10//1 136//1
f 136//1 10//1 129//1
f 13//1 9//1 17//1
f 17//1 9//1 137//1
f 17//1 137//1 93//1
f 94//1 138//1 17//1
f 17//1 138//1 139//1
f 17//1 139//1 95//1
f 82//1 116//1 80//1
f 80//1 116//1 115//1
f 80//1 115//1 50//1
f 50//1 115//1 17//1
f 50//1 17//1 98//1
f 98//1 17//1 16//1
f 71//1 140//1 24//1
f 24//1 140//1 141//1
f 24//1 141//1 26//1
f 26//1 141//1 142//1
f 26//1 142//1 84//1
f 143//2 144//2 145//2
f 145//2 144//2 146//2
f 147//2 145//2 148//2
f 148//2 145//2 146//2
f 148//2 146//2 149//2
f 149//2 146//2 150//2
f 151//3 152//3 153//3
f 153//3 152//3 154//3
f 155//3 156//3 157//3
f 157//3 156//3 153//3
f 157//3 153//3 158//3
f 158//3 153//3 154//3
f 14//4 127//4 159//4
f 8//5 7//5 160//5
f 160//6 7//6 14//6
f 160//6 14//6 161//6
f 161//7 14//7 159//7
f 161//8 159//8 162//8
f 163//9 164//9 165//9
f 5//10 166//10 6//10
f 6//11 166//11 163//11
f 6//11 163//11 71//11
f 71//12 163//12 165//12
f 71//13 165//13 140//13
f 167//14 168//14 155//14
f 169//14 170//14 168//14
f 168//14 170//14 156//14
f 168//14 156//14 155//14
f 171//14 172//14 173//14
f 174//14 175//14 150//14
f 150//14 175//14 176//14
f 150//14 176//14 149//14
f 177//14 178//14 179//14
f 179//14 178//14 180//14
f 179//14 180//14 181//14
f 181//14 180//14 182//14
f 181//14 182//14 155//14
f 155//14 182//14 183//14
f 155//14 183//14 167//14
f 173//14 184//14 171//14
f 171//14 184//14 185//14
f 171//14 185//14 179//14
f 179//14 185//14 186//14
f 179//14 186//14 177//14
f 187//14 188//14 189//14
f 189//14 188//14 190//14
f 189//14 190//14 191//14
f 191//14 190//14 192//14
f 193//14 194//14 195//14
f 195//14 194//14 196//14
f 197//14 198//14 199//14
f 199//14 198//14 200//14
f 199//14 200//14 190//14
f 190//14 200//14 201//14
f 190//14 201//14 192//14
f 176//14 202//14 149//14
f 149//14 202//14 203//14
f 149//14 203//14 204//14
f 204//14 203//14 205//14
f 204//14 205//14 199//14
f 199//14 205//14 206//14
f 199//14 206//14 197//14
f 172//14 171//14 207//14
f 207//14 171//14 208//14
f 207//14 208//14 195//14
f 195//14 208//14 209//14
f 195//14 209//14 193//14
f 187//14 210//14 188//14
f 188//14 210//14 195//14
f 188//14 195//14 211//14
f 211//14 195//14 196//14
f 212//15 213//15 214//15
f 212//15 214//15 215//15
f 215//16 214//16 216//16
f 215//16 216//16 217//16
f 217//17 216//17 218//17
f 217//17 218//17 219//17
f 219//18 218//18 220//18
f 219//18 220//18 221//18
f 221//19 220//19 222//19
f 221//19 222//19 223//19
f 223//20 222//20 224//20
f 223//20 224//20 225//20
f 225//21 224//21 226//21
f 225//21 226//21 227//21
f 227//22 226//22 228//22
f 227//22 228//22 229//22
f 229//23 228//23 230//23
f 229//23 230//23 231//23
f 231//24 230//24 232//24
f 231//24 232//24 233//24
f 233//25 232//25 234//25
f 233//25 234//25 235//25
f 235//26 234//26 236//26
f 235//26 236//26 237//26
f 237//27 236//27 238//27
f 237//27 238//27 239//27
f 239//28 238//28 240//28
f 239//28 240//28 241//28
f 241//29 240//29 242//29
f 241//29 242//29 243//29
f 243//30 242//30 244//30
f 243//30 244//30 245//30
f 245//31 244//31 246//31
f 245//31 246//31 247//31
f 247//32 246//32 248//32
f 247//32 248//32 249//32
f 249//33 248//33 250//33
f 249//33 250//33 251//33
f 251//34 250//34 252//34
f 251//34 252//34 253//34
f 253//35 252//35 254//35
f 253//35 254//35 255//35
f 255//36 254//36 256//36
f 255//36 256//36 257//36
f 257//37 256//37 258//37
f 257//37 258//37 259//37
f 259//38 258//38 260//38
f 259//38 260//38 261//38
f 261//39 260//39 262//39
f 261//39 262//39 263//39
f 263//40 262//40 264//40
f 263//40 264//40 265//40
f 265//41 264//41 266//41
f 265//41 266//41 267//41
f 267//42 266//42 268//42
f 267//42 268//42 269//42
f 269//43 268//43 270//43
f 269//43 270//43 271//43
f 271//44 270//44 272//44
f 271//44 272//44 273//44
f 273//45 272//45 274//45
f 273//45 274//45 275//45
f 275//46 274//46 276//46
f 275//46 276//46 277//46
f 277//47 276//47 278//47
f 277//47 278//47 279//47
f 279//48 278//48 280//48
f 279//48 280//48 281//48
f 281//49 280//49 282//49
f 281//49 282//49 283//49
f 194//50 284//50 196//50
f 196//51 284//51 285//51
f 196//51 285//51 211//51
f 211//52 285//52 286//52
f 211//52 286//52 188//52
f 287//53 288//53 289//53
f 290//54 291//54 292//54
f 292//55 291//55 293//55
f 292//56 293//56 294//56
f 294//57 293//57 295//57
f 295//58 296//58 294//58
f 294//59 296//59 297//59
f 294//60 297//60 298//60
f 297//61 299//61 298//61
f 298//62 299//62 300//62
f 298//63 300//63 301//63
f 300//64 302//64 301//64
f 301//65 302//65 303//65
f 301//66 303//66 304//66
f 303//67 305//67 304//67
f 304//68 305//68 306//68
f 304//69 306//69 307//69
f 306//70 308//70 307//70
f 307//71 308//71 309//71
f 307//72 309//72 310//72
f 309//73 311//73 310//73
f 310//74 311//74 312//74
f 310//75 312//75 313//75
f 312//76 314//76 313//76
f 313//77 314//77 315//77
f 313//78 315//78 289//78
f 289//79 315//79 316//79
f 289//80 316//80 287//80
f 194//81 193//81 317//81
f 317//82 193//82 209//82
f 317//82 209//82 318//82
f 318//83 209//83 208//83
f 318//83 208//83 319//83
f 320//84 9//84 8//84
f 320//85 8//85 321//85
f 322//86 157//86 158//86
f 4//87 323//87 5//87
f 5//88 323//88 324//88
f 324//89 325//89 5//89
f 5//90 325//90 326//90
f 5//91 326//91 304//91
f 304//92 326//92 290//92
f 304//93 290//93 292//93
f 160//94 161//94 163//94
f 163//95 161//95 164//95
f 289//96 288//96 304//96
f 161//97 162//97 164//97
f 164//98 162//98 327//98
f 164//99 327//99 328//99
f 329//100 147//100 330//100
f 330//101 147//101 158//101
f 292//102 294//102 304//102
f 304//103 294//103 298//103
f 304//104 298//104 301//104
f 331//105 332//105 8//105
f 8//106 332//106 333//106
f 8//107 333//107 321//107
f 329//108 334//108 147//108
f 147//109 334//109 335//109
f 147//110 335//110 336//110
f 336//111 335//111 164//111
f 336//112 164//112 337//112
f 337//113 164//113 328//113
f 307//114 310//114 304//114
f 304//115 310//115 313//115
f 304//116 313//116 289//116
f 288//117 331//117 304//117
f 304//118 331//118 8//118
f 304//94 8//94 5//94
f 5//119 8//119 160//119
f 5//119 160//119 166//119
f 166//94 160//94 163//94
f 148//120 338//120 147//120
f 147//121 338//121 339//121
f 147//122 339//122 340//122
f 341//123 342//123 158//123
f 158//124 342//124 343//124
f 158//125 343//125 322//125
f 341//126 158//126 344//126
f 344//127 158//127 147//127
f 344//128 147//128 319//128
f 340//129 345//129 147//129
f 147//130 345//130 346//130
f 147//131 346//131 319//131
f 319//132 346//132 286//132
f 319//133 286//133 285//133
f 285//134 284//134 194//134
f 194//135 317//135 285//135
f 285//136 317//136 318//136
f 285//133 318//133 319//133
f 347//137 348//137 349//137
f 347//137 349//137 350//137
f 350//138 349//138 351//138
f 350//138 351//138 352//138
f 352//139 351//139 353//139
f 352//139 353//139 354//139
f 354//140 353//140 355//140
f 354//140 355//140 356//140
f 356//141 355//141 357//141
f 356//141 357//141 358//141
f 358//142 357//142 359//142
f 358//142 359//142 360//142
f 360//143 359//143 361//143
f 360//143 361//143 362//143
f 362//144 361//144 363//144
f 362//144 363//144 364//144
f 364//145 363//145 365//145
f 364//145 365//145 366//145
f 366//146 365//146 367//146
f 366//146 367//146 368//146
f 368//147 367//147 369//147
f 368//147 369//147 370//147
f 370//148 369//148 371//148
f 370//148 371//148 372//148
f 372//149 371//149 373//149
f 372//149 373//149 374//149
f 374//32 373//32 375//32
f 374//32 375//32 376//32
f 376//150 375//150 377//150
f 376//150 377//150 378//150
f 378//151 377//151 379//151
f 378//151 379//151 380//151
f 380//152 379//152 381//152
f 380//152 381//152 382//152
f 382//153 381//153 383//153
f 382//153 383//153 384//153
f 384//154 383//154 385//154
f 384//154 385//154 386//154
f 386//155 385//155 387//155
f 386//155 387//155 388//155
f 388//156 387//156 389//156
f 388//156 389//156 390//156
f 390//157 389//157 391//157
f 390//157 391//157 392//157
f 392//158 391//158 393//158
f 392//158 393//158 394//158
f 394//159 393//159 395//159
f 394//159 395//159 396//159
f 396//160 395//160 397//160
f 396//160 397//160 398//160
f 398//161 397//161 399//161
f 398//161 399//161 400//161
f 400//162 399//162 401//162
f 400//162 401//162 402//162
f 403//14 404//14 276//14
f 153//14 405//14 151//14
f 151//14 405//14 406//14
f 151//14 406//14 407//14
f 408//14 409//14 216//14
f 216//14 409//14 218//14
f 410//14 230//14 228//14
f 411//14 412//14 413//14
f 413//14 412//14 151//14
f 413//14 151//14 213//14
f 213//14 151//14 214//14
f 266//14 264//14 414//14
f 409//14 415//14 218//14
f 218//14 415//14 416//14
f 218//14 416//14 220//14
f 220//14 416//14 417//14
f 220//14 417//14 222//14
f 222//14 417//14 418//14
f 222//14 418//14 224//14
f 224//14 418//14 410//14
f 224//14 410//14 226//14
f 226//14 410//14 228//14
f 266//14 414//14 268//14
f 276//14 404//14 278//14
f 278//14 404//14 419//14
f 278//14 419//14 280//14
f 402//14 420//14 144//14
f 258//14 421//14 260//14
f 260//14 421//14 422//14
f 260//14 422//14 262//14
f 262//14 422//14 264//14
f 403//14 276//14 423//14
f 423//14 276//14 274//14
f 423//14 274//14 424//14
f 424//14 274//14 272//14
f 424//14 272//14 414//14
f 414//14 272//14 270//14
f 414//14 270//14 268//14
f 360//14 425//14 426//14
f 402//14 144//14 400//14
f 420//14 427//14 144//14
f 144//14 427//14 428//14
f 144//14 428//14 146//14
f 144//14 282//14 280//14
f 422//14 429//14 264//14
f 264//14 429//14 430//14
f 264//14 430//14 388//14
f 431//14 414//14 392//14
f 392//14 414//14 264//14
f 392//14 264//14 390//14
f 390//14 264//14 388//14
f 432//14 433//14 144//14
f 144//14 433//14 434//14
f 144//14 434//14 282//14
f 392//14 394//14 431//14
f 431//14 394//14 396//14
f 431//14 396//14 435//14
f 435//14 396//14 398//14
f 435//14 398//14 436//14
f 436//14 398//14 400//14
f 436//14 400//14 437//14
f 437//14 400//14 144//14
f 437//14 144//14 438//14
f 438//14 144//14 280//14
f 438//14 280//14 439//14
f 439//14 280//14 419//14
f 440//14 380//14 441//14
f 441//14 380//14 382//14
f 441//14 382//14 442//14
f 442//14 382//14 384//14
f 442//14 384//14 430//14
f 430//14 384//14 386//14
f 430//14 386//14 388//14
f 443//14 444//14 236//14
f 236//14 444//14 445//14
f 236//14 445//14 238//14
f 238//14 445//14 446//14
f 238//14 446//14 240//14
f 240//14 446//14 447//14
f 240//14 447//14 242//14
f 242//14 447//14 448//14
f 242//14 448//14 244//14
f 244//14 448//14 449//14
f 216//14 214//14 408//14
f 408//14 214//14 151//14
f 408//14 151//14 450//14
f 450//14 151//14 407//14
f 450//14 407//14 451//14
f 451//14 407//14 347//14
f 451//14 347//14 452//14
f 452//14 347//14 350//14
f 452//14 350//14 453//14
f 453//14 350//14 352//14
f 453//14 352//14 454//14
f 454//14 352//14 354//14
f 454//14 354//14 410//14
f 410//14 354//14 356//14
f 410//14 356//14 230//14
f 230//14 356//14 358//14
f 372//14 374//14 248//14
f 248//14 374//14 376//14
f 250//14 455//14 252//14
f 252//14 455//14 456//14
f 252//14 456//14 254//14
f 254//14 456//14 457//14
f 254//14 457//14 256//14
f 256//14 457//14 458//14
f 256//14 458//14 258//14
f 258//14 458//14 459//14
f 258//14 459//14 421//14
f 360//14 362//14 425//14
f 425//14 362//14 364//14
f 425//14 364//14 460//14
f 460//14 364//14 366//14
f 460//14 366//14 461//14
f 461//14 366//14 368//14
f 461//14 368//14 462//14
f 462//14 368//14 370//14
f 358//14 360//14 230//14
f 230//14 360//14 426//14
f 230//14 426//14 232//14
f 232//14 426//14 443//14
f 232//14 443//14 234//14
f 234//14 443//14 236//14
f 370//14 372//14 462//14
f 462//14 372//14 248//14
f 462//14 248//14 449//14
f 449//14 248//14 246//14
f 449//14 246//14 244//14
f 250//14 248//14 455//14
f 455//14 248//14 376//14
f 455//14 376//14 440//14
f 440//14 376//14 378//14
f 440//14 378//14 380//14
f 463//163 175//163 428//163
f 428//164 427//164 463//164
f 463//165 427//165 420//165
f 463//165 420//165 464//165
f 402//166 401//166 420//166
f 420//167 401//167 465//167
f 420//168 465//168 464//168
f 175//169 174//169 428//169
f 428//170 174//170 150//170
f 428//170 150//170 146//170
f 348//171 347//171 466//171
f 466//172 347//172 407//172
f 466//173 407//173 467//173
f 467//174 407//174 406//174
f 467//174 406//174 468//174
f 468//175 406//175 169//175
f 169//176 406//176 405//176
f 169//177 405//177 170//177
f 170//178 405//178 153//178
f 170//178 153//178 156//178
f 283//179 282//179 434//179
f 283//179 434//179 469//179
f 469//180 434//180 433//180
f 469//180 433//180 470//180
f 470//181 433//181 432//181
f 470//181 432//181 471//181
f 471//182 432//182 144//182
f 471//182 144//182 143//182
f 152//183 151//183 412//183
f 152//183 412//183 472//183
f 472//184 412//184 411//184
f 472//184 411//184 473//184
f 473//185 411//185 413//185
f 473//185 413//185 474//185
f 474//186 413//186 213//186
f 474//186 213//186 212//186
f 148//187 149//187 204//187
f 148//187 204//187 338//187
f 338//188 204//188 199//188
f 338//188 199//188 339//188
f 339//189 199//189 340//189
f 340//190 199//190 190//190
f 340//191 190//191 345//191
f 345//192 190//192 346//192
f 346//193 190//193 188//193
f 346//194 188//194 286//194
f 319//195 208//195 344//195
f 344//196 208//196 171//196
f 344//197 171//197 341//197
f 341//198 171//198 342//198
f 342//199 171//199 179//199
f 342//200 179//200 343//200
f 343//201 179//201 181//201
f 343//201 181//201 322//201
f 322//202 181//202 155//202
f 322//202 155//202 157//202
f 164//203 335//203 165//203
f 165//204 335//204 141//204
f 165//205 141//205 140//205
f 334//206 84//206 335//206
f 335//207 84//207 142//207
f 335//208 142//208 141//208
f 329//209 86//209 334//209
f 334//210 86//210 85//210
f 334//211 85//211 84//211
f 330//212 33//212 329//212
f 329//213 33//213 32//213
f 329//214 32//214 86//214
f 154//215 59//215 158//215
f 158//216 59//216 60//216
f 158//217 60//217 330//217
f 330//218 60//218 34//218
f 330//219 34//219 33//219
f 127//220 89//220 159//220
f 159//221 89//221 327//221
f 159//222 327//222 162//222
f 145//223 147//223 61//223
f 61//224 147//224 336//224
f 337//225 64//225 336//225
f 336//226 64//226 62//226
f 336//227 62//227 61//227
f 328//228 36//228 337//228
f 337//229 36//229 65//229
f 337//230 65//230 64//230
f 89//231 88//231 327//231
f 327//232 88//232 87//232
f 327//233 87//233 328//233
f 328//234 87//234 38//234
f 328//235 38//235 36//235
f 475//236 69//236 476//236
f 476//236 69//236 42//236
f 476//237 42//237 477//237
f 477//237 42//237 40//237
f 477//238 40//238 478//238
f 478//238 40//238 39//238
f 478//239 39//239 479//239
f 479//239 39//239 63//239
f 479//240 63//240 480//240
f 480//240 63//240 35//240
f 480//241 35//241 481//241
f 481//241 35//241 37//241
f 481//242 37//242 482//242
f 482//242 37//242 126//242
f 482//243 126//243 483//243
f 483//243 126//243 125//243
f 483//244 125//244 484//244
f 484//244 125//244 11//244
f 484//245 11//245 485//245
f 485//245 11//245 133//245
f 485//246 133//246 486//246
f 486//246 133//246 132//246
f 486//247 132//247 475//247
f 475//247 132//247 69//247
f 487//248 54//248 488//248
f 488//248 54//248 56//248
f 488//249 56//249 489//249
f 489//249 56//249 58//249
f 489//250 58//250 490//250
f 490//250 58//250 120//250
f 490//251 120//251 491//251
f 491//251 120//251 122//251
f 491//252 122//252 492//252
f 492//252 122//252 53//252
f 492//253 53//253 493//253
f 493//253 53//253 83//253
f 493//254 83//254 494//254
f 494//254 83//254 23//254
f 494//255 23//255 495//255
f 495//255 23//255 25//255
f 495//256 25//256 496//256
f 496//256 25//256 26//256
f 496//257 26//257 497//257
f 497//257 26//257 3//257
f 497//258 3//258 498//258
f 498//258 3//258 2//258
f 498//259 2//259 487//259
f 487//259 2//259 54//259
f 499//260 24//260 500//260
f 500//260 24//260 117//260
f 500//261 117//261 501//261
f 501//261 117//261 18//261
f 501//262 18//262 502//262
f 502//262 18//262 20//262
f 502//263 20//263 503//263
f 503//263 20//263 22//263
f 503//240 22//240 504//240
f 504//240 22//240 74//240
f 504//264 74//264 505//264
f 505//264 74//264 76//264
f 505//265 76//265 506//265
f 506//265 76//265 78//265
f 506//266 78//266 507//266
f 507//266 78//266 80//266
f 507//267 80//267 508//267
f 508//267 80//267 50//267
f 508//268 50//268 509//268
f 509//268 50//268 73//268
f 509//246 73//246 510//246
f 510//246 73//246 46//246
f 510//269 46//269 499//269
f 499//269 46//269 24//269
f 511//270 10//270 512//270
f 512//270 10//270 12//270
f 512//249 12//249 513//249
f 513//249 12//249 13//249
f 513//271 13//271 514//271
f 514//271 13//271 17//271
f 514//272 17//272 515//272
f 515//272 17//272 115//272
f 515//273 115//273 516//273
f 516//273 115//273 113//273
f 516//274 113//274 517//274
f 517//274 113//274 111//274
f 517//275 111//275 518//275
f 518//275 111//275 109//275
f 518//255 109//255 519//255
f 519//255 109//255 107//255
f 519//276 107//276 520//276
f 520//276 107//276 105//276
f 520//277 105//277 521//277
f 521//277 105//277 103//277
f 521//278 103//278 522//278
f 522//278 103//278 101//278
f 522//279 101//279 511//279
f 511//279 101//279 10//279
f 492//280 410//280 491//280
f 491//281 410//281 418//281
f 491//282 418//282 490//282
f 490//283 418//283 417//283
f 490//284 417//284 489//284
f 489//285 417//285 416//285
f 489//286 416//286 488//286
f 488//286 416//286 415//286
f 488//287 415//287 487//287
f 487//288 415//288 409//288
f 487//289 409//289 498//289
f 498//290 409//290 408//290
f 498//291 408//291 497//291
f 497//292 408//292 450//292
f 497//293 450//293 496//293
f 496//294 450//294 451//294
f 496//295 451//295 495//295
f 495//296 451//296 452//296
f 495//297 452//297 494//297
f 494//297 452//297 453//297
f 494//298 453//298 493//298
f 493//299 453//299 454//299
f 493//300 454//300 492//300
f 492//301 454//301 410//301
f 480//302 435//302 479//302
f 479//302 435//302 436//302
f 479//303 436//303 478//303
f 478//304 436//304 437//304
f 478//305 437//305 477//305
f 477//306 437//306 438//306
f 477//307 438//307 476//307
f 476//286 438//286 439//286
f 476//308 439//308 475//308
f 475//309 439//309 419//309
f 475//310 419//310 486//310
f 486//311 419//311 404//311
f 486//312 404//312 485//312
f 485//312 404//312 403//312
f 485//313 403//313 484//313
f 484//314 403//314 423//314
f 484//315 423//315 483//315
f 483//316 423//316 424//316
f 483//317 424//317 482//317
f 482//297 424//297 414//297
f 482//318 414//318 481//318
f 481//319 414//319 431//319
f 481//320 431//320 480//320
f 480//321 431//321 435//321
f 516//322 456//322 515//322
f 515//302 456//302 455//302
f 515//323 455//323 514//323
f 514//324 455//324 440//324
f 514//325 440//325 513//325
f 513//326 440//326 441//326
f 513//327 441//327 512//327
f 512//327 441//327 442//327
f 512//328 442//328 511//328
f 511//329 442//329 430//329
f 511//330 430//330 522//330
f 522//331 430//331 429//331
f 522//332 429//332 521//332
f 521//312 429//312 422//312
f 521//333 422//333 520//333
f 520//334 422//334 421//334
f 520//335 421//335 519//335
f 519//336 421//336 459//336
f 519//337 459//337 518//337
f 518//337 459//337 458//337
f 518//338 458//338 517//338
f 517//339 458//339 457//339
f 517//340 457//340 516//340
f 516//341 457//341 456//341
f 504//281 446//281 503//281
f 503//281 446//281 445//281
f 503//342 445//342 502//342
f 502//343 445//343 444//343
f 502//344 444//344 501//344
f 501//345 444//345 443//345
f 501//346 443//346 500//346
f 500//327 443//327 426//327
f 500//347 426//347 499//347
f 499//348 426//348 425//348
f 499//349 425//349 510//349
f 510//350 425//350 460//350
f 510//292 460//292 509//292
f 509//292 460//292 461//292
f 509//351 461//351 508//351
f 508//352 461//352 462//352
f 508//353 462//353 507//353
f 507//354 462//354 449//354
f 507//355 449//355 506//355
f 506//337 449//337 448//337
f 506//356 448//356 505//356
f 505//357 448//357 447//357
f 505//358 447//358 504//358
f 504//359 447//359 446//359
f 152//360 29//360 154//360
f 154//360 29//360 59//360
f 29//361 152//361 472//361
f 29//362 472//362 27//362
f 27//363 472//363 473//363
f 27//364 473//364 28//364
f 28//365 473//365 474//365
f 28//366 474//366 30//366
f 30//367 474//367 212//367
f 30//368 212//368 31//368
f 31//369 212//369 215//369
f 31//370 215//370 1//370
f 1//371 215//371 217//371
f 1//372 217//372 55//372
f 55//373 217//373 219//373
f 55//374 219//374 57//374
f 57//375 219//375 221//375
f 57//376 221//376 121//376
f 121//377 221//377 223//377
f 121//378 223//378 123//378
f 123//379 223//379 225//379
f 123//380 225//380 124//380
f 124//381 225//381 227//381
f 124//382 227//382 51//382
f 51//383 227//383 229//383
f 51//384 229//384 52//384
f 52//385 229//385 231//385
f 52//386 231//386 118//386
f 118//387 231//387 233//387
f 118//388 233//388 119//388
f 119//389 233//389 235//389
f 119//390 235//390 19//390
f 19//391 235//391 237//391
f 19//392 237//392 21//392
f 21//393 237//393 239//393
f 21//394 239//394 75//394
f 75//395 239//395 241//395
f 75//396 241//396 77//396
f 77//397 241//397 243//397
f 77//398 243//398 79//398
f 79//399 243//399 245//399
f 79//400 245//400 81//400
f 81//401 245//401 247//401
f 81//402 247//402 82//402
f 82//403 247//403 249//403
f 82//403 249//403 116//403
f 116//404 249//404 251//404
f 116//405 251//405 114//405
f 114//406 251//406 253//406
f 114//407 253//407 112//407
f 112//408 253//408 255//408
f 112//409 255//409 110//409
f 110//410 255//410 257//410
f 110//411 257//411 108//411
f 108//412 257//412 259//412
f 108//413 259//413 106//413
f 106//414 259//414 261//414
f 106//415 261//415 104//415
f 104//416 261//416 263//416
f 104//417 263//417 102//417
f 102//418 263//418 265//418
f 102//419 265//419 100//419
f 100//420 265//420 267//420
f 100//421 267//421 128//421
f 128//422 267//422 269//422
f 128//423 269//423 129//423
f 129//424 269//424 271//424
f 129//425 271//425 136//425
f 136//426 271//426 273//426
f 136//427 273//427 135//427
f 135//428 273//428 275//428
f 135//429 275//429 134//429
f 134//430 275//430 277//430
f 134//431 277//431 70//431
f 70//432 277//432 279//432
f 70//433 279//433 68//433
f 68//434 279//434 281//434
f 68//435 281//435 67//435
f 67//436 281//436 283//436
f 67//437 283//437 43//437
f 43//438 283//438 469//438
f 43//439 469//439 44//439
f 44//440 469//440 470//440
f 44//441 470//441 45//441
f 45//442 470//442 471//442
f 45//443 471//443 66//443
f 66//444 471//444 143//444
f 66//445 143//445 41//445
f 145//446 61//446 143//446
f 143//446 61//446 41//446
f 468//447 169//447 168//447
f 175//448 463//448 176//448
f 176//449 463//449 464//449
f 176//450 464//450 465//450
f 467//451 468//451 466//451
f 466//452 468//452 168//452
f 466//453 168//453 348//453
f 348//454 168//454 167//454
f 348//455 167//455 349//455
f 349//456 167//456 183//456
f 349//457 183//457 351//457
f 351//458 183//458 182//458
f 351//459 182//459 353//459
f 353//460 182//460 180//460
f 353//461 180//461 355//461
f 355//462 180//462 178//462
f 355//463 178//463 357//463
f 357//464 178//464 177//464
f 357//465 177//465 359//465
f 359//466 177//466 186//466
f 359//467 186//467 361//467
f 361//468 186//468 185//468
f 361//469 185//469 363//469
f 363//470 185//470 184//470
f 363//471 184//471 365//471
f 365//472 184//472 173//472
f 365//473 173//473 367//473
f 367//474 173//474 172//474
f 367//475 172//475 369//475
f 369//476 172//476 207//476
f 369//477 207//477 371//477
f 371//478 207//478 195//478
f 371//479 195//479 373//479
f 373//480 195//480 210//480
f 373//480 210//480 375//480
f 375//481 210//481 187//481
f 375//482 187//482 377//482
f 377//483 187//483 189//483
f 377//484 189//484 379//484
f 379//485 189//485 191//485
f 379//486 191//486 381//486
f 381//487 191//487 192//487
f 381//488 192//488 383//488
f 383//489 192//489 201//489
f 383//490 201//490 385//490
f 385//491 201//491 200//491
f 385//492 200//492 387//492
f 387//493 200//493 198//493
f 387//494 198//494 389//494
f 389//495 198//495 197//495
f 389//496 197//496 391//496
f 391//497 197//497 206//497
f 391//498 206//498 393//498
f 393//499 206//499 205//499
f 393//500 205//500 395//500
f 395//501 205//501 203//501
f 395//502 203//502 397//502
f 397//503 203//503 202//503
f 397//504 202//504 399//504
f 399//505 202//505 176//505
f 399//506 176//506 401//506
f 401//507 176//507 465//507
f 290//508 523//508 524//508
f 523//509 290//509 326//509
f 325//510 324//510 72//510
f 72//511 324//511 323//511
f 72//512 323//512 4//512
f 320//513 321//513 525//513
f 525//514 321//514 333//514
f 9//515 320//515 137//515
f 137//516 320//516 525//516
f 137//517 525//517 93//517
f 93//518 525//518 526//518
f 93//519 526//519 94//519
f 94//520 526//520 527//520
f 94//521 527//521 138//521
f 138//522 527//522 528//522
f 138//523 528//523 139//523
f 139//524 528//524 529//524
f 139//525 529//525 95//525
f 95//526 529//526 530//526
f 95//527 530//527 96//527
f 96//528 530//528 531//528
f 96//529 531//529 97//529
f 97//530 531//530 532//530
f 97//531 532//531 15//531
f 15//532 532//532 533//532
f 15//533 533//533 16//533
f 16//534 533//534 534//534
f 16//535 534//535 98//535
f 98//536 534//536 535//536
f 98//537 535//537 99//537
f 99//538 535//538 536//538
f 99//539 536//539 130//539
f 130//540 536//540 537//540
f 130//541 537//541 131//541
f 131//542 537//542 538//542
f 131//543 538//543 48//543
f 48//544 538//544 539//544
f 48//545 539//545 49//545
f 49//546 539//546 540//546
f 49//547 540//547 90//547
f 90//548 540//548 541//548
f 90//549 541//549 91//549
f 91//550 541//550 542//550
f 91//551 542//551 92//551
f 92//552 542//552 543//552
f 92//553 543//553 47//553
f 47//554 543//554 544//554
f 47//555 544//555 72//555
f 72//556 544//556 545//556
f 72//557 545//557 325//557
f 333//558 332//558 525//558
f 525//559 332//559 546//559
f 525//560 546//560 526//560
f 526//561 546//561 547//561
f 526//562 547//562 527//562
f 527//563 547//563 548//563
f 527//564 548//564 528//564
f 528//565 548//565 549//565
f 528//566 549//566 529//566
f 529//567 549//567 550//567
f 529//568 550//568 530//568
f 530//569 550//569 551//569
f 530//570 551//570 531//570
f 531//571 551//571 552//571
f 531//572 552//572 532//572
f 532//573 552//573 553//573
f 532//574 553//574 533//574
f 533//575 553//575 554//575
f 533//576 554//576 534//576
f 534//577 554//577 555//577
f 534//578 555//578 535//578
f 535//579 555//579 556//579
f 535//580 556//580 536//580
f 536//581 556//581 557//581
f 536//582 557//582 537//582
f 537//583 557//583 558//583
f 537//584 558//584 538//584
f 538//585 558//585 559//585
f 538//586 559//586 539//586
f 539//587 559//587 560//587
f 539//588 560//588 540//588
f 540//589 560//589 561//589
f 540//590 561//590 541//590
f 541//591 561//591 562//591
f 541//592 562//592 542//592
f 542//593 562//593 563//593
f 542//594 563//594 543//594
f 543//595 563//595 564//595
f 543//596 564//596 544//596
f 544//597 564//597 524//597
f 544//598 524//598 545//598
f 545//599 524//599 523//599
f 545//600 523//600 325//600
f 325//601 523//601 326//601
f 332//602 331//602 546//602
f 546//603 331//603 288//603
f 546//604 288//604 547//604
f 547//605 288//605 287//605
f 547//606 287//606 548//606
f 548//607 287//607 316//607
f 548//608 316//608 549//608
f 549//609 316//609 315//609
f 549//610 315//610 550//610
f 550//611 315//611 314//611
f 550//612 314//612 551//612
f 551//613 314//613 312//613
f 551//614 312//614 552//614
f 552//615 312//615 311//615
f 552//616 311//616 553//616
f 553//617 311//617 309//617
f 553//618 309//618 554//618
f 554//619 309//619 308//619
f 554//620 308//620 555//620
f 555//621 308//621 306//621
f 555//622 306//622 556//622
f 556//623 306//623 305//623
f 556//624 305//624 557//624
f 557//625 305//625 303//625
f 557//626 303//626 558//626
f 558//627 303//627 302//627
f 558//628 302//628 559//628
f 559//629 302//629 300//629
f 559//630 300//630 560//630
f 560//631 300//631 299//631
f 560//632 299//632 561//632
f 561//633 299//633 297//633
f 561//634 297//634 562//634
f 562//635 297//635 296//635
f 562//636 296//636 563//636
f 563//637 296//637 295//637
f 563//638 295//638 564//638
f 564//639 295//639 293//639
f 564//640 293//640 524//640
f 524//641 293//641 291//641
f 524//642 291//642 290//642
# Vertices: 564, normals: 642, texture coordinates: 0, faces: 1140

