# stlbn R3_Back support frame
v 0 0 0.040786602
v 0 0 0.0507866
v 0 0.010133099 0.045786601
v 0 0.010383215 0.044853151
v 0 0.010383215 0.04672005
v 0 0.011066549 0.044169817
v 0 0.011066549 0.047403384
v 0 0.011999998 0.043919701
v 0 0.011999998 0.0476535
v 0 0.012933448 0.044169817
v 0 0.012933448 0.047403384
v 0 0.013616782 0.044853151
v 0 0.013616782 0.04672005
v 0 0.013866898 0.045786601
v 0 0.046 0.040786602
v 0 0.082033098 0.045786601
v 0 0.082283214 0.044853151
v 0 0.082283214 0.04672005
v 0 0.082966551 0.044169817
v 0 0.082966551 0.047403384
v 0 0.083900005 0.043919701
v 0 0.083900005 0.0476535
v 0 0.084833451 0.044169817
v 0 0.084833451 0.047403384
v 0 0.085516781 0.044853151
v 0 0.085516781 0.04672005
v 0 0.085766897 0.045786601
v 0 0.089900002 0.040786602
v 0 0.089900002 0.0507866
v 3.407523e-05 0.09015882 0.040820677
v 3.407523e-05 0.09015882 0.050752528
v 0.00013397634 0.090399995 0.040920578
v 0.00013397634 0.090399995 0.050652627
v 0.00050000101 0.090766028 0.041286603
v 0.00050000101 0.090766028 0.050286602
v 0.001000002 0.090900004 0.0417866
v 0.001000002 0.090900004 0.049786601
v 0.0011759996 0 0.045786601
v 0.0011759996 0.0096011981 0.045786601
v 0.0013801791 0 0.045024604
v 0.0013801791 0 0.046548601
v 0.0013801791 0.0096011981 0.045024604
v 0.0013801791 0.0096011981 0.046548601
v 0.0019380003 0 0.044466779
v 0.0019380003 0 0.047106422
v 0.0019380003 0.0096011981 0.044466779
v 0.0019380003 0.0096011981 0.047106422
v 0.0020000003 0.0229134 0.0507866
v 0.0020000003 0.069150001 0.0507866
v 0.0020612329 0.010133099 0.045786601
v 0.0020937622 0.010140043 0.045625746
v 0.0020937771 0.010140046 0.045947492
v 0.0021022223 0.069926456 0.0507866
v 0.002181612 0.010157246 0.045487311
v 0.002181612 0.010157246 0.046085894
v 0.0022283643 0.021765349 0.0507866
v 0.0022529364 0.010169473 0.045419876
v 0.0023826845 0.0229134 0.050710481
v 0.0023826845 0.069150001 0.050710481
v 0.0024019256 0.070649996 0.0507866
v 0.0024301074 0.010192573 0.045319133
v 0.0024301074 0.010192573 0.046254072
v 0.0025000013 0.0229134 0.050652627
v 0.0025000013 0.069150001 0.050652627
v 0.0025851876 0.069797046 0.050652627
v 0.0026903041 0.021956692 0.050652627
v 0.002700001 0 0.044262603
v 0.002700001 0 0.047310602
v 0.002700001 0.0096011981 0.044262603
v 0.002700001 0.0096011981 0.047310602
v 0.002700001 0.010206163 0.04526943
v 0.002700001 0.010206163 0.046303771
v 0.0027071089 0.0229134 0.05049371
v 0.0027071089 0.069150001 0.05049371
v 0.0028349385 0.0704 0.050652627
v 0.002866026 0.0229134 0.050286602
v 0.002866026 0.069150001 0.050286602
v 0.0028786808 0.020792078 0.0507866
v 0.0028786808 0.071271315 0.0507866
v 0.0029238798 0.0229134 0.050169285
v 0.0029238798 0.069150001 0.050169285
v 0.00293874 0.069702312 0.050286602
v 0.0029698946 0.010192573 0.045319133
v 0.0029698946 0.010192573 0.046254072
v 0.0030000024 0.0229134 0.043286603
v 0.0030000024 0.0229134 0.049786601
v 0.0030000024 0.069150001 0.043286603
v 0.0030000024 0.069150001 0.049786601
v 0.0030284673 0.022096762 0.050286602
v 0.0030681491 0.069667637 0.049786601
v 0.0031519234 0.070216984 0.050286602
v 0.0031522438 0.022148032 0.049786601
v 0.00321839 0.010157246 0.045487311
v 0.00321839 0.010157246 0.046085894
v 0.0032322332 0.021145632 0.050652627
v 0.0032322332 0.07091777 0.050652627
v 0.0032679513 0.0219134 0.043286603
v 0.0032679513 0.0219134 0.049786601
v 0.0032679513 0.070150003 0.043286603
v 0.0032679513 0.070150003 0.049786601
v 0.0033061802 0.010140054 0.045947596
v 0.0033062436 0.010140043 0.045625754
v 0.0033387728 0.010133099 0.045786601
v 0.0034620017 0 0.044466779
v 0.0034620017 0 0.047106422
v 0.0034620017 0.0096011981 0.044466779
v 0.0034620017 0.0096011981 0.047106422
v 0.0034910515 0.021404451 0.050286602
v 0.0034910515 0.070658945 0.050286602
v 0.0034999996 0.071748078 0.0507866
v 0.0035857894 0.021499185 0.049786601
v 0.0035857894 0.07056421 0.049786601
v 0.0037500001 0.071315065 0.050652627
v 0.0038519502 0.02014176 0.0507866
v 0.0039330125 0.070998073 0.050286602
v 0.0040000007 0.021181349 0.043286603
v 0.0040000007 0.021181349 0.049786601
v 0.0040000007 0.070882052 0.043286603
v 0.0040000007 0.070882052 0.049786601
v 0.0040198229 0 0.045024604
v 0.0040198229 0 0.046548601
v 0.0040198229 0.0096011981 0.045024604
v 0.0040198229 0.0096011981 0.046548601
v 0.0040432923 0.0206037 0.050652627
v 0.0041833632 0.020941865 0.050286602
v 0.0042235442 0.072047777 0.0507866
v 0.0042240024 0 0.045786601
v 0.0042240024 0.0096011981 0.045786601
v 0.0042346343 0.021065639 0.049786601
v 0.0043529533 0.071564816 0.050652627
v 0.0044 0 0.040786602
v 0.0044 0 0.0507866
v 0.0044 0.0061633997 0.040786602
v 0.0044 0.0061633997 0.0507866
v 0.0044476874 0.071211264 0.050286602
v 0.0044823624 0.071081847 0.049786601
v 0.0046205968 0.081236601 0.0507866
v 0.0046523474 0.07992205 0.0507866
v 0.004900001 0 0.040920578
v 0.004900001 0 0.050652627
v 0.004900001 0.0061633997 0.040920578
v 0.004900001 0.0061633997 0.050652627
v 0.0050000027 0.0199134 0.0507866
v 0.0050000027 0.020413399 0.050652627
v 0.0050000027 0.020779425 0.050286602
v 0.0050000027 0.0209134 0.043286603
v 0.0050000027 0.0209134 0.049786601
v 0.0050000027 0.071149997 0.043286603
v 0.0050000027 0.071149997 0.049786601
v 0.0050000027 0.071283974 0.050286602
v 0.0050000027 0.071649998 0.050652627
v 0.0050000027 0.072149999 0.0507866
v 0.0051109456 0.081138834 0.050652627
v 0.0051374026 0.080043375 0.050652627
v 0.005154077 0.082438461 0.0507866
v 0.0052432269 0.078747347 0.0507866
v 0.0052660257 0 0.041286603
v 0.0052660257 0 0.050286602
v 0.0052660257 0.0061633997 0.041286603
v 0.0052660257 0.0061633997 0.050286602
v 0.005400002 0 0.0417866
v 0.005400002 0 0.049786601
v 0.005400002 0.0061633997 0.0417866
v 0.005400002 0.0061633997 0.049786601
v 0.0054699071 0.081067264 0.050286602
v 0.0054924898 0.080132186 0.050286602
v 0.0055555142 0.082140386 0.050652627
v 0.0056012943 0.081041068 0.043286603
v 0.0056012943 0.081041068 0.049786601
v 0.0056224614 0.080164701 0.043286603
v 0.0056224614 0.080164701 0.049786601
v 0.005629804 0.079064459 0.050652627
v 0.0057217926 0.082016915 0.05049371
v 0.0058493838 0.081922174 0.050286602
v 0.0058958344 0.081887685 0.050169285
v 0.0059127957 0.079296589 0.050286602
v 0.0059569478 0.081842303 0.043286603
v 0.0059569478 0.081842303 0.049786601
v 0.0060163811 0.079381563 0.043286603
v 0.0060163811 0.079381563 0.049786601
v 0.0061009899 0.082033098 0.045786601
v 0.0061518773 0.08209902 0.045294881
v 0.0061519369 0.082099095 0.046278592
v 0.0062797144 0.077938177 0.0507866
v 0.0062972121 0.082283214 0.044853151
v 0.0062972121 0.082283214 0.04672005
v 0.0064935461 0.078390151 0.050652627
v 0.006553743 0.082594492 0.044452071
v 0.0065544359 0.082595311 0.047121931
v 0.006650079 0.078721017 0.050286602
v 0.006707374 0.078842118 0.043286603
v 0.006707374 0.078842118 0.049786601
v 0.0068795457 0.082966551 0.044169817
v 0.0068795457 0.082966551 0.047403384
v 0.0070984028 0.046 0.040786602
v 0.0070984028 0.046 0.043286603
v 0.0071445107 0.084654078 0.0507866
v 0.0074041486 0.084372945 0.050710481
v 0.0075626895 0.077649996 0.0507866
v 0.0075626895 0.078150004 0.050652627
v 0.0075626895 0.078516021 0.050286602
v 0.0075626895 0.078649998 0.043286603
v 0.0075626895 0.078649998 0.049786601
v 0.0076242611 0.084134616 0.05049371
v 0.007688418 0.039256096 0.040786602
v 0.007688418 0.039256096 0.043286603
v 0.007688418 0.052743904 0.040786602
v 0.007688418 0.052743904 0.043286603
v 0.0076928288 0.011545807 0.0507866
v 0.0077559948 0.010787167 0.0507866
v 0.0077713318 0.083975367 0.050169285
v 0.0078019612 0.083900005 0.043919701
v 0.0078019612 0.083900005 0.0476535
v 0.0078226514 0.01229592 0.0507866
v 0.0078229792 0.083919451 0.049786601
v 0.0080080815 0.010068852 0.0507866
v 0.0081370994 0.012989208 0.0507866
v 0.0081923418 0.011523739 0.050652627
v 0.0082449801 0.010891538 0.050652627
v 0.0083005242 0.012148835 0.050652627
v 0.0083473995 0.08438161 0.043286603
v 0.0083473995 0.08438161 0.043982893
v 0.008432854 0.0094371103 0.0507866
v 0.0084550492 0.010292944 0.050652627
v 0.0085580088 0.011507586 0.050286602
v 0.0085625648 0.012726575 0.050652627
v 0.0086029433 0.010967944 0.050286602
v 0.0086159259 0.013581026 0.0507866
v 0.008650355 0.012041159 0.050286602
v 0.0086918548 0.01150167 0.043286603
v 0.0086918548 0.01150167 0.043987438
v 0.0086918548 0.01150167 0.047585763
v 0.0086918548 0.01150167 0.049786601
v 0.0087202117 0.011066549 0.044169817
v 0.0087202117 0.011066549 0.047403384
v 0.0087339655 0.01099591 0.049786601
v 0.0087778643 0.011999998 0.043919701
v 0.0087778643 0.011999998 0.0476535
v 0.0087784007 0.012001749 0.049786601
v 0.0087822564 0.010456987 0.050286602
v 0.0088090263 0.009766493 0.050652627
v 0.0088740289 0.012534313 0.050286602
v 0.0089020208 0.010517035 0.043286603
v 0.0089020208 0.010517035 0.044652525
v 0.0089020208 0.010517035 0.04692068
v 0.0089020208 0.010517035 0.049786601
v 0.0089037716 0.084827222 0.044166237
v 0.0089119449 0.084833451 0.047403384
v 0.0089615881 0.013219755 0.050652627
v 0.0089750849 0.010384135 0.046721641
v 0.0089756362 0.010383215 0.044853151
v 0.008988034 0.012463938 0.043286603
v 0.008988034 0.012463938 0.043978266
v 0.008988034 0.012463938 0.047594935
v 0.008988034 0.012463938 0.049786601
v 0.0090029612 0.0089326315 0.0507866
v 0.0090681016 0.016999999 0.040786602
v 0.0090681016 0.016999999 0.0507866
v 0.0090681016 0.075000003 0.040786602
v 0.0090681016 0.075000003 0.0507866
v 0.0090844072 0.010007616 0.050286602
v 0.0091009885 0.010198761 0.045295835
v 0.0091011971 0.010198489 0.046276376
v 0.0091534071 0.010133099 0.045786601
v 0.0091852024 0.010095876 0.049786601
v 0.0092146322 0.012955286 0.050286602
v 0.0092181489 0.00924908 0.050710481
v 0.0092283003 0.014033269 0.0507866
v 0.0092841163 0.0093460903 0.050652627
v 0.0093072541 0.012858484 0.049786601
v 0.0093182176 0.016066549 0.040786602
v 0.0093182176 0.016066549 0.0507866
v 0.0093182176 0.017933449 0.040786602
v 0.0093182176 0.017933449 0.0507866
v 0.0093182176 0.07406655 0.040786602
v 0.0093182176 0.07406655 0.0507866
v 0.0093182176 0.075933449 0.040786602
v 0.0093182176 0.075933449 0.0507866
v 0.0093901195 0.012933448 0.044169817
v 0.0094005764 0.009517353 0.05049371
v 0.0094201267 0.085203886 0.047122709
v 0.0094205514 0.085204184 0.044450786
v 0.0094248392 0.012962464 0.047386281
v 0.0094405338 0.032717101 0.040786602
v 0.0094405338 0.032717101 0.043286603
v 0.0094405338 0.059282899 0.040786602
v 0.0094405338 0.059282899 0.043286603
v 0.0094719008 0.013596624 0.050652627
v 0.0094899386 0.0096487664 0.050286602
v 0.009511102 0.086462393 0.0507866
v 0.0095224716 0.0096966065 0.050169285
v 0.0095652752 0.0097595528 0.043286603
v 0.0095652752 0.0097595528 0.049786601
v 0.0096502304 0.013276976 0.050286602
v 0.0097125657 0.013158336 0.044322506
v 0.0097141378 0.08613801 0.050710481
v 0.0097155012 0.013159979 0.043286603
v 0.0097155012 0.013159979 0.047249395
v 0.0097155012 0.013159979 0.049786601
v 0.0098862611 0.085863017 0.05049371
v 0.0098872446 0.085516781 0.044853151
v 0.0098872446 0.085516781 0.04672005
v 0.0099347904 0.014316812 0.0507866
v 0.010001272 0.08567927 0.050169285
v 0.010001551 0.015383216 0.040786602
v 0.010001551 0.015383216 0.0507866
v 0.010001551 0.018616783 0.040786602
v 0.010001551 0.018616783 0.0507866
v 0.010001551 0.073383212 0.040786602
v 0.010001551 0.073383212 0.0507866
v 0.010001551 0.076616779 0.040786602
v 0.010001551 0.076616779 0.0507866
v 0.010041658 0.085614741 0.049786601
v 0.010060646 0.013832908 0.050652627
v 0.010152776 0.01347867 0.050286602
v 0.010170452 0.085694462 0.046301614
v 0.010170564 0.085694522 0.045271832
v 0.010174926 0.013345961 0.047080319
v 0.010176189 0.013346296 0.044493236
v 0.010186497 0.013349008 0.049786601
v 0.010290079 0.085766897 0.045786601
v 0.010689907 0.013413399 0.043286603
v 0.010689907 0.013413399 0.044566922
v 0.010689907 0.013413399 0.047006279
v 0.010689907 0.013413399 0.049786601
v 0.010689907 0.013547372 0.050286602
v 0.010689907 0.0139134 0.050652627
v 0.010689907 0.014413398 0.0507866
v 0.010935001 0.0151331 0.040786602
v 0.010935001 0.0151331 0.0507866
v 0.010935001 0.018866898 0.040786602
v 0.010935001 0.018866898 0.0507866
v 0.010935001 0.073133096 0.040786602
v 0.010935001 0.073133096 0.0507866
v 0.010935001 0.076866895 0.040786602
v 0.010935001 0.076866895 0.0507866
v 0.011071011 0.0077415742 0.0507866
v 0.011236735 0.00808651 0.050710481
v 0.011259623 0.086300269 0.043286603
v 0.011259623 0.086300269 0.049786601
v 0.01137723 0.0083789341 0.05049371
v 0.011471108 0.0085743256 0.050169285
v 0.011504073 0.008642938 0.049786601
v 0.011868451 0.015383216 0.040786602
v 0.011868451 0.015383216 0.0507866
v 0.011868451 0.018616783 0.040786602
v 0.011868451 0.018616783 0.0507866
v 0.011868451 0.073383212 0.040786602
v 0.011868451 0.073383212 0.0507866
v 0.011868451 0.076616779 0.040786602
v 0.011868451 0.076616779 0.0507866
v 0.011874501 0.013413399 0.044566922
v 0.011874501 0.013413399 0.047006279
v 0.011874501 0.013616782 0.044853151
v 0.011874501 0.013616782 0.04672005
v 0.011874501 0.013866898 0.045786601
v 0.011994511 0.013413399 0.044902436
v 0.011994511 0.013413399 0.046670768
v 0.012146991 0.013413399 0.045786601
v 0.012171846 0.087800756 0.0507866
v 0.012184683 0.0083365366 0.043286603
v 0.01230152 0.026581699 0.040786602
v 0.01230152 0.026581699 0.043286603
v 0.01230152 0.065418303 0.040786602
v 0.01230152 0.065418303 0.043286603
v 0.012311243 0.087444365 0.050710481
v 0.012429416 0.087142229 0.05049371
v 0.012508377 0.086940348 0.050169285
v 0.012536105 0.086869463 0.049786601
v 0.012551785 0.016066549 0.040786602
v 0.012551785 0.016066549 0.0507866
v 0.012551785 0.017933449 0.040786602
v 0.012551785 0.017933449 0.0507866
v 0.012551785 0.07406655 0.040786602
v 0.012551785 0.07406655 0.0507866
v 0.012551785 0.075933449 0.040786602
v 0.012551785 0.075933449 0.0507866
v 0.012801901 0.016999999 0.040786602
v 0.012801901 0.016999999 0.0507866
v 0.012801901 0.075000003 0.040786602
v 0.012801901 0.075000003 0.0507866
v 0.013 0.013413399 0.043286603
v 0.013 0.013413399 0.049786601
v 0.013 0.013547372 0.050286602
v 0.013 0.0139134 0.050652627
v 0.013 0.014413398 0.0507866
v 0.013 0.0199134 0.0507866
v 0.013 0.020413399 0.050652627
v 0.013 0.020779425 0.050286602
v 0.013 0.0209134 0.043286603
v 0.013 0.0209134 0.049786601
v 0.013 0.071149997 0.043286603
v 0.013 0.071149997 0.049786601
v 0.013 0.071283974 0.050286602
v 0.013 0.071649998 0.050652627
v 0.013 0.072149999 0.0507866
v 0.013 0.077649996 0.0507866
v 0.013 0.078032687 0.050710481
v 0.013 0.078150004 0.050652627
v 0.013 0.0783571 0.05049371
v 0.013 0.078516021 0.050286602
v 0.013 0.078573883 0.050169285
v 0.013 0.078649998 0.043286603
v 0.013 0.078649998 0.049786601
v 0.013293214 0.0068713687 0.0507866
v 0.013405789 0.0072371215 0.050710481
v 0.013500001 0.014547374 0.0507866
v 0.013500001 0.019779425 0.0507866
v 0.013500001 0.072283976 0.0507866
v 0.013500001 0.077516019 0.0507866
v 0.013501227 0.0075471886 0.05049371
v 0.013564996 0.0077543706 0.050169285
v 0.013587389 0.0078271218 0.049786601
v 0.013691343 0.077847436 0.050710481
v 0.013750002 0.014114361 0.050652627
v 0.013750002 0.020212438 0.050652627
v 0.013750002 0.071850963 0.050652627
v 0.013853554 0.078128397 0.05049371
v 0.013866026 0.014913399 0.0507866
v 0.013866026 0.019413399 0.0507866
v 0.013866026 0.07265 0.0507866
v 0.013866026 0.077150002 0.0507866
v 0.013933014 0.013797373 0.050286602
v 0.013933014 0.020529425 0.050286602
v 0.013933014 0.071533978 0.050286602
v 0.013961941 0.078316122 0.050169285
v 0.014000002 0.013681348 0.043286603
v 0.014000002 0.013681348 0.049786601
v 0.014000002 0.0154134 0.0507866
v 0.014000002 0.018913399 0.0507866
v 0.014000002 0.020645451 0.043286603
v 0.014000002 0.020645451 0.049786601
v 0.014000002 0.07141795 0.043286603
v 0.014000002 0.07141795 0.049786601
v 0.014000002 0.073150001 0.0507866
v 0.014000002 0.076650001 0.0507866
v 0.014000002 0.078382045 0.043286603
v 0.014000002 0.078382045 0.049786601
v 0.014197439 0.07734134 0.050710481
v 0.014299039 0.014663398 0.050652627
v 0.014299039 0.019663399 0.050652627
v 0.014299039 0.072400004 0.050652627
v 0.014382686 0.076650001 0.050710481
v 0.0144784 0.077503547 0.05049371
v 0.0145 0.0154134 0.050652627
v 0.0145 0.018913399 0.050652627
v 0.0145 0.073150001 0.050652627
v 0.0145 0.076650001 0.050652627
v 0.014536195 0.087494589 0.043286603
v 0.014616027 0.014480386 0.050286602
v 0.014616027 0.019846411 0.050286602
v 0.014616027 0.072216988 0.050286602
v 0.014666129 0.077611938 0.050169285
v 0.014707107 0.076650001 0.05049371
v 0.014732052 0.014413398 0.043286603
v 0.014732052 0.014413398 0.049786601
v 0.014732052 0.0199134 0.043286603
v 0.014732052 0.0199134 0.049786601
v 0.014732052 0.072149999 0.043286603
v 0.014732052 0.072149999 0.049786601
v 0.014732052 0.077649996 0.043286603
v 0.014732052 0.077649996 0.049786601
v 0.014866026 0.0154134 0.050286602
v 0.014866026 0.018913399 0.050286602
v 0.014866026 0.073150001 0.050286602
v 0.014866026 0.076650001 0.050286602
v 0.01492388 0.076650001 0.050169285
v 0.015000001 0.0154134 0.043286603
v 0.015000001 0.0154134 0.049786601
v 0.015000001 0.018913399 0.043286603
v 0.015000001 0.018913399 0.049786601
v 0.015000001 0.073150001 0.043286603
v 0.015000001 0.073150001 0.049786601
v 0.015000001 0.076650001 0.043286603
v 0.015000001 0.076650001 0.049786601
v 0.015033768 0.007459607 0.043286603
v 0.015033768 0.007459607 0.049786601
v 0.015034545 0.088622786 0.0507866
v 0.015105473 0.088246733 0.050710481
v 0.015165601 0.08792793 0.05049371
v 0.015205778 0.087714911 0.050169285
v 0.015219886 0.087640114 0.049786601
v 0.015620135 0.0063413829 0.0507866
v 0.015677055 0.006719809 0.050710481
v 0.015725311 0.0070406236 0.05049371
v 0.015757553 0.0072549842 0.050169285
v 0.015768876 0.0073302574 0.049786601
v 0.01618444 0.021036314 0.040786602
v 0.01618444 0.021036314 0.043286603
v 0.01618444 0.070963681 0.040786602
v 0.01618444 0.070963681 0.043286603
v 0.018000001 0.0061633997 0.0507866
v 0.018000001 0.0065460838 0.050710481
v 0.018000001 0.0066634007 0.050652627
v 0.018000001 0.0068705045 0.05049371
v 0.018000001 0.0070294254 0.050286602
v 0.018000001 0.0070872791 0.050169285
v 0.018000001 0.007163398 0.043286603
v 0.018000001 0.007163398 0.049786601
v 0.018000001 0.087899998 0.043286603
v 0.018000001 0.087899998 0.049786601
v 0.018000001 0.08797612 0.050169285
v 0.018000001 0.088033974 0.050286602
v 0.018000001 0.088192895 0.05049371
v 0.018000001 0.088399999 0.050652627
v 0.018000001 0.088517316 0.050710481
v 0.018000001 0.0889 0.0507866
v 0.020971317 0.016249437 0.040786602
v 0.020971317 0.016249437 0.043286603
v 0.020971317 0.07575056 0.040786602
v 0.020971317 0.07575056 0.043286603
v 0.026516702 0.012366518 0.040786602
v 0.026516702 0.012366518 0.043286603
v 0.026516702 0.079633482 0.040786602
v 0.026516702 0.079633482 0.043286603
v 0.032652102 0.0095055327 0.040786602
v 0.032652102 0.0095055327 0.043286603
v 0.032652102 0.082494467 0.040786602
v 0.032652102 0.082494467 0.043286603
v 0.039191097 0.0077534132 0.040786602
v 0.039191097 0.0077534132 0.043286603
v 0.039191097 0.084246583 0.040786602
v 0.039191097 0.084246583 0.043286603
v 0.045935001 0.0061633997 0.040786602
v 0.045935001 0.007163398 0.040786602
v 0.045935001 0.007163398 0.043286603
v 0.045935001 0.084836602 0.040786602
v 0.045935001 0.084836602 0.043286603
v 0.045935001 0.089900002 0.040786602
v 0.052678905 0.0077534132 0.040786602
v 0.052678905 0.0077534132 0.043286603
v 0.052678905 0.084246583 0.040786602
v 0.052678905 0.084246583 0.043286603
v 0.0592179 0.0095055327 0.040786602
v 0.0592179 0.0095055327 0.043286603
v 0.0592179 0.082494467 0.040786602
v 0.0592179 0.082494467 0.043286603
v 0.065353304 0.012366518 0.040786602
v 0.065353304 0.012366518 0.043286603
v 0.065353304 0.079633482 0.040786602
v 0.065353304 0.079633482 0.043286603
v 0.070898682 0.016249437 0.040786602
v 0.070898682 0.016249437 0.043286603
v 0.070898682 0.07575056 0.040786602
v 0.070898682 0.07575056 0.043286603
v 0.073870003 0.0061633997 0.0507866
v 0.073870003 0.0066634007 0.050652627
v 0.073870003 0.0070294254 0.050286602
v 0.073870003 0.007163398 0.043286603
v 0.073870003 0.007163398 0.049786601
v 0.073870003 0.087899998 0.043286603
v 0.073870003 0.087899998 0.049786601
v 0.073870003 0.08797612 0.050169285
v 0.073870003 0.088033974 0.050286602
v 0.073870003 0.088192895 0.05049371
v 0.073870003 0.088399999 0.050652627
v 0.073870003 0.088517316 0.050710481
v 0.073870003 0.0889 0.0507866
v 0.075685561 0.021036314 0.040786602
v 0.075685561 0.021036314 0.043286603
v 0.075685561 0.070963681 0.040786602
v 0.075685561 0.070963681 0.043286603
v 0.076101124 0.0073302574 0.049786601
v 0.076121055 0.0071977749 0.050286602
v 0.076175496 0.0068358183 0.050652627
v 0.076249868 0.0063413829 0.0507866
v 0.076650113 0.087640114 0.049786601
v 0.076664224 0.087714911 0.050169285
v 0.076704398 0.08792793 0.05049371
v 0.076764531 0.088246733 0.050710481
v 0.076835454 0.088622786 0.0507866
v 0.076836236 0.007459607 0.043286603
v 0.076870002 0.0154134 0.043286603
v 0.076870002 0.0154134 0.049786601
v 0.076870002 0.018913399 0.043286603
v 0.076870002 0.018913399 0.049786601
v 0.076870002 0.073150001 0.043286603
v 0.076870002 0.073150001 0.049786601
v 0.076870002 0.076650001 0.043286603
v 0.076870002 0.076650001 0.049786601
v 0.076946124 0.076650001 0.050169285
v 0.077003978 0.0154134 0.050286602
v 0.077003978 0.018913399 0.050286602
v 0.077003978 0.073150001 0.050286602
v 0.077003978 0.076650001 0.050286602
v 0.077137947 0.014413398 0.043286603
v 0.077137947 0.014413398 0.049786601
v 0.077137947 0.0199134 0.043286603
v 0.077137947 0.0199134 0.049786601
v 0.077137947 0.072149999 0.043286603
v 0.077137947 0.072149999 0.049786601
v 0.077137947 0.077649996 0.043286603
v 0.077137947 0.077649996 0.049786601
v 0.077162892 0.076650001 0.05049371
v 0.07720387 0.077611938 0.050169285
v 0.077253975 0.014480386 0.050286602
v 0.077253975 0.019846411 0.050286602
v 0.077253975 0.072216988 0.050286602
v 0.077333808 0.087494589 0.043286603
v 0.077370003 0.0154134 0.050652627
v 0.077370003 0.018913399 0.050652627
v 0.077370003 0.073150001 0.050652627
v 0.077370003 0.076650001 0.050652627
v 0.077391602 0.077503547 0.05049371
v 0.07748732 0.076650001 0.050710481
v 0.07757096 0.014663398 0.050652627
v 0.07757096 0.019663399 0.050652627
v 0.07757096 0.072400004 0.050652627
v 0.077672563 0.07734134 0.050710481
v 0.077869996 0.013681348 0.043286603
v 0.077869996 0.013681348 0.049786601
v 0.077869996 0.0154134 0.0507866
v 0.077869996 0.018913399 0.0507866
v 0.077869996 0.020645451 0.043286603
v 0.077869996 0.020645451 0.049786601
v 0.077869996 0.07141795 0.043286603
v 0.077869996 0.07141795 0.049786601
v 0.077869996 0.073150001 0.0507866
v 0.077869996 0.076650001 0.0507866
v 0.077869996 0.078382045 0.043286603
v 0.077869996 0.078382045 0.049786601
v 0.077908061 0.078316122 0.050169285
v 0.077936992 0.013797373 0.050286602
v 0.077936992 0.020529425 0.050286602
v 0.077936992 0.071533978 0.050286602
v 0.078003973 0.014913399 0.0507866
v 0.078003973 0.019413399 0.0507866
v 0.078003973 0.07265 0.0507866
v 0.078003973 0.077150002 0.0507866
v 0.078016445 0.078128397 0.05049371
v 0.078120001 0.014114361 0.050652627
v 0.078120001 0.020212438 0.050652627
v 0.078120001 0.071850963 0.050652627
v 0.078178659 0.077847436 0.050710481
v 0.07828261 0.0078271218 0.049786601
v 0.078322023 0.0076990761 0.050286602
v 0.078370005 0.014547374 0.0507866
v 0.078370005 0.019779425 0.0507866
v 0.078370005 0.072283976 0.0507866
v 0.078370005 0.077516019 0.0507866
v 0.078429699 0.0073492453 0.050652627
v 0.078576788 0.0068713687 0.0507866
v 0.078869998 0.013413399 0.043286603
v 0.078869998 0.013413399 0.049786601
v 0.078869998 0.013547372 0.050286602
v 0.078869998 0.0139134 0.050652627
v 0.078869998 0.014413398 0.0507866
v 0.078869998 0.0199134 0.0507866
v 0.078869998 0.020413399 0.050652627
v 0.078869998 0.020779425 0.050286602
v 0.078869998 0.0209134 0.043286603
v 0.078869998 0.0209134 0.049786601
v 0.078869998 0.071149997 0.043286603
v 0.078869998 0.071149997 0.049786601
v 0.078869998 0.071283974 0.050286602
v 0.078869998 0.071649998 0.050652627
v 0.078869998 0.072149999 0.0507866
v 0.078869998 0.077649996 0.0507866
v 0.078869998 0.078032687 0.050710481
v 0.078869998 0.078150004 0.050652627
v 0.078869998 0.0783571 0.05049371
v 0.078869998 0.078516021 0.050286602
v 0.078869998 0.078573883 0.050169285
v 0.078869998 0.078649998 0.043286603
v 0.078869998 0.078649998 0.049786601
v 0.079068102 0.016999999 0.040786602
v 0.079068102 0.016999999 0.0507866
v 0.079068102 0.075000003 0.040786602
v 0.079068102 0.075000003 0.0507866
v 0.079318218 0.016066549 0.040786602
v 0.079318218 0.016066549 0.0507866
v 0.079318218 0.017933449 0.040786602
v 0.079318218 0.017933449 0.0507866
v 0.079318218 0.07406655 0.040786602
v 0.079318218 0.07406655 0.0507866
v 0.079318218 0.075933449 0.040786602
v 0.079318218 0.075933449 0.0507866
v 0.079333901 0.086869463 0.049786601
v 0.079361625 0.086940348 0.050169285
v 0.079440586 0.087142229 0.05049371
v 0.07955876 0.087444365 0.050710481
v 0.079568483 0.026581699 0.040786602
v 0.079568483 0.026581699 0.043286603
v 0.079568483 0.065418303 0.040786602
v 0.079568483 0.065418303 0.043286603
v 0.079685315 0.0083365366 0.043286603
v 0.079685315 0.0083365366 0.049786601
v 0.07969816 0.087800756 0.0507866
v 0.079723015 0.013413399 0.045786601
v 0.079875492 0.013413399 0.044902436
v 0.079875492 0.013413399 0.046670768
v 0.079995498 0.013413399 0.044566922
v 0.079995498 0.013413399 0.047006279
v 0.079995498 0.013616782 0.044853151
v 0.079995498 0.013616782 0.04672005
v 0.079995498 0.013866898 0.045786601
v 0.080001548 0.015383216 0.040786602
v 0.080001548 0.015383216 0.0507866
v 0.080001548 0.018616783 0.040786602
v 0.080001548 0.018616783 0.0507866
v 0.080001548 0.073383212 0.040786602
v 0.080001548 0.073383212 0.0507866
v 0.080001548 0.076616779 0.040786602
v 0.080001548 0.076616779 0.0507866
v 0.080365926 0.008642938 0.049786601
v 0.080423951 0.008522179 0.050286602
v 0.080582462 0.0081922561 0.050652627
v 0.08061038 0.086300269 0.043286603
v 0.08061038 0.086300269 0.049786601
v 0.080798991 0.0077415742 0.0507866
v 0.080935001 0.0151331 0.040786602
v 0.080935001 0.0151331 0.0507866
v 0.080935001 0.018866898 0.040786602
v 0.080935001 0.018866898 0.0507866
v 0.080935001 0.073133096 0.040786602
v 0.080935001 0.073133096 0.0507866
v 0.080935001 0.076866895 0.040786602
v 0.080935001 0.076866895 0.0507866
v 0.081180096 0.013413399 0.043286603
v 0.081180096 0.013413399 0.044566922
v 0.081180096 0.013413399 0.047006279
v 0.081180096 0.013413399 0.049786601
v 0.081180096 0.013547372 0.050286602
v 0.081180096 0.0139134 0.050652627
v 0.081180096 0.014413398 0.0507866
v 0.081579924 0.085766897 0.045786601
v 0.081693813 0.013346296 0.044493236
v 0.08169508 0.013345961 0.047080319
v 0.081699438 0.085694522 0.046301372
v 0.08169955 0.085694462 0.04527159
v 0.081828341 0.085614741 0.049786601
v 0.081868455 0.015383216 0.040786602
v 0.081868455 0.015383216 0.0507866
v 0.081868455 0.018616783 0.040786602
v 0.081868455 0.018616783 0.0507866
v 0.081868455 0.073383212 0.040786602
v 0.081868455 0.073383212 0.0507866
v 0.081868455 0.076616779 0.040786602
v 0.081868455 0.076616779 0.0507866
v 0.08186873 0.08567927 0.050169285
v 0.081982762 0.085516781 0.044853151
v 0.081982762 0.085516781 0.04672005
v 0.081983745 0.085863017 0.05049371
v 0.082003042 0.013236243 0.049786601
v 0.082058169 0.013358351 0.050286602
v 0.082154498 0.013159979 0.043286603
v 0.082154498 0.013159979 0.047249395
v 0.082154498 0.013159979 0.049786601
v 0.082155868 0.08613801 0.050710481
v 0.082157433 0.013158336 0.044322506
v 0.082208775 0.013691954 0.050652627
v 0.082304731 0.0097595528 0.043286603
v 0.082304731 0.0097595528 0.049786601
v 0.082358897 0.086462393 0.0507866
v 0.082380064 0.0096487664 0.050286602
v 0.082414508 0.014147665 0.0507866
v 0.082429469 0.032717101 0.040786602
v 0.082429469 0.032717101 0.043286603
v 0.082429469 0.059282899 0.040786602
v 0.082429469 0.059282899 0.043286603
v 0.08244516 0.012962464 0.047386281
v 0.082449451 0.085204184 0.047122419
v 0.082449876 0.085203886 0.044450492
v 0.082479879 0.012933448 0.044169817
v 0.082551785 0.016066549 0.040786602
v 0.082551785 0.016066549 0.0507866
v 0.082551785 0.017933449 0.040786602
v 0.082551785 0.017933449 0.0507866
v 0.082551785 0.07406655 0.040786602
v 0.082551785 0.07406655 0.0507866
v 0.082551785 0.075933449 0.040786602
v 0.082551785 0.075933449 0.0507866
v 0.082585886 0.0093460903 0.050652627
v 0.082680196 0.012736164 0.049786601
v 0.082716599 0.010133099 0.045786601
v 0.082768805 0.010198489 0.046276376
v 0.082769014 0.010198761 0.045295835
v 0.082780682 0.01282477 0.050286602
v 0.082801901 0.016999999 0.040786602
v 0.082801901 0.016999999 0.0507866
v 0.082801901 0.075000003 0.040786602
v 0.082801901 0.075000003 0.0507866
v 0.082867041 0.0089326315 0.0507866
v 0.082881972 0.012463938 0.043286603
v 0.082881972 0.012463938 0.043978266
v 0.082881972 0.012463938 0.047594935
v 0.082881972 0.012463938 0.049786601
v 0.082885623 0.010368802 0.049786601
v 0.08289437 0.010383215 0.044853151
v 0.082894921 0.010384135 0.046721641
v 0.082958058 0.084833451 0.044169817
v 0.082966231 0.084827222 0.047406964
v 0.082967982 0.010517035 0.043286603
v 0.082967982 0.010517035 0.044652525
v 0.082967982 0.010517035 0.04692068
v 0.082967982 0.010517035 0.049786601
v 0.08299987 0.010298826 0.050286602
v 0.083055221 0.013066854 0.050652627
v 0.083091602 0.012001749 0.049786601
v 0.083092138 0.011999998 0.043919701
v 0.083092138 0.011999998 0.0476535
v 0.083149791 0.011066549 0.044169817
v 0.083149791 0.011066549 0.047403384
v 0.083164372 0.011163104 0.049786601
v 0.083178148 0.01150167 0.043286603
v 0.083178148 0.01150167 0.043987438
v 0.083178148 0.01150167 0.047585763
v 0.083178148 0.01150167 0.049786601
v 0.083219647 0.012041159 0.050286602
v 0.083297297 0.011146337 0.050286602
v 0.083312005 0.010107651 0.050652627
v 0.083430246 0.013397545 0.0507866
v 0.083522603 0.08438161 0.043286603
v 0.083522603 0.08438161 0.047590312
v 0.083569482 0.012148835 0.050652627
v 0.083660439 0.011100531 0.050652627
v 0.083738387 0.0098465011 0.0507866
v 0.084047019 0.083919451 0.049786601
v 0.084047347 0.01229592 0.0507866
v 0.084068045 0.083900005 0.043919701
v 0.084068045 0.083900005 0.0476535
v 0.084098667 0.083975367 0.050169285
v 0.084156513 0.011037957 0.0507866
v 0.084181584 0.039256096 0.040786602
v 0.084181584 0.039256096 0.043286603
v 0.084181584 0.052743904 0.040786602
v 0.084181584 0.052743904 0.043286603
v 0.084245741 0.084134616 0.05049371
v 0.084307313 0.077649996 0.0507866
v 0.084307313 0.078150004 0.050652627
v 0.084307313 0.078516021 0.050286602
v 0.084307313 0.078649998 0.043286603
v 0.084307313 0.078649998 0.049786601
v 0.084465854 0.084372945 0.050710481
v 0.084725492 0.084654078 0.0507866
v 0.084771603 0.046 0.040786602
v 0.084771603 0.046 0.043286603
v 0.084990457 0.082966551 0.044169817
v 0.084990457 0.082966551 0.047403384
v 0.085162625 0.078842118 0.043286603
v 0.085162625 0.078842118 0.049786601
v 0.08521992 0.078721017 0.050286602
v 0.08531557 0.082595311 0.044451274
v 0.085316256 0.082594492 0.04712113
v 0.085376456 0.078390151 0.050652627
v 0.085572794 0.082283214 0.044853151
v 0.085572794 0.082283214 0.04672005
v 0.085590288 0.077938177 0.0507866
v 0.085718066 0.082099095 0.045294609
v 0.085718125 0.08209902 0.046278324
v 0.085769013 0.082033098 0.045786601
v 0.085853621 0.079381563 0.043286603
v 0.085853621 0.079381563 0.049786601
v 0.085913055 0.081842303 0.043286603
v 0.085913055 0.081842303 0.049786601
v 0.085957207 0.079296589 0.050286602
v 0.085974172 0.081887685 0.050169285
v 0.086020619 0.081922174 0.050286602
v 0.08614821 0.082016915 0.05049371
v 0.086240202 0.079064459 0.050652627
v 0.086247541 0.080164701 0.043286603
v 0.086247541 0.080164701 0.049786601
v 0.086268708 0.081041068 0.043286603
v 0.086268708 0.081041068 0.049786601
v 0.086314484 0.082140386 0.050652627
v 0.086377516 0.080132186 0.050286602
v 0.086400092 0.081067264 0.050286602
v 0.08647 0 0.0417866
v 0.08647 0 0.049786601
v 0.08647 0.0061633997 0.0417866
v 0.08647 0.0061633997 0.049786601
v 0.086603977 0 0.041286603
v 0.086603977 0 0.050286602
v 0.086603977 0.0061633997 0.041286603
v 0.086603977 0.0061633997 0.050286602
v 0.086626776 0.078747347 0.0507866
v 0.086715922 0.082438461 0.0507866
v 0.086732596 0.080043375 0.050652627
v 0.086759061 0.081138834 0.050652627
v 0.08687 0.0199134 0.0507866
v 0.08687 0.020413399 0.050652627
v 0.08687 0.020779425 0.050286602
v 0.08687 0.0209134 0.043286603
v 0.08687 0.0209134 0.049786601
v 0.08687 0.071149997 0.043286603
v 0.08687 0.071149997 0.049786601
v 0.08687 0.071283974 0.050286602
v 0.08687 0.071649998 0.050652627
v 0.08687 0.072149999 0.0507866
v 0.086970001 0 0.040920578
v 0.086970001 0 0.050652627
v 0.086970001 0.0061633997 0.040920578
v 0.086970001 0.0061633997 0.050652627
v 0.087217659 0.07992205 0.0507866
v 0.087249406 0.081236601 0.0507866
v 0.087387636 0.071081847 0.049786601
v 0.087422311 0.071211264 0.050286602
v 0.087470002 0 0.040786602
v 0.087470002 0 0.0507866
v 0.087470002 0.0061633997 0.040786602
v 0.087470002 0.0061633997 0.0507866
v 0.087517053 0.071564816 0.050652627
v 0.087635368 0.021065639 0.049786601
v 0.087646 0 0.045786601
v 0.087646 0.0096011981 0.045786601
v 0.087646455 0.072047777 0.0507866
v 0.087686643 0.020941865 0.050286602
v 0.087826714 0.0206037 0.050652627
v 0.087850183 0 0.045024604
v 0.087850183 0 0.046548601
v 0.087850183 0.0096011981 0.045024604
v 0.087850183 0.0096011981 0.046548601
v 0.087870002 0.021181349 0.043286603
v 0.087870002 0.021181349 0.049786601
v 0.087870002 0.070882052 0.043286603
v 0.087870002 0.070882052 0.049786601
v 0.08793699 0.070998073 0.050286602
v 0.088018052 0.02014176 0.0507866
v 0.088119999 0.071315065 0.050652627
v 0.088284209 0.021499185 0.049786601
v 0.088284209 0.07056421 0.049786601
v 0.088370003 0.071748078 0.0507866
v 0.088378951 0.021404451 0.050286602
v 0.088378951 0.070658945 0.050286602
v 0.088408001 0 0.044466779
v 0.088408001 0 0.047106422
v 0.088408001 0.0096011981 0.044466779
v 0.088408001 0.0096011981 0.047106422
v 0.088531226 0.010133099 0.045786601
v 0.088563763 0.010140043 0.045625746
v 0.088563778 0.010140046 0.045947492
v 0.088602051 0.0219134 0.043286603
v 0.088602051 0.0219134 0.049786601
v 0.088602051 0.070150003 0.043286603
v 0.088602051 0.070150003 0.049786601
v 0.088637769 0.021145632 0.050652627
v 0.088637769 0.07091777 0.050652627
v 0.088651612 0.010157246 0.045487311
v 0.088651612 0.010157246 0.046085894
v 0.088717759 0.022148032 0.049786601
v 0.088718079 0.070216984 0.050286602
v 0.088722937 0.010169473 0.045419876
v 0.088801853 0.069667637 0.049786601
v 0.088841535 0.022096762 0.050286602
v 0.088870004 0.0229134 0.043286603
v 0.088870004 0.0229134 0.049786601
v 0.088870004 0.069150001 0.043286603
v 0.088870004 0.069150001 0.049786601
v 0.088900104 0.010192573 0.045319133
v 0.088900104 0.010192573 0.046254072
v 0.088931262 0.069702312 0.050286602
v 0.088946119 0.0229134 0.050169285
v 0.088946119 0.069150001 0.050169285
v 0.088991322 0.020792078 0.0507866
v 0.088991322 0.071271315 0.0507866
v 0.08900398 0.0229134 0.050286602
v 0.08900398 0.069150001 0.050286602
v 0.089035064 0.0704 0.050652627
v 0.089162894 0.0229134 0.05049371
v 0.089162894 0.069150001 0.05049371
v 0.089170001 0 0.044262603
v 0.089170001 0 0.047310602
v 0.089170001 0.0096011981 0.044262603
v 0.089170001 0.0096011981 0.047310602
v 0.089170001 0.010206163 0.04526943
v 0.089170001 0.010206163 0.046303771
v 0.089179695 0.021956692 0.050652627
v 0.089284815 0.069797046 0.050652627
v 0.089369997 0.0229134 0.050652627
v 0.089369997 0.069150001 0.050652627
v 0.089439899 0.010192573 0.045319133
v 0.089439899 0.010192573 0.046254072
v 0.089468077 0.070649996 0.0507866
v 0.089487314 0.0229134 0.050710481
v 0.089487314 0.069150001 0.050710481
v 0.089641638 0.021765349 0.0507866
v 0.08968839 0.010157246 0.045487311
v 0.08968839 0.010157246 0.046085894
v 0.089767784 0.069926456 0.0507866
v 0.089776181 0.010140054 0.045947596
v 0.08977624 0.010140043 0.045625754
v 0.08980877 0.010133099 0.045786601
v 0.089870006 0.0229134 0.0507866
v 0.089870006 0.069150001 0.0507866
v 0.089932002 0 0.044466779
v 0.089932002 0 0.047106422
v 0.089932002 0.0096011981 0.044466779
v 0.089932002 0.0096011981 0.047106422
v 0.09048982 0 0.045024604
v 0.09048982 0 0.046548601
v 0.09048982 0.0096011981 0.045024604
v 0.09048982 0.0096011981 0.046548601
v 0.090694003 0 0.045786601
v 0.090694003 0.0096011981 0.045786601
v 0.09087 0.090900004 0.0417866
v 0.09087 0.090900004 0.049786601
v 0.091370001 0.090766028 0.041286603
v 0.091370001 0.090766028 0.050286602
v 0.091736026 0.090399995 0.040920578
v 0.091736026 0.090399995 0.050652627
v 0.091835931 0.09015882 0.040820677
v 0.091835931 0.09015882 0.050752528
v 0.091870002 0 0.040786602
v 0.091870002 0 0.0507866
v 0.091870002 0.010133099 0.045786601
v 0.091870002 0.010383215 0.044853151
v 0.091870002 0.010383215 0.04672005
v 0.091870002 0.011066549 0.044169817
v 0.091870002 0.011066549 0.047403384
v 0.091870002 0.011999998 0.043919701
v 0.091870002 0.011999998 0.0476535
v 0.091870002 0.012933448 0.044169817
v 0.091870002 0.012933448 0.047403384
v 0.091870002 0.013616782 0.044853151
v 0.091870002 0.013616782 0.04672005
v 0.091870002 0.013866898 0.045786601
v 0.091870002 0.046 0.040786602
v 0.091870002 0.082033098 0.045786601
v 0.091870002 0.082283214 0.044853151
v 0.091870002 0.082283214 0.04672005
v 0.091870002 0.082966551 0.044169817
v 0.091870002 0.082966551 0.047403384
v 0.091870002 0.083900005 0.043919701
v 0.091870002 0.083900005 0.0476535
v 0.091870002 0.084833451 0.044169817
v 0.091870002 0.084833451 0.047403384
v 0.091870002 0.085516781 0.044853151
v 0.091870002 0.085516781 0.04672005
v 0.091870002 0.085766897 0.045786601
v 0.091870002 0.089900002 0.040786602
v 0.091870002 0.089900002 0.0507866
s 1
f 531// 526// 549//
f 752// 719// 686//
f 686// 719// 643//
f 686// 643// 572//
f 572// 643// 549//
f 549// 643// 610//
f 549// 610// 586//
f 498// 526// 521//
f 531// 549// 535//
f 535// 549// 586//
f 535// 586// 539//
f 539// 586// 573//
f 539// 573// 543//
f 543// 573// 575//
f 543// 575// 560//
f 560// 575// 588//
f 560// 588// 683//
f 683// 588// 614//
f 683// 614// 758//
f 837// 945// 947//
f 685// 616// 562//
f 562// 616// 590//
f 562// 590// 545//
f 620// 664// 599//
f 363// 431// 489//
f 489// 431// 457//
f 489// 457// 509//
f 427// 517// 455//
f 455// 517// 513//
f 455// 513// 468//
f 468// 513// 509//
f 468// 509// 470//
f 470// 509// 457//
f 784// 746// 805//
f 805// 746// 719//
f 805// 719// 793//
f 793// 719// 752//
f 403// 437// 500//
f 500// 437// 461//
f 760// 885// 685//
f 685// 885// 653//
f 685// 653// 616//
f 392// 287// 433//
f 433// 287// 365//
f 433// 365// 459//
f 459// 365// 491//
f 459// 491// 472//
f 472// 491// 511//
f 472// 511// 474//
f 474// 511// 515//
f 474// 515// 461//
f 461// 515// 519//
f 461// 519// 500//
f 840// 854// 832//
f 832// 854// 813//
f 832// 813// 664//
f 664// 813// 708//
f 664// 708// 599//
f 915// 885// 934//
f 934// 885// 760//
f 934// 760// 947//
f 947// 760// 827//
f 947// 827// 837//
f 500// 449// 403//
f 403// 449// 339//
f 403// 339// 202//
f 519// 523// 500//
f 500// 523// 528//
f 500// 528// 551//
f 551// 528// 533//
f 551// 533// 537//
f 614// 651// 758//
f 758// 651// 883//
f 758// 883// 913//
f 177// 168// 170//
f 599// 551// 620//
f 620// 551// 537//
f 620// 537// 592//
f 592// 537// 541//
f 592// 541// 579//
f 579// 541// 545//
f 579// 545// 577//
f 577// 545// 590//
f 840// 852// 854//
f 854// 852// 861//
f 854// 861// 863//
f 285// 85// 97//
f 297// 252// 322//
f 322// 252// 230//
f 521// 517// 498//
f 498// 517// 427//
f 498// 427// 476//
f 476// 427// 382//
f 476// 382// 361//
f 361// 382// 322//
f 361// 322// 292//
f 292// 322// 230//
f 292// 230// 243//
f 837// 825// 945//
f 945// 825// 758//
f 945// 758// 932//
f 932// 758// 913//
f 339// 221// 202//
f 202// 221// 177//
f 202// 177// 191//
f 191// 177// 170//
f 191// 170// 179//
f 97// 116// 285//
f 285// 116// 146//
f 285// 146// 363//
f 363// 146// 390//
f 363// 390// 431//
f 285// 206// 85//
f 85// 206// 196//
f 85// 196// 87//
f 87// 196// 208//
f 87// 208// 287//
f 99// 87// 118//
f 118// 87// 287//
f 118// 287// 148//
f 148// 287// 392//
f 948// 947// 946//
f 946// 947// 945//
f 855// 818// 821//
f 821// 839// 855//
f 855// 839// 844//
f 855// 844// 847//
f 847// 850// 855//
f 855// 850// 851//
f 855// 851// 854//
f 854// 851// 849//
f 854// 849// 846//
f 846// 843// 854//
f 854// 843// 838//
f 854// 838// 813//
f 730// 726// 708//
f 730// 708// 741//
f 838// 820// 813//
f 813// 820// 791//
f 813// 791// 708//
f 708// 791// 763//
f 708// 763// 741//
f 729// 742// 709//
f 709// 742// 762//
f 709// 762// 731//
f 731// 762// 792//
f 731// 792// 818//
f 818// 792// 814//
f 818// 814// 821//
f 567// 552// 599//
f 599// 552// 551//
f 567// 599// 678//
f 678// 599// 708//
f 678// 708// 709//
f 709// 708// 726//
f 709// 726// 729//
f 549// 550// 563//
f 549// 563// 572//
f 572// 563// 635//
f 572// 635// 686//
f 753// 752// 705//
f 705// 752// 686//
f 705// 686// 687//
f 687// 686// 635//
f 86// 85// 88//
f 88// 85// 87//
f 1010// 1003// 1017//
f 1021// 1017// 1023//
f 1023// 1017// 1030//
f 1023// 1030// 1025//
f 1026// 1028// 1031//
f 1031// 1028// 1029//
f 1031// 1029// 1030//
f 1030// 1029// 1027//
f 1030// 1027// 1025//
f 1026// 1031// 1024//
f 1024// 1031// 1004//
f 1024// 1004// 1022//
f 1016// 1014// 1017//
f 1017// 1014// 1012//
f 1017// 1012// 1010//
f 1010// 1008// 1003//
f 1003// 1008// 1006//
f 1003// 1006// 1004//
f 1004// 1006// 1005//
f 1005// 1007// 1004//
f 1004// 1007// 1009//
f 1004// 1009// 1011//
f 1015// 1016// 1018//
f 1018// 1016// 1017//
f 1018// 1017// 1019//
f 1019// 1017// 1021//
f 1022// 1004// 1020//
f 1020// 1004// 1011//
f 1020// 1011// 1018//
f 1018// 1011// 1013//
f 1018// 1013// 1015//
f 995// 36// 996//
f 996// 36// 37//
f 9// 2// 20//
f 25// 27// 28//
f 20// 2// 22//
f 22// 2// 29//
f 22// 29// 24//
f 16// 8// 10//
f 28// 27// 29//
f 29// 27// 26//
f 29// 26// 24//
f 17// 19// 15//
f 15// 19// 21//
f 15// 21// 28//
f 28// 21// 23//
f 28// 23// 25//
f 10// 12// 16//
f 16// 12// 14//
f 16// 14// 18//
f 18// 14// 13//
f 18// 13// 20//
f 20// 13// 11//
f 20// 11// 9//
f 9// 7// 2//
f 2// 7// 5//
f 2// 5// 1//
f 1// 5// 3//
f 1// 3// 4//
f 4// 6// 1//
f 1// 6// 8//
f 1// 8// 15//
f 15// 8// 16//
f 15// 16// 17//
f 983// 976// 901//
f 901// 976// 954//
f 901// 954// 918//
f 700// 627// 673//
f 673// 627// 613//
f 673// 613// 667//
f 667// 613// 612//
f 667// 612// 671//
f 735// 880// 714//
f 714// 880// 648//
f 714// 648// 700//
f 700// 648// 638//
f 700// 638// 627//
f 906// 922// 782//
f 371// 429// 379//
f 379// 429// 430//
f 733// 812// 766//
f 766// 812// 819//
f 735// 768// 880//
f 880// 768// 780//
f 880// 780// 918//
f 918// 780// 766//
f 918// 766// 901//
f 901// 766// 819//
f 901// 819// 823//
f 349// 421// 375//
f 375// 421// 435//
f 375// 435// 381//
f 381// 435// 436//
f 381// 436// 377//
f 310// 126// 152//
f 906// 782// 889//
f 345// 268// 303//
f 347// 387// 332//
f 332// 387// 143//
f 332// 143// 308//
f 823// 817// 901//
f 901// 817// 783//
f 901// 783// 710//
f 612// 626// 671//
f 671// 626// 637//
f 671// 637// 698//
f 698// 637// 647//
f 698// 647// 712//
f 712// 647// 725//
f 712// 725// 733//
f 733// 725// 756//
f 733// 756// 812//
f 310// 152// 334//
f 334// 152// 396//
f 334// 396// 349//
f 349// 396// 409//
f 349// 409// 421//
f 782// 770// 889//
f 889// 770// 737//
f 889// 737// 657//
f 657// 737// 639//
f 419// 429// 407//
f 407// 429// 371//
f 407// 371// 386//
f 386// 371// 345//
f 386// 345// 328//
f 328// 345// 303//
f 134// 272// 258//
f 48// 134// 56//
f 56// 134// 78//
f 408// 387// 420//
f 420// 387// 347//
f 420// 347// 430//
f 430// 347// 373//
f 430// 373// 379//
f 737// 716// 639//
f 639// 716// 702//
f 639// 702// 628//
f 628// 702// 675//
f 628// 675// 618//
f 618// 675// 669//
f 618// 669// 619//
f 619// 669// 629//
f 78// 134// 114//
f 114// 134// 258//
f 114// 258// 143//
f 143// 258// 274//
f 143// 274// 308//
f 710// 642// 901//
f 901// 642// 566//
f 901// 566// 546//
f 772// 848// 739//
f 739// 848// 829//
f 739// 829// 718//
f 718// 829// 658//
f 718// 658// 704//
f 704// 658// 677//
f 278// 312// 199//
f 199// 312// 336//
f 199// 336// 397//
f 397// 336// 351//
f 397// 351// 410//
f 410// 351// 377//
f 410// 377// 422//
f 422// 377// 436//
f 223// 216// 134//
f 134// 216// 210//
f 134// 210// 209//
f 209// 214// 134//
f 134// 214// 217//
f 134// 217// 272//
f 272// 217// 228//
f 272// 228// 306//
f 306// 228// 268//
f 306// 268// 330//
f 330// 268// 345//
f 677// 658// 669//
f 669// 658// 640//
f 669// 640// 629//
f 405// 134// 483//
f 483// 134// 492//
f 405// 337// 134//
f 134// 337// 256//
f 134// 256// 223//
f 184// 156// 110//
f 110// 156// 79//
f 137// 155// 29//
f 29// 155// 197//
f 979// 984// 1031//
f 1031// 984// 983//
f 1031// 983// 1004//
f 1004// 983// 901//
f 1004// 901// 899//
f 772// 782// 848//
f 848// 782// 922//
f 848// 922// 876//
f 876// 922// 955//
f 199// 184// 278//
f 278// 184// 110//
f 278// 110// 260//
f 260// 110// 126//
f 260// 126// 276//
f 276// 126// 310//
f 132// 134// 2//
f 2// 134// 48//
f 2// 48// 29//
f 29// 48// 49//
f 29// 49// 53//
f 877// 895// 1031//
f 1031// 895// 894//
f 1031// 894// 979//
f 979// 894// 876//
f 979// 876// 973//
f 973// 876// 955//
f 137// 29// 138//
f 138// 29// 53//
f 138// 53// 156//
f 156// 53// 60//
f 156// 60// 79//
f 197// 290// 29//
f 29// 290// 360//
f 29// 360// 478//
f 688// 754// 1031//
f 1031// 754// 835//
f 1031// 835// 877//
f 478// 507// 29//
f 29// 507// 558//
f 29// 558// 1031//
f 1031// 558// 571//
f 1031// 571// 688//
f 133// 131// 1//
f 376// 350// 529//
f 311// 277// 28//
f 28// 277// 259//
f 28// 259// 15//
f 529// 350// 28//
f 28// 350// 335//
f 28// 335// 311//
f 259// 275// 15//
f 15// 275// 309//
f 15// 309// 333//
f 207// 15// 286//
f 286// 15// 333//
f 286// 333// 364//
f 364// 333// 348//
f 364// 348// 490//
f 490// 348// 374//
f 490// 374// 510//
f 510// 374// 380//
f 510// 380// 514//
f 514// 380// 376//
f 514// 376// 518//
f 518// 376// 529//
f 518// 529// 522//
f 759// 684// 701//
f 1017// 781// 1030//
f 1030// 781// 771//
f 536// 529// 676//
f 771// 738// 1030//
f 1030// 738// 717//
f 1030// 717// 529//
f 529// 717// 703//
f 529// 703// 676//
f 536// 532// 529//
f 529// 532// 527//
f 529// 527// 522//
f 701// 684// 674//
f 674// 684// 561//
f 674// 561// 668//
f 668// 561// 544//
f 668// 544// 676//
f 676// 544// 540//
f 676// 540// 536//
f 701// 715// 759//
f 759// 715// 736//
f 759// 736// 1017//
f 1017// 736// 769//
f 1017// 769// 781//
f 1017// 1003// 900//
f 900// 1003// 898//
f 711// 732// 900//
f 824// 836// 1017//
f 1017// 836// 826//
f 1017// 826// 759//
f 732// 765// 900//
f 900// 765// 779//
f 900// 779// 1017//
f 524// 525// 530//
f 779// 767// 1017//
f 1017// 767// 734//
f 1017// 734// 713//
f 524// 530// 900//
f 900// 530// 534//
f 900// 534// 711//
f 824// 1017// 757//
f 757// 1017// 713//
f 757// 713// 682//
f 682// 713// 699//
f 682// 699// 559//
f 559// 699// 672//
f 559// 672// 542//
f 542// 672// 666//
f 542// 666// 538//
f 538// 666// 670//
f 538// 670// 534//
f 534// 670// 697//
f 534// 697// 711//
f 257// 1// 15//
f 1// 257// 133//
f 133// 257// 271//
f 133// 271// 305//
f 284// 362// 346//
f 346// 362// 372//
f 372// 362// 488//
f 372// 488// 378//
f 378// 488// 508//
f 378// 508// 370//
f 525// 524// 520//
f 520// 524// 133//
f 520// 133// 516//
f 207// 195// 15//
f 15// 195// 205//
f 15// 205// 284//
f 508// 512// 370//
f 370// 512// 516//
f 370// 516// 344//
f 344// 516// 133//
f 344// 133// 329//
f 329// 133// 305//
f 346// 331// 284//
f 284// 331// 307//
f 284// 307// 15//
f 15// 307// 273//
f 15// 273// 257//
f 501// 500// 552//
f 552// 500// 551//
f 196// 195// 208//
f 208// 195// 207//
f 208// 207// 287//
f 287// 207// 286//
f 287// 286// 365//
f 365// 286// 364//
f 365// 364// 491//
f 491// 364// 490//
f 491// 490// 511//
f 511// 490// 510//
f 511// 510// 515//
f 515// 510// 514//
f 515// 514// 519//
f 519// 514// 518//
f 519// 518// 523//
f 523// 518// 522//
f 523// 522// 528//
f 528// 522// 527//
f 528// 527// 533//
f 533// 527// 532//
f 533// 532// 537//
f 537// 532// 536//
f 537// 536// 541//
f 541// 536// 540//
f 541// 540// 545//
f 545// 540// 544//
f 545// 544// 562//
f 562// 544// 561//
f 562// 561// 685//
f 685// 561// 684//
f 685// 684// 760//
f 760// 684// 759//
f 760// 759// 827//
f 827// 759// 826//
f 827// 826// 837//
f 837// 826// 836//
f 837// 836// 825//
f 825// 836// 824//
f 825// 824// 758//
f 758// 824// 757//
f 758// 757// 683//
f 683// 757// 682//
f 683// 682// 560//
f 560// 682// 559//
f 560// 559// 543//
f 543// 559// 542//
f 543// 542// 539//
f 539// 542// 538//
f 539// 538// 535//
f 535// 538// 534//
f 535// 534// 531//
f 531// 534// 530//
f 531// 530// 526//
f 526// 530// 525//
f 526// 525// 521//
f 521// 525// 520//
f 521// 520// 517//
f 517// 520// 516//
f 517// 516// 513//
f 513// 516// 512//
f 513// 512// 509//
f 509// 512// 508//
f 509// 508// 489//
f 489// 508// 488//
f 489// 488// 363//
f 363// 488// 362//
f 363// 362// 285//
f 285// 362// 284//
f 285// 284// 206//
f 206// 284// 205//
f 206// 205// 196//
f 196// 205// 195//
f 498// 499// 526//
f 526// 499// 550//
f 526// 550// 549//
f 292// 293// 343//
f 292// 343// 361//
f 361// 343// 413//
f 361// 413// 476//
f 499// 498// 487//
f 487// 498// 476//
f 487// 476// 477//
f 477// 476// 413//
f 177// 221// 212//
f 212// 193// 177//
f 177// 193// 188//
f 177// 188// 185//
f 185// 182// 177//
f 177// 182// 181//
f 177// 181// 178//
f 178// 181// 183//
f 178// 183// 186//
f 186// 189// 178//
f 178// 189// 194//
f 178// 194// 215//
f 194// 213// 215//
f 215// 213// 248//
f 215// 248// 313//
f 313// 248// 281//
f 313// 281// 340//
f 340// 281// 302//
f 340// 302// 316//
f 321// 317// 339//
f 339// 317// 301//
f 301// 282// 339//
f 339// 282// 247//
f 339// 247// 221//
f 221// 247// 222//
f 221// 222// 212//
f 316// 321// 340//
f 340// 321// 339//
f 340// 339// 369//
f 369// 339// 449//
f 369// 449// 482//
f 482// 449// 500//
f 482// 500// 501//
f 67// 44// 1//
f 44// 40// 1//
f 1// 40// 38//
f 1// 38// 2//
f 105// 121// 162//
f 162// 121// 127//
f 162// 127// 161//
f 161// 127// 120//
f 161// 120// 157//
f 157// 120// 104//
f 157// 104// 139//
f 139// 104// 67//
f 139// 67// 131//
f 131// 67// 1//
f 162// 158// 105//
f 105// 158// 140//
f 105// 140// 68//
f 68// 140// 132//
f 68// 132// 45//
f 45// 132// 2//
f 45// 2// 41//
f 41// 2// 38//
f 962// 986// 1004//
f 1003// 985// 898//
f 898// 985// 961//
f 898// 961// 890//
f 890// 961// 925//
f 890// 925// 872//
f 872// 925// 868//
f 986// 990// 1004//
f 1004// 990// 993//
f 1004// 993// 1003//
f 1003// 993// 989//
f 1003// 989// 985//
f 925// 909// 868//
f 868// 909// 904//
f 868// 904// 869//
f 869// 904// 910//
f 869// 910// 873//
f 873// 910// 926//
f 873// 926// 891//
f 891// 926// 962//
f 891// 962// 899//
f 899// 962// 1004//
f 163// 164// 161//
f 161// 164// 162//
f 868// 869// 870//
f 870// 869// 871//
f 884// 883// 652//
f 652// 883// 651//
f 721// 722// 693//
f 693// 722// 644//
f 719// 720// 643//
f 643// 720// 692//
f 692// 690// 643//
f 643// 690// 689//
f 643// 689// 644//
f 644// 689// 691//
f 644// 691// 693//
f 576// 575// 574//
f 574// 575// 573//
f 833// 832// 665//
f 665// 832// 664//
f 654// 653// 886//
f 886// 653// 885//
f 580// 579// 578//
f 578// 579// 577//
f 981// 977// 991//
f 991// 977// 971//
f 991// 971// 987//
f 987// 971// 965//
f 987// 965// 963//
f 963// 965// 949//
f 963// 949// 927//
f 927// 949// 942//
f 927// 942// 911//
f 981// 991// 982//
f 982// 991// 994//
f 982// 994// 980//
f 980// 994// 992//
f 980// 992// 978//
f 978// 992// 988//
f 978// 988// 972//
f 972// 988// 964//
f 972// 964// 966//
f 966// 964// 928//
f 966// 928// 950//
f 950// 928// 912//
f 950// 912// 939//
f 942// 938// 911//
f 911// 938// 930//
f 911// 930// 905//
f 905// 930// 929//
f 905// 929// 912//
f 912// 929// 931//
f 912// 931// 939//
f 963// 961// 987//
f 987// 961// 985//
f 987// 985// 991//
f 991// 985// 989//
f 991// 989// 994//
f 994// 989// 993//
f 994// 993// 992//
f 992// 993// 990//
f 992// 990// 988//
f 988// 990// 986//
f 988// 986// 964//
f 964// 986// 962//
f 964// 962// 928//
f 928// 962// 926//
f 928// 926// 912//
f 912// 926// 910//
f 912// 910// 905//
f 905// 910// 904//
f 905// 904// 911//
f 911// 904// 909//
f 911// 909// 927//
f 927// 909// 925//
f 927// 925// 963//
f 963// 925// 961//
f 102// 93// 122//
f 122// 93// 83//
f 122// 83// 106//
f 106// 83// 71//
f 106// 71// 69//
f 69// 71// 61//
f 69// 61// 46//
f 46// 61// 57//
f 46// 57// 42//
f 102// 122// 103//
f 103// 122// 128//
f 103// 128// 101//
f 101// 128// 123//
f 101// 123// 94//
f 94// 123// 107//
f 94// 107// 84//
f 84// 107// 70//
f 84// 70// 72//
f 72// 70// 47//
f 72// 47// 62//
f 62// 47// 43//
f 62// 43// 55//
f 57// 54// 42//
f 42// 54// 51//
f 42// 51// 39//
f 39// 51// 50//
f 39// 50// 43//
f 43// 50// 52//
f 43// 52// 55//
f 69// 67// 106//
f 106// 67// 104//
f 106// 104// 122//
f 122// 104// 120//
f 122// 120// 128//
f 128// 120// 127//
f 128// 127// 123//
f 123// 127// 121//
f 123// 121// 107//
f 107// 121// 105//
f 107// 105// 70//
f 70// 105// 68//
f 70// 68// 47//
f 47// 68// 45//
f 47// 45// 43//
f 43// 45// 41//
f 43// 41// 39//
f 39// 41// 38//
f 39// 38// 42//
f 42// 38// 40//
f 42// 40// 46//
f 46// 40// 44//
f 46// 44// 69//
f 69// 44// 67//
f 693// 691// 695//
f 695// 691// 689//
f 695// 689// 696//
f 696// 689// 690//
f 696// 690// 694//
f 694// 690// 692//
f 807// 801// 1011//
f 721// 693// 695//
f 1011// 801// 1013//
f 801// 786// 1013//
f 1013// 786// 761//
f 1013// 761// 1015//
f 1015// 761// 747//
f 1015// 747// 728//
f 978// 972// 1007//
f 1007// 972// 966//
f 807// 1011// 803//
f 803// 1011// 1009//
f 803// 1009// 795//
f 795// 1009// 1007//
f 795// 1007// 790//
f 790// 1007// 966//
f 790// 966// 950//
f 950// 939// 790//
f 790// 939// 931//
f 790// 931// 776//
f 776// 931// 929//
f 776// 929// 775//
f 775// 929// 777//
f 777// 929// 930//
f 777// 930// 789//
f 789// 930// 938//
f 789// 938// 942//
f 942// 949// 789//
f 789// 949// 965//
f 789// 965// 1006//
f 1006// 965// 971//
f 971// 977// 1006//
f 1006// 977// 981//
f 1006// 981// 1005//
f 1005// 981// 982//
f 1005// 982// 1007//
f 1007// 982// 980//
f 1007// 980// 978//
f 1010// 806// 1008//
f 1008// 806// 802//
f 1008// 802// 1006//
f 1006// 802// 794//
f 1006// 794// 789//
f 1012// 785// 1010//
f 1010// 785// 800//
f 1010// 800// 806//
f 720// 727// 1014//
f 1014// 727// 750//
f 1014// 750// 1012//
f 1012// 750// 764//
f 1012// 764// 785//
f 692// 720// 694//
f 694// 720// 1014//
f 694// 1014// 696//
f 696// 1014// 1016//
f 696// 1016// 695//
f 695// 1016// 1015//
f 695// 1015// 721//
f 721// 1015// 728//
f 1027// 741// 763//
f 1027// 763// 1025//
f 741// 1027// 730//
f 730// 1027// 1029//
f 730// 1029// 726//
f 1028// 742// 1029//
f 1029// 742// 729//
f 1029// 729// 726//
f 821// 814// 1026//
f 1026// 814// 792//
f 1026// 792// 1028//
f 1028// 792// 762//
f 1028// 762// 742//
f 1026// 1024// 821//
f 821// 1024// 1022//
f 821// 1022// 839//
f 1020// 847// 1022//
f 1022// 847// 844//
f 1022// 844// 839//
f 1019// 849// 1018//
f 1018// 849// 851//
f 1018// 851// 1020//
f 1020// 851// 850//
f 1020// 850// 847//
f 763// 791// 1025//
f 1025// 791// 820//
f 1025// 820// 1023//
f 1023// 820// 838//
f 1023// 838// 1021//
f 1021// 838// 843//
f 1021// 843// 1019//
f 1019// 843// 846//
f 1019// 846// 849//
f 391// 390// 147//
f 147// 390// 146//
f 325// 324// 383//
f 383// 324// 353//
f 323// 322// 352//
f 352// 322// 382//
f 353// 358// 383//
f 383// 358// 359//
f 383// 359// 382//
f 382// 359// 357//
f 382// 357// 352//
f 469// 468// 471//
f 471// 468// 470//
f 404// 403// 203//
f 203// 403// 202//
f 473// 472// 475//
f 475// 472// 474//
f 149// 148// 393//
f 393// 148// 392//
f 237// 231// 230//
f 324// 325// 318//
f 318// 325// 320//
f 318// 320// 298//
f 298// 320// 299//
f 298// 299// 283//
f 283// 299// 270//
f 283// 270// 254//
f 254// 270// 255//
f 254// 255// 238//
f 238// 255// 239//
f 238// 239// 232//
f 239// 233// 232//
f 232// 233// 236//
f 232// 236// 235//
f 235// 236// 246//
f 235// 246// 245//
f 262// 264// 292//
f 292// 264// 293//
f 293// 264// 263//
f 293// 263// 250//
f 245// 246// 250//
f 250// 246// 265//
f 250// 265// 293//
f 230// 231// 243//
f 231// 234// 243//
f 243// 234// 244//
f 243// 244// 292//
f 292// 244// 251//
f 292// 251// 262//
f 237// 230// 253//
f 253// 230// 252//
f 253// 252// 279//
f 279// 252// 297//
f 279// 297// 295//
f 295// 297// 319//
f 319// 297// 322//
f 319// 322// 323//
f 383// 382// 427//
f 383// 427// 428//
f 428// 427// 455//
f 428// 455// 456//
f 456// 455// 468//
f 456// 468// 469//
f 471// 470// 457//
f 471// 457// 458//
f 458// 457// 431//
f 458// 431// 432//
f 432// 431// 390//
f 432// 390// 391//
f 147// 146// 129//
f 129// 146// 116//
f 129// 116// 117//
f 117// 116// 111//
f 111// 116// 97//
f 111// 97// 98//
f 98// 97// 92//
f 92// 97// 85//
f 92// 85// 86//
f 88// 87// 90//
f 90// 87// 99//
f 90// 99// 100//
f 100// 99// 112//
f 112// 99// 118//
f 112// 118// 119//
f 119// 118// 136//
f 136// 118// 148//
f 136// 148// 149//
f 393// 392// 433//
f 393// 433// 434//
f 434// 433// 459//
f 434// 459// 460//
f 460// 459// 472//
f 460// 472// 473//
f 475// 474// 461//
f 475// 461// 462//
f 462// 461// 437//
f 462// 437// 438//
f 438// 437// 403//
f 438// 403// 404//
f 203// 202// 192//
f 192// 202// 191//
f 192// 191// 180//
f 180// 191// 179//
f 180// 179// 171//
f 171// 179// 170//
f 171// 170// 169//
f 169// 170// 168//
f 169// 168// 178//
f 178// 168// 177//
f 855// 854// 864//
f 864// 854// 863//
f 864// 863// 862//
f 862// 863// 861//
f 862// 861// 853//
f 853// 861// 852//
f 853// 852// 841//
f 841// 852// 840//
f 841// 840// 833//
f 833// 840// 832//
f 665// 664// 620//
f 665// 620// 621//
f 621// 620// 592//
f 621// 592// 593//
f 593// 592// 579//
f 593// 579// 580//
f 578// 577// 590//
f 578// 590// 591//
f 591// 590// 616//
f 591// 616// 617//
f 617// 616// 653//
f 617// 653// 654//
f 947// 948// 943//
f 947// 943// 934//
f 943// 935// 934//
f 934// 935// 921//
f 934// 921// 915//
f 886// 885// 896//
f 896// 885// 915//
f 896// 915// 916//
f 916// 915// 921//
f 574// 573// 586//
f 574// 586// 587//
f 587// 586// 610//
f 587// 610// 611//
f 611// 610// 643//
f 611// 643// 644//
f 652// 651// 614//
f 652// 614// 615//
f 615// 614// 588//
f 615// 588// 589//
f 589// 588// 575//
f 589// 575// 576//
f 884// 903// 883//
f 883// 903// 913//
f 903// 914// 913//
f 913// 914// 920//
f 913// 920// 932//
f 946// 945// 940//
f 940// 945// 932//
f 940// 932// 933//
f 933// 932// 920//
f 720// 719// 727//
f 727// 719// 746//
f 727// 746// 750//
f 805// 800// 784//
f 784// 800// 785//
f 784// 785// 746//
f 746// 785// 764//
f 746// 764// 750//
f 793// 802// 805//
f 805// 802// 806//
f 805// 806// 800//
f 752// 753// 775//
f 775// 753// 776//
f 775// 777// 752//
f 752// 777// 789//
f 752// 789// 793//
f 793// 789// 794//
f 793// 794// 802//
f 776// 753// 790//
f 790// 753// 788//
f 790// 788// 795//
f 795// 788// 796//
f 795// 796// 803//
f 803// 796// 804//
f 803// 804// 807//
f 807// 804// 808//
f 807// 808// 801//
f 801// 808// 799//
f 801// 799// 786//
f 799// 787// 786//
f 786// 787// 774//
f 786// 774// 761//
f 761// 774// 748//
f 761// 748// 747//
f 747// 748// 744//
f 747// 744// 728//
f 728// 744// 722//
f 728// 722// 721//
f 231// 237// 8//
f 323// 352// 354//
f 54// 57// 4//
f 4// 57// 61//
f 4// 61// 71//
f 83// 93// 251//
f 251// 93// 102//
f 251// 102// 262//
f 262// 102// 103//
f 94// 250// 101//
f 101// 250// 263//
f 101// 263// 103//
f 103// 263// 264//
f 103// 264// 262//
f 94// 84// 250//
f 250// 84// 72//
f 250// 72// 5//
f 5// 72// 62//
f 62// 55// 5//
f 5// 55// 52//
f 5// 52// 3//
f 3// 52// 50//
f 3// 50// 4//
f 4// 50// 51//
f 4// 51// 54//
f 8// 237// 10//
f 237// 253// 10//
f 10// 253// 279//
f 10// 279// 12//
f 12// 279// 295//
f 12// 295// 319//
f 231// 8// 234//
f 234// 8// 6//
f 234// 6// 244//
f 244// 6// 4//
f 244// 4// 251//
f 251// 4// 71//
f 251// 71// 83//
f 9// 232// 7//
f 7// 232// 235//
f 7// 235// 5//
f 5// 235// 245//
f 5// 245// 250//
f 11// 254// 9//
f 9// 254// 238//
f 9// 238// 232//
f 324// 318// 13//
f 13// 318// 298//
f 13// 298// 11//
f 11// 298// 283//
f 11// 283// 254//
f 353// 324// 355//
f 355// 324// 13//
f 355// 13// 356//
f 356// 13// 14//
f 356// 14// 354//
f 354// 14// 12//
f 354// 12// 323//
f 323// 12// 319//
f 352// 357// 354//
f 354// 357// 359//
f 354// 359// 356//
f 356// 359// 358//
f 356// 358// 355//
f 355// 358// 353//
f 26// 302// 281//
f 26// 281// 24//
f 302// 26// 316//
f 316// 26// 27//
f 316// 27// 321//
f 25// 301// 27//
f 27// 301// 317//
f 27// 317// 321//
f 212// 222// 23//
f 23// 222// 247//
f 23// 247// 25//
f 25// 247// 282//
f 25// 282// 301//
f 23// 21// 212//
f 212// 21// 19//
f 212// 19// 193//
f 17// 185// 19//
f 19// 185// 188//
f 19// 188// 193//
f 18// 183// 16//
f 16// 183// 181//
f 16// 181// 17//
f 17// 181// 182//
f 17// 182// 185//
f 281// 248// 24//
f 24// 248// 213//
f 24// 213// 22//
f 22// 213// 194//
f 22// 194// 20//
f 20// 194// 189//
f 20// 189// 18//
f 18// 189// 186//
f 18// 186// 183//
f 667// 666// 673//
f 673// 666// 672//
f 673// 672// 700//
f 700// 672// 699//
f 700// 699// 714//
f 714// 699// 713//
f 714// 713// 735//
f 735// 713// 734//
f 735// 734// 768//
f 768// 734// 767//
f 768// 767// 780//
f 780// 767// 779//
f 780// 779// 766//
f 766// 779// 765//
f 766// 765// 733//
f 733// 765// 732//
f 733// 732// 712//
f 712// 732// 711//
f 712// 711// 698//
f 698// 711// 697//
f 698// 697// 671//
f 671// 697// 670//
f 671// 670// 667//
f 667// 670// 666//
f 258// 257// 274//
f 274// 257// 273//
f 274// 273// 308//
f 308// 273// 307//
f 308// 307// 332//
f 332// 307// 331//
f 332// 331// 347//
f 347// 331// 346//
f 347// 346// 373//
f 373// 346// 372//
f 373// 372// 379//
f 379// 372// 378//
f 379// 378// 371//
f 371// 378// 370//
f 371// 370// 345//
f 345// 370// 344//
f 345// 344// 330//
f 330// 344// 329//
f 330// 329// 306//
f 306// 329// 305//
f 306// 305// 272//
f 272// 305// 271//
f 272// 271// 258//
f 258// 271// 257//
f 260// 259// 278//
f 278// 259// 277//
f 278// 277// 312//
f 312// 277// 311//
f 312// 311// 336//
f 336// 311// 335//
f 336// 335// 351//
f 351// 335// 350//
f 351// 350// 377//
f 377// 350// 376//
f 377// 376// 381//
f 381// 376// 380//
f 381// 380// 375//
f 375// 380// 374//
f 375// 374// 349//
f 349// 374// 348//
f 349// 348// 334//
f 334// 348// 333//
f 334// 333// 310//
f 310// 333// 309//
f 310// 309// 276//
f 276// 309// 275//
f 276// 275// 260//
f 260// 275// 259//
f 669// 668// 677//
f 677// 668// 676//
f 677// 676// 704//
f 704// 676// 703//
f 704// 703// 718//
f 718// 703// 717//
f 718// 717// 739//
f 739// 717// 738//
f 739// 738// 772//
f 772// 738// 771//
f 772// 771// 782//
f 782// 771// 781//
f 782// 781// 770//
f 770// 781// 769//
f 770// 769// 737//
f 737// 769// 736//
f 737// 736// 716//
f 716// 736// 715//
f 716// 715// 702//
f 702// 715// 701//
f 702// 701// 675//
f 675// 701// 674//
f 675// 674// 669//
f 669// 674// 668//
f 893// 901// 546//
f 163// 159// 524//
f 524// 159// 141//
f 524// 141// 133//
f 492// 892// 546//
f 546// 892// 874//
f 546// 874// 870//
f 870// 871// 546//
f 546// 871// 875//
f 546// 875// 893//
f 134// 142// 492//
f 492// 142// 160//
f 492// 160// 164//
f 164// 163// 492//
f 492// 163// 524//
f 492// 524// 892//
f 892// 524// 900//
f 32// 35// 34//
f 34// 35// 37//
f 34// 37// 36//
f 28// 29// 30//
f 30// 29// 31//
f 30// 31// 32//
f 32// 31// 33//
f 32// 33// 35//
f 33// 998// 35//
f 35// 998// 996//
f 35// 996// 37//
f 29// 1031// 31//
f 31// 1031// 1002//
f 31// 1002// 33//
f 33// 1002// 1000//
f 33// 1000// 998//
f 1030// 529// 1001//
f 1001// 529// 999//
f 28// 30// 529//
f 529// 30// 32//
f 529// 32// 999//
f 999// 32// 34//
f 999// 34// 997//
f 997// 34// 36//
f 997// 36// 995//
f 1000// 997// 998//
f 998// 997// 995//
f 998// 995// 996//
f 1031// 1030// 1002//
f 1002// 1030// 1001//
f 1002// 1001// 1000//
f 1000// 1001// 999//
f 1000// 999// 997//
f 163// 161// 157//
f 163// 157// 159//
f 159// 157// 139//
f 159// 139// 141//
f 141// 139// 131//
f 141// 131// 133//
f 162// 164// 160//
f 162// 160// 158//
f 158// 160// 142//
f 158// 142// 140//
f 140// 142// 134//
f 140// 134// 132//
f 900// 898// 890//
f 900// 890// 892//
f 892// 890// 872//
f 892// 872// 874//
f 874// 872// 868//
f 874// 868// 870//
f 899// 901// 893//
f 899// 893// 891//
f 891// 893// 875//
f 891// 875// 873//
f 873// 875// 871//
f 873// 871// 869//
f 477// 413// 412//
f 484// 483// 492//
f 338// 341// 280//
f 256// 337// 267//
f 267// 337// 338//
f 267// 338// 269//
f 269// 338// 280//
f 492// 493// 484//
f 484// 493// 494//
f 484// 494// 485//
f 343// 293// 342//
f 342// 293// 291//
f 342// 291// 341//
f 341// 291// 289//
f 341// 289// 280//
f 337// 405// 338//
f 338// 405// 406//
f 338// 406// 341//
f 341// 406// 411//
f 341// 411// 342//
f 342// 411// 412//
f 342// 412// 343//
f 343// 412// 413//
f 487// 477// 486//
f 486// 477// 412//
f 486// 412// 485//
f 485// 412// 411//
f 485// 411// 484//
f 484// 411// 406//
f 484// 406// 483//
f 483// 406// 405//
f 494// 495// 485//
f 485// 495// 496//
f 485// 496// 486//
f 486// 496// 497//
f 486// 497// 487//
f 487// 497// 499//
f 325// 326// 315//
f 326// 327// 314//
f 327// 328// 303//
f 327// 303// 314//
f 314// 303// 268//
f 314// 268// 288//
f 288// 268// 228//
f 288// 228// 249//
f 249// 228// 217//
f 249// 217// 226//
f 226// 217// 214//
f 226// 214// 220//
f 220// 214// 209//
f 220// 209// 218//
f 218// 209// 210//
f 218// 210// 219//
f 219// 210// 216//
f 219// 216// 224//
f 224// 216// 223//
f 224// 223// 241//
f 241// 223// 256//
f 241// 256// 267//
f 326// 314// 315//
f 315// 314// 288//
f 315// 288// 294//
f 294// 288// 249//
f 294// 249// 266//
f 266// 249// 226//
f 266// 226// 242//
f 242// 226// 220//
f 242// 220// 229//
f 229// 220// 218//
f 229// 218// 225//
f 225// 218// 219//
f 225// 219// 227//
f 227// 219// 224//
f 227// 224// 240//
f 240// 224// 241//
f 240// 241// 261//
f 267// 269// 241//
f 241// 269// 280//
f 241// 280// 261//
f 261// 280// 289//
f 261// 289// 291//
f 325// 315// 320//
f 320// 315// 294//
f 320// 294// 299//
f 299// 294// 266//
f 299// 266// 270//
f 270// 266// 242//
f 270// 242// 255//
f 255// 242// 229//
f 255// 229// 239//
f 239// 229// 225//
f 239// 225// 233//
f 233// 225// 227//
f 233// 227// 236//
f 236// 227// 240//
f 236// 240// 246//
f 246// 240// 261//
f 246// 261// 265//
f 265// 261// 291//
f 265// 291// 293//
f 493// 492// 546//
f 493// 546// 494//
f 494// 546// 547//
f 494// 547// 495//
f 495// 547// 496//
f 496// 547// 548//
f 496// 548// 497//
f 497// 548// 550//
f 497// 550// 499//
f 386// 328// 327//
f 386// 327// 385//
f 385// 327// 326//
f 385// 326// 384//
f 384// 326// 325//
f 384// 325// 383//
f 687// 635// 636//
f 546// 566// 547//
f 547// 566// 565//
f 547// 565// 548//
f 548// 565// 564//
f 548// 564// 550//
f 550// 564// 563//
f 566// 642// 565//
f 565// 642// 641//
f 565// 641// 564//
f 564// 641// 636//
f 564// 636// 563//
f 563// 636// 635//
f 705// 687// 706//
f 706// 687// 636//
f 706// 636// 707//
f 707// 636// 641//
f 707// 641// 710//
f 710// 641// 642//
f 710// 783// 707//
f 707// 783// 773//
f 707// 773// 706//
f 706// 773// 755//
f 706// 755// 705//
f 705// 755// 753//
f 383// 428// 384//
f 384// 428// 423//
f 384// 423// 385//
f 385// 423// 415//
f 385// 415// 386//
f 386// 415// 407//
f 428// 456// 423//
f 423// 456// 450//
f 423// 450// 415//
f 415// 450// 440//
f 415// 440// 407//
f 407// 440// 419//
f 456// 469// 450//
f 450// 469// 463//
f 450// 463// 440//
f 440// 463// 445//
f 440// 445// 419//
f 419// 445// 429//
f 796// 788// 797//
f 816// 823// 819//
f 817// 823// 811//
f 811// 823// 816//
f 811// 816// 797//
f 815// 809// 810//
f 819// 812// 815//
f 815// 812// 798//
f 815// 798// 809//
f 809// 798// 778//
f 783// 817// 773//
f 773// 817// 811//
f 773// 811// 755//
f 755// 811// 797//
f 755// 797// 753//
f 753// 797// 788//
f 819// 815// 816//
f 816// 815// 810//
f 816// 810// 797//
f 797// 810// 804//
f 797// 804// 796//
f 748// 774// 778//
f 778// 774// 787//
f 778// 787// 809//
f 809// 787// 799//
f 809// 799// 810//
f 810// 799// 808//
f 810// 808// 804//
f 744// 748// 745//
f 745// 748// 778//
f 745// 778// 751//
f 751// 778// 798//
f 751// 798// 756//
f 756// 798// 812//
f 756// 725// 751//
f 751// 725// 724//
f 751// 724// 745//
f 745// 724// 723//
f 745// 723// 744//
f 744// 723// 722//
f 430// 429// 445//
f 430// 445// 446//
f 446// 445// 463//
f 446// 463// 464//
f 464// 463// 469//
f 464// 469// 471//
f 725// 647// 646//
f 725// 646// 724//
f 724// 646// 645//
f 724// 645// 723//
f 723// 645// 644//
f 723// 644// 722//
f 471// 458// 464//
f 464// 458// 451//
f 464// 451// 446//
f 446// 451// 441//
f 446// 441// 430//
f 430// 441// 420//
f 458// 432// 451//
f 451// 432// 424//
f 451// 424// 441//
f 441// 424// 416//
f 441// 416// 420//
f 420// 416// 408//
f 432// 391// 424//
f 424// 391// 389//
f 424// 389// 416//
f 416// 389// 388//
f 416// 388// 408//
f 408// 388// 387//
f 574// 587// 582//
f 582// 587// 596//
f 582// 596// 600//
f 600// 596// 606//
f 600// 606// 612//
f 612// 606// 626//
f 587// 611// 596//
f 596// 611// 623//
f 596// 623// 606//
f 606// 623// 631//
f 606// 631// 626//
f 626// 631// 637//
f 611// 644// 623//
f 623// 644// 645//
f 623// 645// 631//
f 631// 645// 646//
f 631// 646// 637//
f 637// 646// 647//
f 143// 387// 388//
f 143// 388// 144//
f 144// 388// 389//
f 144// 389// 145//
f 145// 389// 391//
f 145// 391// 147//
f 612// 613// 601//
f 612// 601// 600//
f 600// 601// 583//
f 600// 583// 582//
f 582// 583// 576//
f 582// 576// 574//
f 89// 66// 95//
f 58// 48// 56//
f 58// 56// 63//
f 63// 56// 66//
f 66// 56// 78//
f 66// 78// 95//
f 95// 78// 114//
f 95// 114// 124//
f 124// 114// 143//
f 124// 143// 144//
f 89// 95// 108//
f 108// 95// 124//
f 108// 124// 125//
f 125// 124// 144//
f 125// 144// 145//
f 98// 92// 89//
f 89// 92// 86//
f 86// 80// 89//
f 89// 80// 76//
f 89// 76// 66//
f 66// 76// 73//
f 66// 73// 63//
f 98// 89// 111//
f 111// 89// 108//
f 111// 108// 117//
f 117// 108// 125//
f 117// 125// 129//
f 129// 125// 145//
f 129// 145// 147//
f 652// 615// 650//
f 650// 615// 624//
f 650// 624// 649//
f 649// 624// 632//
f 649// 632// 648//
f 648// 632// 638//
f 615// 589// 624//
f 624// 589// 597//
f 624// 597// 632//
f 632// 597// 607//
f 632// 607// 638//
f 638// 607// 627//
f 589// 576// 597//
f 597// 576// 583//
f 597// 583// 607//
f 607// 583// 601//
f 607// 601// 627//
f 627// 601// 613//
f 48// 58// 49//
f 49// 58// 59//
f 59// 58// 64//
f 64// 58// 63//
f 64// 63// 74//
f 74// 63// 73//
f 74// 73// 77//
f 77// 73// 76//
f 77// 76// 81//
f 76// 80// 81//
f 81// 80// 86//
f 81// 86// 88//
f 648// 880// 881//
f 648// 881// 649//
f 649// 881// 882//
f 649// 882// 650//
f 650// 882// 884//
f 650// 884// 652//
f 149// 150// 135//
f 150// 151// 130//
f 151// 152// 126//
f 151// 126// 130//
f 130// 126// 110//
f 130// 110// 113//
f 113// 110// 79//
f 113// 79// 96//
f 96// 79// 60//
f 96// 60// 75//
f 75// 60// 53//
f 75// 53// 65//
f 65// 53// 49//
f 65// 49// 59//
f 150// 130// 135//
f 135// 130// 113//
f 135// 113// 115//
f 115// 113// 96//
f 115// 96// 109//
f 109// 96// 75//
f 109// 75// 91//
f 91// 75// 65//
f 91// 65// 82//
f 59// 64// 65//
f 65// 64// 74//
f 65// 74// 82//
f 82// 74// 77//
f 82// 77// 81//
f 149// 135// 136//
f 136// 135// 115//
f 136// 115// 119//
f 119// 115// 109//
f 119// 109// 112//
f 112// 109// 91//
f 112// 91// 100//
f 100// 91// 82//
f 100// 82// 90//
f 90// 82// 81//
f 90// 81// 88//
f 914// 903// 907//
f 976// 983// 974//
f 976// 974// 967//
f 918// 954// 908//
f 908// 954// 936//
f 908// 936// 907//
f 907// 936// 923//
f 954// 976// 936//
f 936// 976// 967//
f 936// 967// 923//
f 923// 967// 944//
f 880// 918// 881//
f 881// 918// 908//
f 881// 908// 882//
f 882// 908// 907//
f 882// 907// 884//
f 884// 907// 903//
f 974// 969// 967//
f 967// 969// 959//
f 967// 959// 944//
f 944// 959// 956//
f 944// 956// 952//
f 914// 907// 920//
f 920// 907// 923//
f 920// 923// 933//
f 933// 923// 944//
f 933// 944// 940//
f 940// 944// 952//
f 940// 952// 946//
f 396// 152// 151//
f 396// 151// 395//
f 395// 151// 150//
f 395// 150// 394//
f 394// 150// 149//
f 394// 149// 393//
f 984// 975// 983//
f 983// 975// 974//
f 974// 975// 969//
f 969// 975// 970//
f 969// 970// 959//
f 959// 970// 960//
f 959// 960// 956//
f 956// 960// 957//
f 956// 957// 952//
f 957// 953// 952//
f 952// 953// 948//
f 952// 948// 946//
f 393// 434// 394//
f 394// 434// 425//
f 394// 425// 395//
f 395// 425// 417//
f 395// 417// 396//
f 396// 417// 409//
f 434// 460// 425//
f 425// 460// 452//
f 425// 452// 417//
f 417// 452// 442//
f 417// 442// 409//
f 409// 442// 421//
f 460// 473// 452//
f 452// 473// 465//
f 452// 465// 442//
f 442// 465// 447//
f 442// 447// 421//
f 421// 447// 435//
f 951// 968// 958//
f 975// 984// 979//
f 968// 970// 975//
f 975// 979// 968//
f 968// 979// 973//
f 968// 973// 958//
f 958// 973// 955//
f 958// 955// 937//
f 937// 955// 922//
f 937// 922// 919//
f 919// 922// 906//
f 919// 906// 902//
f 902// 906// 889//
f 902// 889// 888//
f 951// 958// 941//
f 941// 958// 937//
f 941// 937// 924//
f 924// 937// 919//
f 924// 919// 917//
f 917// 919// 902//
f 917// 902// 897//
f 897// 902// 888//
f 897// 888// 887//
f 948// 953// 951//
f 951// 953// 957//
f 951// 957// 968//
f 968// 957// 960//
f 968// 960// 970//
f 948// 951// 943//
f 943// 951// 941//
f 943// 941// 935//
f 935// 941// 924//
f 935// 924// 921//
f 921// 924// 917//
f 921// 917// 916//
f 916// 917// 897//
f 916// 897// 896//
f 896// 897// 887//
f 896// 887// 886//
f 436// 435// 443//
f 443// 435// 447//
f 443// 447// 448//
f 448// 447// 454//
f 454// 447// 465//
f 454// 465// 466//
f 466// 465// 467//
f 467// 465// 473//
f 467// 473// 475//
f 889// 657// 656//
f 889// 656// 888//
f 888// 656// 655//
f 888// 655// 887//
f 887// 655// 654//
f 887// 654// 886//
f 426// 438// 404//
f 475// 462// 467//
f 467// 462// 453//
f 467// 453// 466//
f 466// 453// 444//
f 404// 402// 426//
f 426// 402// 401//
f 426// 401// 418//
f 439// 448// 444//
f 444// 448// 454//
f 444// 454// 466//
f 422// 436// 439//
f 439// 436// 443//
f 439// 443// 448//
f 462// 438// 453//
f 453// 438// 426//
f 453// 426// 444//
f 444// 426// 418//
f 444// 418// 439//
f 439// 418// 414//
f 439// 414// 422//
f 422// 414// 410//
f 401// 400// 418//
f 418// 400// 399//
f 418// 399// 414//
f 414// 399// 398//
f 414// 398// 410//
f 410// 398// 397//
f 578// 591// 584//
f 584// 591// 598//
f 584// 598// 602//
f 602// 598// 608//
f 602// 608// 618//
f 618// 608// 628//
f 591// 617// 598//
f 598// 617// 625//
f 598// 625// 608//
f 608// 625// 633//
f 608// 633// 628//
f 628// 633// 639//
f 617// 654// 625//
f 625// 654// 655//
f 625// 655// 633//
f 633// 655// 656//
f 633// 656// 639//
f 639// 656// 657//
f 397// 398// 199//
f 199// 398// 200//
f 398// 399// 200//
f 200// 399// 400//
f 200// 400// 201//
f 404// 203// 402//
f 402// 203// 201//
f 402// 201// 401//
f 401// 201// 400//
f 619// 605// 618//
f 618// 605// 602//
f 605// 603// 602//
f 602// 603// 594//
f 602// 594// 584//
f 580// 578// 581//
f 581// 578// 584//
f 581// 584// 585//
f 585// 584// 594//
f 165// 153// 154//
f 167// 155// 137//
f 167// 137// 153//
f 153// 137// 138//
f 153// 138// 154//
f 154// 138// 156//
f 154// 156// 172//
f 172// 156// 184//
f 172// 184// 187//
f 187// 184// 199//
f 187// 199// 200//
f 165// 154// 166//
f 166// 154// 172//
f 166// 172// 176//
f 176// 172// 187//
f 176// 187// 190//
f 190// 187// 200//
f 190// 200// 201//
f 178// 175// 165//
f 165// 175// 174//
f 165// 174// 153//
f 153// 174// 173//
f 153// 173// 167//
f 178// 165// 169//
f 169// 165// 166//
f 169// 166// 171//
f 171// 166// 176//
f 171// 176// 180//
f 180// 176// 190//
f 180// 190// 192//
f 192// 190// 201//
f 192// 201// 203//
f 595// 593// 580//
f 665// 621// 663//
f 663// 621// 622//
f 663// 622// 662//
f 662// 622// 630//
f 580// 581// 595//
f 595// 581// 585//
f 595// 585// 604//
f 634// 660// 630//
f 630// 660// 661//
f 630// 661// 662//
f 640// 658// 634//
f 634// 658// 659//
f 634// 659// 660//
f 621// 593// 622//
f 622// 593// 595//
f 622// 595// 630//
f 630// 595// 604//
f 630// 604// 634//
f 634// 604// 609//
f 634// 609// 640//
f 640// 609// 629//
f 585// 594// 604//
f 604// 594// 603//
f 604// 603// 609//
f 609// 603// 605//
f 609// 605// 629//
f 629// 605// 619//
f 340// 369// 368//
f 479// 480// 504//
f 507// 478// 506//
f 506// 478// 479//
f 506// 479// 505//
f 505// 479// 504//
f 482// 501// 481//
f 481// 501// 502//
f 481// 502// 480//
f 480// 502// 503//
f 480// 503// 504//
f 478// 360// 479//
f 479// 360// 366//
f 479// 366// 480//
f 480// 366// 367//
f 480// 367// 481//
f 481// 367// 368//
f 481// 368// 482//
f 482// 368// 369//
f 360// 290// 366//
f 366// 290// 296//
f 366// 296// 367//
f 367// 296// 300//
f 367// 300// 368//
f 368// 300// 304//
f 368// 304// 340//
f 340// 304// 313//
f 290// 197// 296//
f 296// 197// 198//
f 296// 198// 300//
f 300// 198// 204//
f 300// 204// 304//
f 304// 204// 211//
f 304// 211// 313//
f 313// 211// 215//
f 178// 215// 175//
f 175// 215// 211//
f 175// 211// 174//
f 174// 211// 204//
f 174// 204// 173//
f 173// 204// 198//
f 173// 198// 167//
f 167// 198// 197//
f 167// 197// 155//
f 658// 829// 659//
f 659// 829// 830//
f 659// 830// 660//
f 660// 830// 661//
f 661// 830// 831//
f 661// 831// 662//
f 662// 831// 663//
f 663// 831// 833//
f 663// 833// 665//
f 558// 507// 557//
f 557// 507// 506//
f 557// 506// 556//
f 556// 506// 505//
f 556// 505// 555//
f 555// 505// 504//
f 555// 504// 554//
f 554// 504// 503//
f 554// 503// 553//
f 553// 503// 502//
f 553// 502// 552//
f 552// 502// 501//
f 833// 831// 842//
f 831// 830// 845//
f 877// 879// 895//
f 895// 879// 878//
f 895// 878// 894//
f 894// 878// 860//
f 894// 860// 876//
f 876// 860// 845//
f 876// 845// 848//
f 848// 845// 830//
f 848// 830// 829//
f 831// 845// 842//
f 842// 845// 860//
f 842// 860// 856//
f 856// 860// 878//
f 856// 878// 866//
f 866// 878// 879//
f 866// 879// 867//
f 877// 865// 879//
f 879// 865// 859//
f 879// 859// 867//
f 867// 859// 858//
f 867// 858// 857//
f 833// 842// 841//
f 841// 842// 856//
f 841// 856// 853//
f 853// 856// 866//
f 853// 866// 862//
f 862// 866// 867//
f 862// 867// 864//
f 864// 867// 857//
f 864// 857// 855//
f 570// 571// 558//
f 877// 835// 834//
f 877// 834// 865//
f 865// 834// 828//
f 865// 828// 859//
f 754// 688// 749//
f 749// 688// 681//
f 749// 681// 743//
f 743// 681// 680//
f 743// 680// 740//
f 688// 571// 681//
f 681// 571// 570//
f 681// 570// 680//
f 680// 570// 569//
f 558// 557// 570//
f 570// 557// 556//
f 570// 556// 569//
f 569// 556// 555//
f 569// 555// 554//
f 740// 680// 679//
f 679// 680// 569//
f 679// 569// 568//
f 568// 569// 554//
f 568// 554// 553//
f 818// 855// 822//
f 822// 855// 857//
f 822// 857// 828//
f 828// 857// 858//
f 828// 858// 859//
f 835// 754// 834//
f 834// 754// 749//
f 834// 749// 828//
f 828// 749// 743//
f 828// 743// 822//
f 822// 743// 740//
f 822// 740// 818//
f 818// 740// 731//
f 731// 740// 709//
f 709// 740// 679//
f 709// 679// 678//
f 678// 679// 568//
f 678// 568// 567//
f 567// 568// 553//
f 567// 553// 552//
